<?xml version="1.0" encoding="UTF-8"?>
<svg width="58px" height="59px" viewBox="0 0 58 59" version="1.1" xmlns="http://www.w3.org/2000/svg" xmlns:xlink="http://www.w3.org/1999/xlink">
    <!-- Generator: Sketch 46.2 (44496) - http://www.bohemiancoding.com/sketch -->
    <title>analytics-icon</title>
    <desc>Created with Sketch.</desc>
    <defs>
        <polygon id="path-1" points="0.124605964 16.8791209 19.0872102 16.8791209 19.0872102 0.085044993 0.124605964 0.085044993 0.124605964 16.8791209"></polygon>
        <polygon id="path-3" points="0.175349686 0.10347635 20.1207836 0.10347635 20.1207836 20.16677 0.175349686 20.16677 0.175349686 0.10347635"></polygon>
    </defs>
    <g id="Page-1" stroke="none" stroke-width="1" fill="none" fill-rule="evenodd">
        <g id="Hompage-2" transform="translate(-690.000000, -506.000000)">
            <g id="Trust" transform="translate(555.000000, 447.000000)">
                <g id="analytics-icon" transform="translate(135.000000, 59.000000)">
                    <path d="M44.9183006,38.1269986 L17.2501119,38.1269986 C14.8429296,38.1269986 12.8727535,36.1455366 12.8727535,33.7237496 L12.8727535,12.7319943 C12.8727535,10.3102074 14.8429296,8.32874534 17.2501119,8.32874534 L44.9183006,8.32874534 C47.3258478,8.32874534 49.2956591,10.3102074 49.2956591,12.7319943 L49.2956591,33.7237496 C49.2956591,36.1455366 47.3258478,38.1269986 44.9183006,38.1269986" id="Fill-1" fill="#FFFFFF"></path>
                    <path d="M17.2502214,9.06262016 C15.2388252,9.06262016 13.6024226,10.7087014 13.6024226,12.7319943 L13.6024226,33.7237496 C13.6024226,35.7470425 15.2388252,37.3931237 17.2502214,37.3931237 L44.9184101,37.3931237 C46.9294415,37.3931237 48.5662088,35.7470425 48.5662088,33.7237496 L48.5662088,12.7319943 C48.5662088,10.7087014 46.9294415,9.06262016 44.9184101,9.06262016 L17.2502214,9.06262016 Z M44.9184101,38.8608734 L17.2502214,38.8608734 C14.4341208,38.8608734 12.1433031,36.5565065 12.1433031,33.7237496 L12.1433031,12.7319943 C12.1433031,9.89923746 14.4341208,7.59487052 17.2502214,7.59487052 L44.9184101,7.59487052 C47.7341459,7.59487052 50.0253283,9.89923746 50.0253283,12.7319943 L50.0253283,33.7237496 C50.0253283,36.5565065 47.7341459,38.8608734 44.9184101,38.8608734 L44.9184101,38.8608734 Z" id="Fill-3" fill="#0E1944"></path>
                    <path d="M27.1309774,41.1301244 L46.0579459,55.4623327" id="Fill-5" fill="#FFFFFF"></path>
                    <path d="M46.0571434,56.1961709 C45.9046654,56.1961709 45.7503635,56.1481021 45.6190428,56.048662 L26.6920742,41.7164537 C26.3703384,41.4728073 26.3057723,41.0126677 26.5483509,40.688662 C26.7898352,40.3653902 27.247634,40.2997084 27.5697346,40.5437217 L46.4967031,54.8759301 C46.818439,55.1195765 46.883005,55.579716 46.6407912,55.9037217 C46.4974327,56.0952631 46.2785648,56.1961709 46.0571434,56.1961709" id="Fill-7" fill="#0E1944"></path>
                    <path d="M46.3389358,56.5698232 L46.3389358,56.5698232 C44.9597031,58.4125829 42.3325585,58.7853913 40.5002692,57.3983679 L31.3297031,50.4540774 C29.4977786,49.067054 29.1271623,46.4240038 30.5067597,44.5812441 C31.8856277,42.7381175 34.5131371,42.3653091 36.3454264,43.7526995 L45.5152629,50.696623 C47.3475522,52.0840134 47.7178038,54.7270635 46.3389358,56.5698232" id="Fill-9" fill="#FFEBDE"></path>
                    <g id="Group-13" transform="translate(28.817610, 42.094326)">
                        <mask id="mask-2" fill="white">
                            <use xlink:href="#path-1"></use>
                        </mask>
                        <g id="Clip-12"></g>
                        <path d="M17.5213258,14.4754974 L17.5249736,14.4754974 L17.5213258,14.4754974 Z M5.03308679,1.55306259 C4.86930063,1.55306259 4.70514969,1.56443765 4.54026918,1.58792164 C3.62722516,1.71745055 2.82142642,2.19336837 2.27170314,2.92797707 C1.72197987,3.6629527 1.48997987,4.57332441 1.61874717,5.49176875 C1.74751447,6.41021309 2.22063396,7.22041089 2.95128805,7.77375251 L12.1214893,14.7176761 C13.6371497,15.8650893 15.7973761,15.5583297 16.9384075,14.0340717 L16.9384075,14.0340717 C18.0790742,12.5098137 17.7741182,10.3360764 16.2588226,9.18866316 L7.08862138,2.24473961 C6.49038239,1.79157191 5.7743195,1.55306259 5.03308679,1.55306259 L5.03308679,1.55306259 Z M14.1843195,16.8793043 C13.1585585,16.8793043 12.1247723,16.5571333 11.2438289,15.8900411 L2.07326289,8.94611753 C1.03181635,8.1572021 0.356973585,7.00318395 0.173854088,5.69651983 C-0.00926540881,4.38985571 0.321954717,3.0930989 1.10623145,2.04549259 C1.8901434,0.99751935 3.0373761,0.318685141 4.33635723,0.134482561 C5.6364327,-0.0493530817 6.92447044,0.283092212 7.96664654,1.07200764 L17.136483,8.0159312 C19.2945208,9.65027043 19.7286088,12.7457544 18.104244,14.9169231 L18.104244,14.9169231 C17.1426843,16.201571 15.6718918,16.8793043 14.1843195,16.8793043 L14.1843195,16.8793043 Z" id="Fill-11" fill="#0E1944" mask="url(#mask-2)"></path>
                    </g>
                    <path d="M15.235761,38.1269986 L46.9329434,38.1269986 C48.2322893,38.1269986 49.2956226,37.057376 49.2956226,35.750345 L49.2956226,10.7053989 C49.2956226,10.0735327 49.0457484,9.49890874 48.6423019,9.0717936 L37.3319371,26.1692422 C37.0583522,26.5827807 36.4783522,26.6440592 36.1256101,26.2969365 L27.9600126,18.2643096 C27.6280629,17.9373684 27.0881887,17.9692919 26.7963648,18.3329269 L17.6878113,29.6845026 L12.872717,34.8700621 L12.872717,35.750345 C12.872717,37.057376 13.9360503,38.1269986 15.235761,38.1269986" id="Fill-14" fill="#FFFFFF"></path>
                    <path d="M13.6024226,35.1595023 L13.6024226,35.7502716 C13.6024226,36.65624 14.3352654,37.3930504 15.2359069,37.3930504 L46.9327245,37.3930504 C47.833366,37.3930504 48.5662088,36.65624 48.5662088,35.7502716 L48.5662088,10.7053256 C48.5662088,10.6455148 48.5629258,10.585704 48.555995,10.526627 L37.9394415,26.5757355 C37.6881082,26.9555157 37.285756,27.2006299 36.8345233,27.2483318 C36.3829258,27.2960336 35.9393535,27.1404522 35.6154289,26.8215836 L27.4498314,18.7889567 C27.4450893,18.7841865 27.4221082,18.7706098 27.4060579,18.7720776 C27.3805233,18.7735453 27.3681208,18.7889567 27.364473,18.7937269 L18.2555547,30.1456696 C18.2446113,30.1592462 18.2325736,30.1728229 18.2209006,30.1856657 L13.6024226,35.1595023 Z M46.9327245,38.8608 L15.2359069,38.8608 C13.530561,38.8608 12.1433031,37.465337 12.1433031,35.7502716 L12.1433031,34.8699887 C12.1433031,34.6839515 12.2133409,34.504886 12.3395547,34.3691192 L17.1364101,29.2030074 L26.2285484,17.8719801 C26.4966616,17.5380671 26.8942717,17.3322152 27.3203346,17.3068965 C27.7453031,17.2819448 28.1651648,17.4393609 28.4701208,17.7395157 L36.6357182,25.7721426 C36.6404604,25.7772797 36.6514038,25.7908564 36.6824101,25.7886548 C36.7094038,25.7857193 36.7203472,25.7688401 36.7247245,25.7626022 L48.0350893,8.6655205 C48.1576553,8.47948323 48.3582843,8.36022857 48.5793409,8.34078089 C48.7967497,8.32096627 49.0181711,8.404628 49.1713786,8.5664474 C49.7221962,9.14951094 50.0253283,9.90907138 50.0253283,10.7053256 L50.0253283,35.7502716 C50.0253283,37.465337 48.6380704,38.8608 46.9327245,38.8608 L46.9327245,38.8608 Z" id="Fill-16" fill="#0E1944"></path>
                    <path d="M15.5015031,19.1770297 C14.8514654,19.1770297 14.1941321,19.22253 13.5327862,19.3164659 C9.8218805,19.8430211 6.53667296,21.7914588 4.28306289,24.803281 C2.02908805,27.8151033 1.07628302,31.5292438 1.59974214,35.262098 C2.68022013,42.9674167 9.79123899,48.3529571 17.4516164,47.2653546 C21.162522,46.7391664 24.447,44.7903618 26.7009748,41.7789065 C28.9545849,38.7670842 29.9073899,35.0525768 29.3842956,31.3200894 C28.3972013,24.2800283 22.3761447,19.1770297 15.5015031,19.1770297 M15.4814403,48.8729074 C7.89146541,48.8736413 1.24481132,43.2396843 0.154849057,35.4672161 C-0.422962264,31.346142 0.629062893,27.2456164 3.11722642,23.9204296 C5.60538994,20.5956097 9.23166667,18.4442557 13.3288742,17.8630269 C21.7877547,16.6627746 29.6359937,22.6082614 30.8291887,31.1149714 C31.407,35.2360455 30.3549748,39.336571 27.8664465,42.6613909 C25.378283,45.9865777 21.7520063,48.1375648 17.6551635,48.7187937 C16.925239,48.822637 16.1985975,48.8729074 15.4814403,48.8729074" id="Fill-18" fill="#0E1944"></path>
                    <path d="M15.5146717,18.3692537 C13.4171874,18.3692537 11.4233006,18.8121472 9.61654591,19.6058328 L9.61654591,40.6669393 C9.61654591,41.9739704 10.6795145,43.0435929 11.9792252,43.0435929 L26.5733384,43.0435929 C28.8747346,40.4251276 30.2740302,36.9858232 30.2740302,33.2159083 C30.2740302,25.0163249 23.6660428,18.3692537 15.5146717,18.3692537" id="Fill-20" fill="#E0E0F0"></path>
                    <path d="M10.3461421,20.0947402 L10.3461421,40.6667192 C10.3461421,41.5726876 11.0786201,42.3094979 11.9792616,42.3094979 L26.2396013,42.3094979 C28.3731987,39.7658878 29.5445069,36.5496814 29.5445069,33.216055 C29.5445069,25.4340464 23.250595,19.1032753 15.5147082,19.1032753 C13.7287459,19.1032753 11.9927585,19.4364545 10.3461421,20.0947402 M26.5733748,43.7772476 L11.9792616,43.7772476 C10.2742805,43.7772476 8.88702264,42.3821516 8.88702264,40.6667192 L8.88702264,19.6056126 C8.88702264,19.3138974 9.05883396,19.0500694 9.32475849,18.9330163 C11.2854503,18.0721812 13.3679786,17.6355257 15.5147082,17.6355257 C24.0552994,17.6355257 31.0036264,24.6249495 31.0036264,33.216055 C31.0036264,37.0175266 29.6243937,40.6802958 27.1198151,43.5295648 C26.9819283,43.686981 26.7827585,43.7772476 26.5733748,43.7772476" id="Fill-22" fill="#0E1944"></path>
                    <path d="M26.4046277,23.2071767 L18.743156,33.2161284" id="Fill-24" fill="#E0E0F0"></path>
                    <path d="M18.7428277,33.9498565 C18.5870667,33.9498565 18.4309409,33.9003199 18.298161,33.7975774 C17.9786138,33.5502616 17.9191547,33.0893882 18.1650164,32.768318 L25.8264881,22.7593663 C26.0727145,22.4379291 26.530878,22.3788522 26.8496956,22.6258011 C27.1692428,22.8731169 27.2287019,23.3336233 26.9828403,23.6550605 L19.3213686,33.6636453 C19.1772805,33.8515172 18.9613308,33.9498565 18.7428277,33.9498565" id="Fill-26" fill="#0E1944"></path>
                    <path d="M21.7387283,33.7249972 C21.7387283,35.4892323 20.3168164,36.9199213 18.5625899,36.9199213 C16.8083635,36.9199213 15.3868164,35.4892323 15.3868164,33.7249972 C15.3868164,31.9603952 16.8083635,30.5300732 18.5625899,30.5300732 C20.3168164,30.5300732 21.7387283,31.9603952 21.7387283,33.7249972" id="Fill-28" fill="#FFFFFF"></path>
                    <path d="M18.5625899,31.2641315 C17.2139987,31.2641315 16.1163761,32.3682462 16.1163761,33.7251807 C16.1163761,35.0821152 17.2139987,36.185863 18.5625899,36.185863 C19.9115459,36.185863 21.0091686,35.0821152 21.0091686,33.7251807 C21.0091686,32.3682462 19.9115459,31.2641315 18.5625899,31.2641315 M18.5625899,37.6536126 C16.4092943,37.6536126 14.6572566,35.8912122 14.6572566,33.7251807 C14.6572566,31.5587822 16.4092943,29.7963818 18.5625899,29.7963818 C20.7162503,29.7963818 22.4682881,31.5587822 22.4682881,33.7251807 C22.4682881,35.8912122 20.7162503,37.6536126 18.5625899,37.6536126" id="Fill-30" fill="#0E1944"></path>
                    <path d="M29.6577346,17.7317733 C29.6577346,18.9162473 28.7031057,19.8765225 27.5255962,19.8765225 C26.3480868,19.8765225 25.3934579,18.9162473 25.3934579,17.7317733 C25.3934579,16.5472994 26.3480868,15.5870242 27.5255962,15.5870242 C28.7031057,15.5870242 29.6577346,16.5472994 29.6577346,17.7317733" id="Fill-32" fill="#FFFFFF"></path>
                    <path d="M27.5257057,16.3208256 C26.7523723,16.3208256 26.1227623,16.9537926 26.1227623,17.7317 C26.1227623,18.5096073 26.7523723,19.1425743 27.5257057,19.1425743 C28.299039,19.1425743 28.9282843,18.5096073 28.9282843,17.7317 C28.9282843,16.9537926 28.299039,16.3208256 27.5257057,16.3208256 M27.5257057,20.6103239 C25.9476679,20.6103239 24.6636428,19.3190712 24.6636428,17.7317 C24.6636428,16.1443287 25.9476679,14.853076 27.5257057,14.853076 C29.1033786,14.853076 30.3874038,16.1443287 30.3874038,17.7317 C30.3874038,19.3190712 29.1033786,20.6103239 27.5257057,20.6103239" id="Fill-34" fill="#0E1944"></path>
                    <path d="M38.7266365,26.3694066 C38.7266365,27.5538806 37.7720075,28.5141558 36.5941333,28.5141558 C35.4169887,28.5141558 34.4623597,27.5538806 34.4623597,26.3694066 C34.4623597,25.1849326 35.4169887,24.2246574 36.5941333,24.2246574 C37.7720075,24.2246574 38.7266365,25.1849326 38.7266365,26.3694066" id="Fill-36" fill="#FFFFFF"></path>
                    <path d="M36.5942428,24.9585323 C35.8209094,24.9585323 35.1916642,25.5914993 35.1916642,26.3694066 C35.1916642,27.1473139 35.8209094,27.7802809 36.5942428,27.7802809 C37.3675761,27.7802809 37.9971862,27.1473139 37.9971862,26.3694066 C37.9971862,25.5914993 37.3675761,24.9585323 36.5942428,24.9585323 M36.5942428,29.2480306 C35.0165698,29.2480306 33.7325447,27.9567778 33.7325447,26.3694066 C33.7325447,24.7820354 35.0165698,23.4907826 36.5942428,23.4907826 C38.1722805,23.4907826 39.4563057,24.7820354 39.4563057,26.3694066 C39.4563057,27.9567778 38.1722805,29.2480306 36.5942428,29.2480306" id="Fill-38" fill="#0E1944"></path>
                    <path d="M56.9635145,10.3984925 C56.9635145,15.5334146 52.8250868,19.6963195 47.7203572,19.6963195 C42.6156277,19.6963195 38.4772,15.5334146 38.4772,10.3984925 C38.4772,5.26357038 42.6156277,1.10066546 47.7203572,1.10066546 C52.8250868,1.10066546 56.9635145,5.26357038 56.9635145,10.3984925" id="Fill-40" fill="#FFFFFF"></path>
                    <g id="Group-44" transform="translate(37.572327, 0.263461)">
                        <mask id="mask-4" fill="white">
                            <use xlink:href="#path-3"></use>
                        </mask>
                        <g id="Clip-43"></g>
                        <path d="M10.1480667,1.57111591 C5.45371447,1.57111591 1.63446918,5.4129506 1.63446918,10.1350681 C1.63446918,14.8571857 5.45371447,18.6990204 10.1480667,18.6990204 C14.8424189,18.6990204 18.6616642,14.8571857 18.6616642,10.1350681 C18.6616642,5.4129506 14.8424189,1.57111591 10.1480667,1.57111591 M10.1480667,20.16677 C4.64937484,20.16677 0.175349686,15.6666496 0.175349686,10.1350681 C0.175349686,4.60348667 4.64937484,0.103366269 10.1480667,0.103366269 C15.6467585,0.103366269 20.1207836,4.60348667 20.1207836,10.1350681 C20.1207836,15.6666496 15.6467585,20.16677 10.1480667,20.16677" id="Fill-42" fill="#0E1944" mask="url(#mask-4)"></path>
                    </g>
                    <path d="M39.2770164,23.9618202 C39.1376704,23.9618202 38.9968654,23.921824 38.8724755,23.8381623 C38.5376075,23.6128627 38.4475069,23.1571264 38.671117,22.8202779 L47.1449535,10.0629649 C47.3692931,9.72611639 47.8216201,9.63511591 48.1572176,9.86041548 C48.4920855,10.0857151 48.5821862,10.5414513 48.3582113,10.8782999 L39.8843748,23.6356128 C39.7435698,23.8473357 39.5126642,23.9618202 39.2770164,23.9618202" id="Fill-45" fill="#0E1944"></path>
                    <path d="M52.3065157,10.3984925 C52.3065157,12.9465059 50.2531698,15.0119966 47.7205031,15.0119966 C45.1874717,15.0119966 43.1341258,12.9465059 43.1341258,10.3984925 C43.1341258,7.85084606 45.1874717,5.78535538 47.7205031,5.78535538 C50.2531698,5.78535538 52.3065157,7.85084606 52.3065157,10.3984925" id="Fill-47" fill="#FFEBDE"></path>
                    <path d="M47.7203937,6.51912011 C45.5940918,6.51912011 43.8639409,8.25950425 43.8639409,10.3983824 C43.8639409,12.5376275 45.5940918,14.2780117 47.7203937,14.2780117 C49.8466956,14.2780117 51.5768465,12.5376275 51.5768465,10.3983824 C51.5768465,8.25950425 49.8466956,6.51912011 47.7203937,6.51912011 M47.7203937,15.7457613 C44.7893874,15.7457613 42.4048214,13.3470914 42.4048214,10.3983824 C42.4048214,7.45004032 44.7893874,5.05137047 47.7203937,5.05137047 C50.6514,5.05137047 53.035966,7.45004032 53.035966,10.3983824 C53.035966,13.3470914 50.6514,15.7457613 47.7203937,15.7457613" id="Fill-49" fill="#0E1944"></path>
                </g>
            </g>
        </g>
    </g>
</svg>