<?xml version="1.0" encoding="UTF-8"?>
<svg width="67px" height="48px" viewBox="0 0 67 48" version="1.1" xmlns="http://www.w3.org/2000/svg" xmlns:xlink="http://www.w3.org/1999/xlink">
    <!-- Generator: Sketch 46.2 (44496) - http://www.bohemiancoding.com/sketch -->
    <title>buy-online-icon</title>
    <desc>Created with Sketch.</desc>
    <defs>
        <polygon id="path-1" points="53.6129367 0.0906268657 0.0549898936 0.0906268657 0.0549898936 38.6739582 53.6129367 38.6739582 53.6129367 0.0906268657"></polygon>
        <polygon id="path-3" points="0 47.9093731 66.6511011 47.9093731 66.6511011 0.358208955 0 0.358208955"></polygon>
    </defs>
    <g id="Page-1" stroke="none" stroke-width="1" fill="none" fill-rule="evenodd">
        <g id="Hompage-2" transform="translate(-1077.000000, -512.000000)">
            <g id="Easy" transform="translate(945.000000, 493.000000)">
                <g id="buy-online-icon" transform="translate(132.000000, 19.000000)">
                    <path d="M62.4366229,42.9843582 L3.61489947,42.9843582 C2.01224521,42.9843582 0.712872872,41.6783284 0.712872872,40.0671045 L0.712872872,38.225194 L65.3386495,38.225194 L65.3386495,40.0671045 C65.3386495,41.6783284 64.0392771,42.9843582 62.4366229,42.9843582 Z" id="Fill-1" fill="#E0E0F0"></path>
                    <path d="M1.42553191,38.9415403 L1.42553191,40.067391 C1.42553191,41.2806448 2.4077234,42.2678687 3.61514894,42.2678687 L62.436516,42.2678687 C63.6435851,42.2678687 64.6257766,41.2806448 64.6257766,40.067391 L64.6257766,38.9415403 L1.42553191,38.9415403 Z M62.436516,43.7007045 L3.61514894,43.7007045 C1.62189894,43.7007045 0,42.0704955 0,40.067391 L0,38.2251224 C0,37.8296597 0.319319149,37.5087045 0.712765957,37.5087045 L65.3385426,37.5087045 C65.7319894,37.5087045 66.0513085,37.8296597 66.0513085,38.2251224 L66.0513085,40.067391 C66.0513085,42.0704955 64.429766,43.7007045 62.436516,43.7007045 L62.436516,43.7007045 Z" id="Fill-3" fill="#0E1944"></path>
                    <path d="M57.6439133,1.07459104 L9.56678032,1.07459104 C8.447025,1.07459104 7.53896117,1.98730746 7.53896117,3.1128 L7.53896117,38.2251582 L59.6713761,38.2251582 L59.6713761,3.1128 C59.6713761,1.98730746 58.764025,1.07459104 57.6439133,1.07459104" id="Fill-5" fill="#FFFFFF"></path>
                    <g id="Group-9" transform="translate(6.771277, 0.267582)">
                        <mask id="mask-2" fill="white">
                            <use xlink:href="#path-1"></use>
                        </mask>
                        <g id="Clip-8"></g>
                        <path d="M1.48052181,37.2411224 L52.1874048,37.2411224 L52.1874048,2.8455403 C52.1874048,2.11622687 51.597591,1.52339104 50.872708,1.52339104 L2.79521862,1.52339104 C2.07033564,1.52339104 1.48052181,2.11622687 1.48052181,2.8455403 L1.48052181,37.2411224 Z M52.9001707,38.6739582 L0.767755851,38.6739582 C0.374309043,38.6739582 0.0549898936,38.353003 0.0549898936,37.9575403 L0.0549898936,2.8455403 C0.0549898936,1.32637612 1.28415479,0.0905552239 2.79521862,0.0905552239 L50.872708,0.0905552239 C52.3837718,0.0905552239 53.6129367,1.32637612 53.6129367,2.8455403 L53.6129367,37.9575403 C53.6129367,38.353003 53.2939739,38.6739582 52.9001707,38.6739582 L52.9001707,38.6739582 Z" id="Fill-7" fill="#0E1944" mask="url(#mask-2)"></path>
                    </g>
                    <mask id="mask-4" fill="white">
                        <use xlink:href="#path-3"></use>
                    </mask>
                    <g id="Clip-11"></g>
                    <polygon id="Fill-10" fill="#FFFFFF" mask="url(#mask-4)" points="33.4034202 33.0376119 51.7721117 33.0376119 51.7721117 18.3546269 33.4034202 18.3546269"></polygon>
                    <path d="M34.1161862,32.321194 L51.0593457,32.321194 L51.0593457,19.0710448 L34.1161862,19.0710448 L34.1161862,32.321194 Z M51.7721117,33.7540299 L33.4034202,33.7540299 C33.009617,33.7540299 32.6906543,33.4334328 32.6906543,33.0376119 L32.6906543,18.3546269 C32.6906543,17.9591642 33.009617,17.638209 33.4034202,17.638209 L51.7721117,17.638209 C52.1655585,17.638209 52.4848777,17.9591642 52.4848777,18.3546269 L52.4848777,33.0376119 C52.4848777,33.4334328 52.1655585,33.7540299 51.7721117,33.7540299 L51.7721117,33.7540299 Z" id="Fill-12" fill="#0E1944" mask="url(#mask-4)"></path>
                    <path d="M50.1942973,7.80884776 L23.5967229,7.80884776 C23.4103346,7.80884776 23.2481803,7.96753433 23.2057707,8.19177313 L13.7908452,16.5222806 L52.1629569,16.5222806 L50.5859622,8.19177313 C50.5431963,7.96753433 50.381042,7.80884776 50.1942973,7.80884776" id="Fill-13" fill="#E0E0F0" mask="url(#mask-4)"></path>
                    <path d="M50.1942973,8.52526567 L50.1978612,8.52526567 L50.1942973,8.52526567 Z M15.6789622,15.8058627 L51.3015793,15.8058627 L49.9234463,8.52526567 L23.8365686,8.52526567 C23.7962973,8.6022806 23.7421271,8.67141493 23.6765527,8.72944478 L15.6789622,15.8058627 Z M52.1629569,17.2386985 L13.7908452,17.2386985 C13.4943346,17.2386985 13.2284729,17.0542209 13.1236963,16.7751761 C13.0189197,16.4964896 13.0969676,16.1816239 13.3197069,15.984609 L22.5913665,7.78090746 C22.7734782,7.36932537 23.1619356,7.09242985 23.5967229,7.09242985 L50.1942973,7.09242985 C50.7285154,7.09242985 51.177558,7.48896716 51.2858984,8.05672836 L52.8632495,16.3883104 C52.9031644,16.5982209 52.8475686,16.8149373 52.7121431,16.9793552 C52.5770739,17.1437731 52.3753612,17.2386985 52.1629569,17.2386985 L52.1629569,17.2386985 Z" id="Fill-14" fill="#0E1944" mask="url(#mask-4)"></path>
                    <path d="M33.403242,33.0377552 L13.7907739,33.0377552 L13.7907739,18.3866507 L23.3593005,11.8554269 C23.5107633,11.7519045 23.709625,11.7522627 23.8610878,11.8557851 L33.403242,18.3866507 L33.403242,33.0377552 Z" id="Fill-15" fill="#FFFFFF" mask="url(#mask-4)"></path>
                    <path d="M14.5034686,32.3213373 L32.6904048,32.3213373 L32.6904048,18.7652776 L23.6097665,12.5507104 L14.5034686,18.765994 L14.5034686,32.3213373 Z M33.4031707,33.7541731 L13.7907027,33.7541731 C13.3972559,33.7541731 13.0779367,33.4332179 13.0779367,33.0377552 L13.0779367,18.3866507 C13.0779367,18.1491582 13.1948303,17.9270687 13.3901282,17.7938149 L22.9590112,11.2629493 C23.3545963,10.9925015 23.8660059,10.9925015 24.2619473,11.2636657 L33.804458,17.7941731 C33.9993995,17.9277851 34.1159367,18.1495164 34.1159367,18.3866507 L34.1159367,33.0377552 C34.1159367,33.4332179 33.7969739,33.7541731 33.4031707,33.7541731 L33.4031707,33.7541731 Z" id="Fill-16" fill="#0E1944" mask="url(#mask-4)"></path>
                    <path d="M27.4759516,33.0377552 L19.7178505,33.0377552 L19.7178505,20.4828896 C19.7178505,19.9337552 20.1608346,19.4885015 20.7071697,19.4885015 L26.4869888,19.4885015 C27.0333239,19.4885015 27.4759516,19.9337552 27.4759516,20.4828896 L27.4759516,33.0377552 Z" id="Fill-17" fill="#FFEBDE" mask="url(#mask-4)"></path>
                    <path d="M20.430759,32.3213373 L26.7633282,32.3213373 L26.7633282,20.4828896 C26.7633282,20.3295761 26.6393069,20.2049194 26.486775,20.2049194 L20.7069559,20.2049194 C20.5547803,20.2049194 20.430759,20.3295761 20.430759,20.4828896 L20.430759,32.3213373 Z M27.4760941,33.7541731 L19.7179931,33.7541731 C19.3245463,33.7541731 19.0052271,33.4332179 19.0052271,33.0377552 L19.0052271,20.4828896 C19.0052271,19.5393672 19.7689559,18.7720836 20.7069559,18.7720836 L26.486775,18.7720836 C27.4251314,18.7720836 28.1888601,19.5393672 28.1888601,20.4828896 L28.1888601,33.0377552 C28.1888601,33.4332179 27.869541,33.7541731 27.4760941,33.7541731 L27.4760941,33.7541731 Z" id="Fill-18" fill="#0E1944" mask="url(#mask-4)"></path>
                    <path d="M33.9082367,14.764191 L23.8040665,7.87081791 C23.6843218,7.78842985 23.5260878,7.78807164 23.4052739,7.86974328 L12.0277473,15.5454448 C11.862742,15.6568478 11.8199761,15.8832358 11.9340186,16.0476537 L13.4514973,18.2384597 C13.5626888,18.3992955 13.7822207,18.4404896 13.9436622,18.3301612 L23.3952952,11.8820418 C23.516109,11.7996537 23.6746995,11.7996537 23.7955133,11.8820418 L33.3009601,18.3674149 C33.3326782,18.3889075 33.3672473,18.4028776 33.403242,18.4104 L33.403242,18.4179224 L52.4212633,18.4179224 C52.6183431,18.4179224 52.7776463,18.257803 52.7776463,18.0597134 L52.7776463,15.1843701 C52.7776463,14.9862806 52.6183431,14.8261612 52.4212633,14.8261612 L34.1085239,14.8261612 C34.0372473,14.8261612 33.9673963,14.8043104 33.9082367,14.764191" id="Fill-19" fill="#FFFFFF" mask="url(#mask-4)"></path>
                    <path d="M23.403991,8.46372537 L23.4047037,8.46408358 L23.403991,8.46372537 Z M52.4214059,15.5426507 L52.4249697,15.5426507 L52.4214059,15.5426507 Z M33.5944059,17.7015761 L52.0650229,17.7015761 L52.0650229,15.5426507 L34.1086665,15.5426507 C33.8944803,15.5426507 33.6870654,15.4785313 33.5088739,15.3574567 L33.5081612,15.3570985 L23.603209,8.59948657 L12.7260441,15.9370388 L13.8347516,17.538591 L22.9952197,11.2892776 C23.3590867,11.0399642 23.8309378,11.0399642 24.1965867,11.289994 L33.5944059,17.7015761 Z M52.4214059,19.1344119 L33.4033846,19.1344119 C33.2882729,19.1344119 33.1802888,19.1071881 33.0840654,19.0588299 C33.0192037,19.0323224 32.9579059,18.999009 32.8998154,18.959606 L23.5953686,12.6114269 L14.3440229,18.9230687 C13.8625495,19.2519045 13.1989644,19.1286806 12.866459,18.6479642 L11.3489803,16.4568 C11.183975,16.2182328 11.1223207,15.9298746 11.1754218,15.6443821 C11.2292356,15.3588896 11.3906771,15.1128 11.6305229,14.9505313 L23.0084059,7.27518806 C23.3729856,7.0287403 23.8426984,7.03017313 24.2054963,7.27841194 L34.2180761,14.1098149 L52.4214059,14.1098149 C53.0108633,14.1098149 53.4905548,14.591606 53.4905548,15.1844418 L53.4905548,18.0597851 C53.4905548,18.6522627 53.0108633,19.1344119 52.4214059,19.1344119 L52.4214059,19.1344119 Z" id="Fill-20" fill="#0E1944" mask="url(#mask-4)"></path>
                    <path d="M61.382442,47.1929552 L47.4318303,47.1929552 C44.926458,47.1929552 42.8765431,45.1325373 42.8765431,42.6139701 L42.8765431,11.2076418 C42.8765431,8.68907463 44.926458,6.62865672 47.4318303,6.62865672 L61.382442,6.62865672 C63.8878144,6.62865672 65.9380856,8.68907463 65.9380856,11.2076418 L65.9380856,42.6139701 C65.9380856,45.1325373 63.8878144,47.1929552 61.382442,47.1929552" id="Fill-21" fill="#FFFFFF" mask="url(#mask-4)"></path>
                    <path d="M47.4320085,7.34500299 C45.3133117,7.34500299 43.5894872,9.0776597 43.5894872,11.2075701 L43.5894872,42.6138985 C43.5894872,44.743809 45.3133117,46.4764657 47.4320085,46.4764657 L61.3826202,46.4764657 C63.5016734,46.4764657 65.2254979,44.743809 65.2254979,42.6138985 L65.2254979,11.2075701 C65.2254979,9.0776597 63.5016734,7.34500299 61.3826202,7.34500299 L47.4320085,7.34500299 Z M61.3826202,47.9093015 L47.4320085,47.9093015 C44.5271309,47.9093015 42.1639553,45.5336597 42.1639553,42.6138985 L42.1639553,11.2075701 C42.1639553,8.28780896 44.5271309,5.91216716 47.4320085,5.91216716 L61.3826202,5.91216716 C64.2874979,5.91216716 66.6510298,8.28780896 66.6510298,11.2075701 L66.6510298,42.6138985 C66.6510298,45.5336597 64.2874979,47.9093015 61.3826202,47.9093015 L61.3826202,47.9093015 Z" id="Fill-22" fill="#0E1944" mask="url(#mask-4)"></path>
                    <polygon id="Fill-23" fill="#FFFFFF" mask="url(#mask-4)" points="42.8764362 39.6766567 55.8719415 39.6766567 55.8719415 20.9043582 42.8764362 20.9043582"></polygon>
                    <path d="M43.5895585,38.9602388 L55.1595319,38.9602388 L55.1595319,21.6207761 L43.5895585,21.6207761 L43.5895585,38.9602388 Z M55.8719415,40.3930746 L42.8767926,40.3930746 C42.4829894,40.3930746 42.1640266,40.0721194 42.1640266,39.6766567 L42.1640266,20.904 C42.1640266,20.5085373 42.4829894,20.1875821 42.8767926,20.1875821 L55.8719415,20.1875821 C56.2657447,20.1875821 56.5847074,20.5085373 56.5847074,20.904 L56.5847074,39.6766567 C56.5847074,40.0721194 56.2657447,40.3930746 55.8719415,40.3930746 L55.8719415,40.3930746 Z" id="Fill-24" fill="#0E1944" mask="url(#mask-4)"></path>
                    <path d="M53.8552415,11.1943522 L42.8765074,11.1943522 L42.8765074,18.5612776 L56.3720181,18.5612776 L54.3556032,11.5181731 C54.301433,11.3283224 54.0940181,11.1943522 53.8552415,11.1943522" id="Fill-25" fill="#E0E0F0" mask="url(#mask-4)"></path>
                    <path d="M53.8552415,11.9107701 L53.8588053,11.9107701 L53.8552415,11.9107701 Z M43.5892734,17.8448597 L55.4254649,17.8448597 L53.7265872,11.9107701 L43.5892734,11.9107701 L43.5892734,17.8448597 Z M56.3720181,19.2776955 L42.8765074,19.2776955 C42.4830606,19.2776955 42.1637415,18.9570985 42.1637415,18.5612776 L42.1637415,11.1943522 C42.1637415,10.7988896 42.4830606,10.4779343 42.8765074,10.4779343 L53.8552415,10.4779343 C54.4115553,10.4779343 54.8990872,10.8243224 55.0405713,11.3208 L57.0569862,18.3635463 C57.1189968,18.5795463 57.0762309,18.8127403 56.9415181,18.9925612 C56.8068053,19.1720239 56.5958266,19.2776955 56.3720181,19.2776955 L56.3720181,19.2776955 Z" id="Fill-26" fill="#0E1944" mask="url(#mask-4)"></path>
                    <path d="M55.9274303,43.3509493 C55.9274303,44.1945313 55.2470952,44.8790687 54.4071005,44.8790687 C53.5678186,44.8790687 52.8871271,44.1945313 52.8871271,43.3509493 C52.8871271,42.507009 53.5678186,41.8228299 54.4071005,41.8228299 C55.2470952,41.8228299 55.9274303,42.507009 55.9274303,43.3509493" id="Fill-27" fill="#0E1944" mask="url(#mask-4)"></path>
                    <path d="M56.7334617,17.308406 L43.0790043,17.308406 L43.0790043,21.7989134 L56.7334617,21.7989134 C57.079866,21.7989134 57.3606957,21.4543164 57.3606957,21.0291224 L57.3606957,18.0785552 C57.3606957,17.6533612 57.079866,17.308406 56.7334617,17.308406" id="Fill-28" fill="#FFFFFF" mask="url(#mask-4)"></path>
                    <path d="M56.7334617,18.0248239 L56.7370255,18.0248239 L56.7334617,18.0248239 Z M43.7917702,21.0824955 L56.6411585,21.0824955 C56.6450787,21.0681672 56.6479298,21.0502567 56.6479298,21.0291224 L56.6479298,18.0785552 C56.6479298,18.0570627 56.6450787,18.0391522 56.6411585,18.0248239 L43.7917702,18.0248239 L43.7917702,21.0824955 Z M56.7334617,22.5153313 L43.0790043,22.5153313 C42.6852011,22.5153313 42.3662383,22.1947343 42.3662383,21.7989134 L42.3662383,17.308406 C42.3662383,16.9129433 42.6852011,16.5919881 43.0790043,16.5919881 L56.7334617,16.5919881 C57.4722436,16.5919881 58.0734617,17.2589731 58.0734617,18.0785552 L58.0734617,21.0291224 C58.0734617,21.8487045 57.4722436,22.5153313 56.7334617,22.5153313 L56.7334617,22.5153313 Z" id="Fill-29" fill="#0E1944" mask="url(#mask-4)"></path>
                    <path d="M65.9381569,40.3929313 L42.8766144,40.3929313 C42.4831676,40.3929313 42.1638484,40.0719761 42.1638484,39.6765134 C42.1638484,39.2810507 42.4831676,38.9600955 42.8766144,38.9600955 L65.9381569,38.9600955 C66.3316037,38.9600955 66.6509229,39.2810507 66.6509229,39.6765134 C66.6509229,40.0719761 66.3316037,40.3929313 65.9381569,40.3929313" id="Fill-30" fill="#0E1944" mask="url(#mask-4)"></path>
                </g>
            </g>
        </g>
    </g>
</svg>