<?xml version="1.0" encoding="UTF-8"?>
<svg width="39px" height="50px" viewBox="0 0 39 50" version="1.1" xmlns="http://www.w3.org/2000/svg" xmlns:xlink="http://www.w3.org/1999/xlink">
    <!-- Generator: Sketch 46.2 (44496) - http://www.bohemiancoding.com/sketch -->
    <title>diligence-icon</title>
    <desc>Created with Sketch.</desc>
    <defs></defs>
    <g id="Page-1" stroke="none" stroke-width="1" fill="none" fill-rule="evenodd">
        <g id="Hompage-2" transform="translate(-759.000000, -2803.000000)">
            <g id="Roofstock-Handles" transform="translate(736.000000, 2788.000000)">
                <g id="100%-Online">
                    <g id="diligence-icon" transform="translate(23.000000, 15.000000)">
                        <path d="M26.4128599,43.1258602 L2.19715563,43.1258602 C1.28697254,43.1258602 0.54926831,42.4038172 0.54926831,41.512957 L0.54926831,6.91860215 L26.4128599,6.91860215 C27.3227683,6.91860215 28.0607472,7.64037634 28.0607472,8.53150538 L28.0607472,41.512957 C28.0607472,42.4038172 27.3227683,43.1258602 26.4128599,43.1258602" id="Fill-1" fill="#FFEBDE"></path>
                        <path d="M1.09859155,7.45612903 L1.09859155,41.5128495 C1.09859155,42.1058602 1.59130986,42.5881183 2.1971831,42.5881183 L26.4128873,42.5881183 C27.0187606,42.5881183 27.5114789,42.1058602 27.5114789,41.5128495 L27.5114789,8.53139785 C27.5114789,7.9383871 27.0187606,7.45612903 26.4128873,7.45612903 L1.09859155,7.45612903 Z M26.4128873,43.6633871 L2.1971831,43.6633871 C0.985711268,43.6633871 0,42.698871 0,41.5128495 L0,6.91849462 C0,6.62172043 0.246084507,6.38086022 0.549295775,6.38086022 L26.4128873,6.38086022 C27.6243592,6.38086022 28.6100704,7.34564516 28.6100704,8.53139785 L28.6100704,41.5128495 C28.6100704,42.698871 27.6243592,43.6633871 26.4128873,43.6633871 L26.4128873,43.6633871 Z" id="Fill-3" fill="#0E1944"></path>
                        <path d="M30.8091211,39.627043 L8.59971972,35.7289247 C7.70381831,35.5716667 7.10783239,34.7334946 7.26850141,33.8566129 L12.8243535,3.53268817 C12.9850225,2.65580645 13.8413746,2.07247312 14.7370014,2.22973118 L36.9469521,6.12811828 C37.8423042,6.28537634 38.4382901,7.12354839 38.2778958,8.00043011 L32.7220437,38.324086 C32.5613746,39.2009677 31.7050225,39.7843011 30.8091211,39.627043" id="Fill-5" fill="#FFFFFF"></path>
                        <path d="M14.4439521,2.74158602 C14.2214873,2.74158602 14.0047901,2.80771505 13.8188535,2.93459677 C13.5779873,3.09857527 13.416769,3.34481183 13.3648606,3.62760753 L7.8092831,33.9515323 C7.75737465,34.2340591 7.82109296,34.5198118 7.98862817,34.7555645 C8.15616338,34.9913172 8.40774085,35.1491129 8.69667042,35.1996505 L30.9057972,39.0977688 L30.9060718,39.0977688 C31.1941775,39.1485753 31.4869521,39.0859409 31.7275437,38.9222312 C31.9684099,38.7579839 32.1296282,38.5117473 32.181262,38.2292204 L37.7373887,7.90556452 C37.8439521,7.32196237 37.4459873,6.76201613 36.8497268,6.65717742 L14.6400507,2.75879032 C14.5746845,2.74723118 14.5090437,2.74158602 14.4439521,2.74158602 M31.1007972,40.1902419 C30.9728113,40.1902419 30.8429028,40.1792204 30.7118958,40.156371 L8.50276901,36.2582527 C7.30997324,36.0485753 6.51404366,34.9289516 6.72771972,33.7617473 L12.2835718,3.43782258 C12.4972479,2.27061828 13.6389592,1.49185484 14.8342268,1.70045699 L37.0439028,5.59884409 C38.2358746,5.80825269 39.0320789,6.92787634 38.8186775,8.09508065 L33.2628254,38.4192742 C33.0722197,39.4585215 32.1439099,40.1902419 31.1007972,40.1902419" id="Fill-7" fill="#0E1944"></path>
                        <path d="M28.7731289,16.4953763 C28.7409951,16.4953763 28.7085866,16.4924194 28.6759035,16.487043 C28.532812,16.4617742 28.4053754,16.3819355 28.322157,16.265 L27.4559176,15.0461828 C27.2826148,14.8023656 27.3441359,14.4674194 27.5929669,14.2977957 C27.8428965,14.128172 28.1845585,14.1886559 28.3575866,14.4319355 L28.9101782,15.2093548 L32.3531641,12.8641935 C32.6025444,12.6948387 32.944481,12.7545161 33.1177838,12.9983333 C33.2910866,13.2421505 33.2298401,13.5773656 32.9807345,13.7467204 L29.0870514,16.3991398 C28.9942204,16.4623118 28.8843613,16.4953763 28.7731289,16.4953763" id="Fill-9" fill="#0E1944"></path>
                        <path d="M27.4151599,23.9091129 C27.2413077,23.9091129 27.0704768,23.8287366 26.9636387,23.6787366 L26.0973993,22.4601882 C25.9240965,22.2166398 25.9856176,21.8814247 26.2344486,21.7118011 C26.4838289,21.5424462 26.8257655,21.6021237 26.9990683,21.8459409 L27.5516599,22.6230914 L30.9949204,20.2779301 C31.24485,20.1083065 31.586512,20.1687903 31.7595401,20.4120699 C31.932843,20.6558871 31.8715965,20.9911022 31.6224908,21.160457 L27.7285331,23.8128763 C27.632681,23.8779301 27.5233711,23.9091129 27.4151599,23.9091129" id="Fill-11" fill="#0E1944"></path>
                        <path d="M26.0564218,31.3230914 C26.024288,31.3230914 25.9918796,31.3201344 25.9591965,31.3147581 C25.8161049,31.2894892 25.6886683,31.2096505 25.60545,31.0927151 L24.7392106,29.8738978 C24.5659077,29.6300806 24.6274289,29.2951344 24.8762599,29.1255108 C25.1261894,28.9556183 25.4678514,29.016371 25.6408796,29.2596505 L26.1934711,30.0370699 L29.636457,27.6919086 C29.8858373,27.5222849 30.2277739,27.5822312 30.4010768,27.8260484 C30.5743796,28.0698656 30.5131331,28.4050806 30.2640275,28.5744355 L26.3703444,31.2268548 C26.2775134,31.2900269 26.1676542,31.3230914 26.0564218,31.3230914" id="Fill-13" fill="#0E1944"></path>
                        <path d="M18.1321162,1.07723118 C18.1285458,1.0775 18.1255246,1.07776882 18.1222289,1.07803763 C17.8451092,1.09712366 17.5913345,1.22212366 17.4075951,1.42991935 C17.223581,1.63744624 17.1332218,1.9008871 17.1532711,2.17212366 L17.4213275,5.85841398 C17.46225,6.41862903 17.9524965,6.84013441 18.5314542,6.80760753 C18.53475,6.80733871 18.5383204,6.80706989 18.5413415,6.80680108 C18.8184613,6.78771505 19.0722359,6.66271505 19.2559754,6.45518817 C19.4399894,6.24739247 19.5303486,5.98395161 19.5105739,5.71271505 L19.242243,2.02642473 C19.2015951,1.46620968 18.7110739,1.04739247 18.1321162,1.07723118 L18.1321162,1.07723118 Z M18.578419,7.34362903 L18.5811655,7.34362903 L18.578419,7.34362903 Z M18.4638908,7.88502688 C17.3496444,7.88502688 16.4059542,7.03905914 16.3254824,5.93475806 L16.0571514,2.24846774 C16.0167782,1.69094086 16.2013415,1.15008065 16.5776092,0.725349462 C16.9514049,0.303306452 17.4682923,0.0481989247 18.0340669,0.00626344086 C18.0381866,0.00599462366 18.0423063,0.00545698925 18.0464261,0.00518817204 C19.2290599,-0.0746505376 20.2540458,0.795510753 20.338088,1.95008065 L20.606419,5.63637097 C20.6467923,6.19389785 20.4622289,6.73475806 20.0859613,7.15948925 C19.7124401,7.58126344 19.1961021,7.83663978 18.6306021,7.87884409 C18.6264824,7.8791129 18.6218134,7.87965054 18.617419,7.87991935 C18.5657852,7.88314516 18.5147007,7.88502688 18.4638908,7.88502688 L18.4638908,7.88502688 Z" id="Fill-15" fill="#0E1944"></path>
                        <path d="M21.8733972,36.6275269 L20.6267704,36.2089785 L20.6267704,14.4708065 C20.6267704,13.9853226 20.3114746,13.5533333 19.8421014,13.3958065 L0.549185915,6.9183871 L0.549185915,42.314086 C0.549185915,42.7998387 0.86448169,43.2315591 1.33358028,43.3893548 L19.0887423,49.3503763 C19.8423761,49.6036022 20.6267704,49.0552151 20.6267704,48.2753763 L20.6267704,45.9363978 L21.1197634,46.1019892 C21.8736718,46.3549462 22.6575169,45.8065591 22.6575169,45.0269892 L22.6575169,37.7025269 C22.6575169,37.2167742 22.3424958,36.7850538 21.8733972,36.6275269" id="Fill-17" fill="#E0E0F0"></path>
                        <path d="M1.09859155,7.67139785 L1.09859155,42.3141398 C1.09859155,42.5700538 1.26447887,42.7977419 1.51221127,42.8808065 L19.2668239,48.841828 C19.4574296,48.9058065 19.6584718,48.8767742 19.821338,48.7625269 C19.9842042,48.649086 20.0775845,48.471129 20.0775845,48.2754301 L20.0775845,45.9364516 C20.0775845,45.7625269 20.1632746,45.5998925 20.3074648,45.4988172 C20.4522042,45.3980108 20.6375915,45.3719355 20.8051268,45.4278495 L21.2981197,45.5934409 C21.4876268,45.6571505 21.689493,45.6278495 21.8520845,45.5141398 C22.0149507,45.4004301 22.108331,45.2227419 22.108331,45.027043 L22.108331,37.7025806 C22.108331,37.4466667 21.9424437,37.2189785 21.6952606,37.135914 L20.4486338,36.7176344 C20.2267183,36.6429032 20.0775845,36.438871 20.0775845,36.2090323 L20.0775845,14.4708602 C20.0775845,14.2149462 19.9114225,13.9872581 19.6642394,13.9044624 L1.09859155,7.67139785 Z M19.4645704,49.949086 C19.2780845,49.949086 19.0910493,49.9195161 18.9106056,49.8587634 L1.15544366,43.8980108 C0.46415493,43.6654839 0,43.0289247 0,42.3141398 L0,6.91844086 C0,6.74505376 0.0856901408,6.58188172 0.23015493,6.48080645 C0.37434507,6.38026882 0.56028169,6.3533871 0.727267606,6.41010753 L20.0207324,12.8872581 C20.7114718,13.1192473 21.1761761,13.7558065 21.1761761,14.4708602 L21.1761761,35.8248925 L22.0514789,36.1189785 L22.0517535,36.1189785 C22.7427676,36.3509677 23.2069225,36.9875269 23.2069225,37.7025806 L23.2069225,45.027043 C23.2069225,45.5662903 22.9391408,46.0754301 22.4909155,46.388871 C22.1086056,46.6560753 21.6320915,46.7560753 21.1761761,46.6713978 L21.1761761,48.2754301 C21.1761761,48.8149462 20.9083944,49.324086 20.4596197,49.6377957 C20.1662958,49.8429032 19.8169437,49.949086 19.4645704,49.949086 L19.4645704,49.949086 Z" id="Fill-19" fill="#0E1944"></path>
                    </g>
                </g>
            </g>
        </g>
    </g>
</svg>