<?xml version="1.0" encoding="UTF-8"?>
<svg width="66px" height="50px" viewBox="0 0 66 50" version="1.1" xmlns="http://www.w3.org/2000/svg" xmlns:xlink="http://www.w3.org/1999/xlink">
    <!-- Generator: Sketch 51.2 (57519) - http://www.bohemiancoding.com/sketch -->
    <title>Group 59</title>
    <desc>Created with Sketch.</desc>
    <defs></defs>
    <g id="Page-1" stroke="none" stroke-width="1" fill="none" fill-rule="evenodd">
        <g id="Group-59">
            <path d="M54.7179487,48.8632994 L3.27853723,48.8632994 C2.00420914,48.8632994 0.961577078,47.8208604 0.961577078,46.5463392 L0.961577078,7.0825224 C0.961577078,5.8083874 2.00420914,4.76556225 3.27853723,4.76556225 L54.7179487,4.76556225 C55.9924699,4.76556225 57.0349089,5.8083874 57.0349089,7.0825224 L57.0349089,46.5463392 C57.0349089,47.8208604 55.9924699,48.8632994 54.7179487,48.8632994" id="Fill-1" fill="#FFFFFF"></path>
            <path d="M54.7179487,48.3344532 C55.7003962,48.3344532 56.5060627,47.5287867 56.5060627,46.5463392 L56.5060627,7.0825224 C56.5060627,6.10031429 55.7002495,5.2944084 54.7179487,5.2944084 L3.27853723,5.2944084 C2.29635619,5.2944084 1.49042323,6.10038768 1.49042323,7.0825224 L1.49042323,46.5463392 C1.49042323,47.5287133 2.29620942,48.3344532 3.27853723,48.3344532 L54.7179487,48.3344532 Z M54.7179487,49.3921455 L3.27853723,49.3921455 C1.7120757,49.3921455 0.432730924,48.1128743 0.432730924,46.5463392 L0.432730924,7.0825224 C0.432730924,5.51625395 1.71219525,4.2367161 3.27853723,4.2367161 L54.7179487,4.2367161 C56.284424,4.2367161 57.563755,5.51619417 57.563755,7.0825224 L57.563755,46.5463392 C57.563755,48.112934 56.2845435,49.3921455 54.7179487,49.3921455 Z" id="Stroke-3" fill="#0E1944" fill-rule="nonzero"></path>
            <path d="M57.0349089,11.0386739 L0.961577078,11.0386739 L0.961577078,7.08265755 C0.961577078,5.80832947 2.00420914,4.76569741 3.27853723,4.76569741 L54.7179487,4.76569741 C55.9924699,4.76569741 57.0349089,5.80832947 57.0349089,7.08265755 L57.0349089,11.0386739 Z" id="Fill-5" fill="#E0E0F0"></path>
            <path d="M56.5060627,10.5098278 L56.5060627,7.08265755 C56.5060627,6.10032975 55.7003228,5.29454356 54.7179487,5.29454356 L3.27853723,5.29454356 C2.29628281,5.29454356 1.49042323,6.10040314 1.49042323,7.08265755 L1.49042323,10.5098278 L56.5060627,10.5098278 Z M57.0349089,11.5675201 L0.961577078,11.5675201 C0.669503412,11.5675201 0.432730924,11.3307476 0.432730924,11.0386739 L0.432730924,7.08265755 C0.432730924,5.51625581 1.71213548,4.23685125 3.27853723,4.23685125 L54.7179487,4.23685125 C56.2844838,4.23685125 57.563755,5.51619603 57.563755,7.08265755 L57.563755,11.0386739 C57.563755,11.3307476 57.3269825,11.5675201 57.0349089,11.5675201 Z" id="Stroke-7" fill="#0E1944" fill-rule="nonzero"></path>
            <path d="M5.84211847,7.90205051 C5.84211847,8.60717871 5.27040856,9.17888863 4.56528035,9.17888863 C3.85995907,9.17888863 3.28824915,8.60717871 3.28824915,7.90205051 C3.28824915,7.1969223 3.85995907,6.62540547 4.56528035,6.62540547 C5.27040856,6.62540547 5.84211847,7.1969223 5.84211847,7.90205051" id="Fill-9" fill="#FFEBDE"></path>
            <path d="M5.31327232,7.90205051 C5.31327232,7.48905753 4.97839645,7.15425162 4.56528035,7.15425162 C4.15198866,7.15425162 3.8170953,7.48904005 3.8170953,7.90205051 C3.8170953,8.31512254 4.15205023,8.65004248 4.56528035,8.65004248 C4.97833489,8.65004248 5.31327232,8.31510505 5.31327232,7.90205051 Z M6.37096463,7.90205051 C6.37096463,8.89925238 5.56248222,9.70773479 4.56528035,9.70773479 C3.56792762,9.70773479 2.759403,8.8992946 2.759403,7.90205051 C2.759403,6.90481851 3.56791551,6.09655931 4.56528035,6.09655931 C5.56249433,6.09655931 6.37096463,6.90486073 6.37096463,7.90205051 Z" id="Stroke-11" fill="#0E1944" fill-rule="nonzero"></path>
            <path d="M10.051031,7.90205051 C10.051031,8.60717871 9.47932113,9.17888863 8.77419293,9.17888863 C8.06887164,9.17888863 7.49716172,8.60717871 7.49716172,7.90205051 C7.49716172,7.1969223 8.06887164,6.62540547 8.77419293,6.62540547 C9.47932113,6.62540547 10.051031,7.1969223 10.051031,7.90205051" id="Fill-13" fill="#FFFFFF"></path>
            <path d="M9.52218489,7.90205051 C9.52218489,7.48905753 9.18730903,7.15425162 8.77419293,7.15425162 C8.36090124,7.15425162 8.02600788,7.48904005 8.02600788,7.90205051 C8.02600788,8.31512254 8.3609628,8.65004248 8.77419293,8.65004248 C9.18724746,8.65004248 9.52218489,8.31510505 9.52218489,7.90205051 Z M10.5798772,7.90205051 C10.5798772,8.89925238 9.7713948,9.70773479 8.77419293,9.70773479 C7.7768402,9.70773479 6.96831557,8.8992946 6.96831557,7.90205051 C6.96831557,6.90481851 7.77682809,6.09655931 8.77419293,6.09655931 C9.7714069,6.09655931 10.5798772,6.90486073 10.5798772,7.90205051 Z" id="Stroke-15" fill="#0E1944" fill-rule="nonzero"></path>
            <path d="M14.2599436,7.90205051 C14.2599436,8.60717871 13.6882337,9.17888863 12.9831055,9.17888863 C12.2777842,9.17888863 11.7060743,8.60717871 11.7060743,7.90205051 C11.7060743,7.1969223 12.2777842,6.62540547 12.9831055,6.62540547 C13.6882337,6.62540547 14.2599436,7.1969223 14.2599436,7.90205051" id="Fill-17" fill="#E0E0F0"></path>
            <path d="M13.7310975,7.90205051 C13.7310975,7.48905753 13.3962216,7.15425162 12.9831055,7.15425162 C12.5698138,7.15425162 12.2349205,7.48904005 12.2349205,7.90205051 C12.2349205,8.31512254 12.5698754,8.65004248 12.9831055,8.65004248 C13.39616,8.65004248 13.7310975,8.31510505 13.7310975,7.90205051 Z M14.7887898,7.90205051 C14.7887898,8.89925238 13.9803074,9.70773479 12.9831055,9.70773479 C11.9857528,9.70773479 11.1772281,8.8992946 11.1772281,7.90205051 C11.1772281,6.90481851 11.9857407,6.09655931 12.9831055,6.09655931 C13.9803195,6.09655931 14.7887898,6.90486073 14.7887898,7.90205051 Z" id="Stroke-19" fill="#0E1944" fill-rule="nonzero"></path>
            <path d="M35.3667555,24.4465555 C35.0746818,24.4465555 34.8379093,24.209783 34.8379093,23.9177093 C34.8379093,23.6256356 35.0746818,23.3888631 35.3667555,23.3888631 L50.4188871,23.3888631 C50.7109608,23.3888631 50.9477332,23.6256356 50.9477332,23.9177093 C50.9477332,24.209783 50.7109608,24.4465555 50.4188871,24.4465555 L35.3667555,24.4465555 Z" id="Stroke-21" fill="#0E1944" fill-rule="nonzero"></path>
            <path d="M35.3667555,28.0652997 C35.0746818,28.0652997 34.8379093,27.8285272 34.8379093,27.5364535 C34.8379093,27.2443798 35.0746818,27.0076074 35.3667555,27.0076074 L50.4188871,27.0076074 C50.7109608,27.0076074 50.9477332,27.2443798 50.9477332,27.5364535 C50.9477332,27.8285272 50.7109608,28.0652997 50.4188871,28.0652997 L35.3667555,28.0652997 Z" id="Stroke-23" fill="#0E1944" fill-rule="nonzero"></path>
            <path d="M35.3667555,31.6842176 C35.0746818,31.6842176 34.8379093,31.4474452 34.8379093,31.1553715 C34.8379093,30.8632978 35.0746818,30.6265253 35.3667555,30.6265253 L50.4188871,30.6265253 C50.7109608,30.6265253 50.9477332,30.8632978 50.9477332,31.1553715 C50.9477332,31.4474452 50.7109608,31.6842176 50.4188871,31.6842176 L35.3667555,31.6842176 Z" id="Stroke-25" fill="#0E1944" fill-rule="nonzero"></path>
            <path d="M35.3667555,35.3029618 C35.0746818,35.3029618 34.8379093,35.0661894 34.8379093,34.7741157 C34.8379093,34.482042 35.0746818,34.2452695 35.3667555,34.2452695 L42.8928213,34.2452695 C43.184895,34.2452695 43.4216674,34.482042 43.4216674,34.7741157 C43.4216674,35.0661894 43.184895,35.3029618 42.8928213,35.3029618 L35.3667555,35.3029618 Z" id="Stroke-27" fill="#0E1944" fill-rule="nonzero"></path>
            <path d="M26.1966321,38.0194764 C30.9868309,33.2290925 30.9868309,25.4624895 26.1966321,20.6722907 C21.4064422,15.8819157 13.6398504,15.8819157 8.84946093,20.6723052 C4.05908591,25.4624951 4.05908591,33.2290869 8.84946816,38.0194691 C13.6398504,42.8098514 21.4064422,42.8098514 26.1966321,38.0194764 Z M26.944548,38.7673633 C21.7413026,43.9708097 13.3050059,43.9708097 8.10156675,38.7673705 C2.89812756,33.5639313 2.89812756,25.1276347 8.10156675,19.9243965 C13.3050059,14.7209573 21.7413026,14.7209573 26.9445408,19.9243965 C32.1477845,25.1276402 32.1477845,33.5639258 26.944548,38.7673633 Z" id="Stroke-29" fill="#0E1944" fill-rule="nonzero"></path>
            <path d="M22.5883148,22.4288886 C22.5363763,22.2072328 22.3386623,22.0502587 22.1108279,22.0502587 L7.00849552,22.0502587 C5.22559469,24.6132028 4.4884152,27.6825958 4.79579858,30.6647166 L24.512164,30.6647166 L22.5883148,22.4288886 Z" id="Fill-31" fill="#E0E0F0"></path>
            <path d="M23.1032143,22.3082371 L25.0271464,30.5444192 C25.1046404,30.8761642 24.8528399,31.1935627 24.512164,31.1935627 L4.79579858,31.1935627 C4.5247192,31.1935627 4.29753397,30.988591 4.26973961,30.7189403 C3.94400251,27.5587585 4.748244,24.3733242 6.57436163,21.7482554 C6.67322199,21.6061423 6.83537849,21.5214126 7.00849552,21.5214126 L22.1108279,21.5214126 C22.5842354,21.5214126 22.9952408,21.8474431 23.1032143,22.3082371 Z M7.28858917,22.5791049 C5.80533001,24.8172203 5.11095214,27.4735314 5.28214962,30.1358704 L23.845545,30.1358704 L22.0803214,22.5791049 L7.28858917,22.5791049 Z" id="Stroke-33" fill="#0E1944" fill-rule="nonzero"></path>
            <path d="M10.939315,40.3197019 C15.1148633,42.8291628 20.413365,42.7445938 24.5130329,40.0654155 L24.5130329,30.2046262 L17.7743474,24.7404618 L10.939315,30.2046262 L10.939315,40.3197019 Z" id="Fill-35" fill="#FFFFFF"></path>
            <path d="M10.6668961,40.7729857 C10.5077918,40.6773657 10.4104688,40.5053288 10.4104688,40.3197019 L10.4104688,30.2046262 C10.4104688,30.0439074 10.4835548,29.8919099 10.6090897,29.7915529 L17.4441221,24.3273886 C17.6382861,24.1721671 17.9143462,24.1731243 18.1074292,24.3296885 L24.8461147,29.7938528 C24.9699521,29.8942683 25.0418791,30.0451929 25.0418791,30.2046262 L25.0418791,40.0654155 C25.0418791,40.2439548 24.9517946,40.4104412 24.8023397,40.5081116 C20.541101,43.2928781 15.024613,43.391928 10.6668961,40.7729857 Z M23.9841867,39.7753042 L23.9841867,30.4566611 L17.7719933,25.4194107 L11.4681611,30.458915 L11.4681611,40.0163036 C15.3549351,42.2250394 20.1811244,42.1359153 23.9841867,39.7753042 Z" id="Stroke-37" fill="#0E1944" fill-rule="nonzero"></path>
            <path d="M17.2723973,24.3057615 L8.74945938,30.1263516 C8.58283133,30.2400757 8.53900216,30.4669447 8.65137473,30.6345382 L9.62874575,32.0928715 C9.74266296,32.2627819 9.97339357,32.3069972 10.1421455,32.1913423 L17.4654773,27.1679796 C17.590207,27.0824452 17.754325,27.0818659 17.8794408,27.166435 L25.309739,32.1878669 C25.4777186,32.3013979 25.7059391,32.2575687 25.8198563,32.0897822 L26.8061091,30.636662 C26.9204124,30.4684893 26.8763902,30.2393034 26.7080244,30.1255792 L18.0991659,24.3038307 C17.8493204,24.1348857 17.5214705,24.135658 17.2723973,24.3057615" id="Fill-39" fill="#FFFFFF"></path>
            <path d="M10.4411163,32.6275701 C10.0297299,32.9095157 9.46724937,32.8016607 9.18943632,32.3872955 L8.21212821,30.929056 C7.93804268,30.5202824 8.04487046,29.9669581 8.45120878,29.689631 L16.9741467,23.869041 C17.4023425,23.5766065 17.965862,23.5752872 18.3954173,23.8657516 L27.0040376,29.687339 C27.4149917,29.9649216 27.5222728,30.5237747 27.2436875,30.9336526 L26.2573885,32.3868409 C25.9796548,32.7959097 25.4232105,32.9028623 25.0136216,32.6260367 L17.674268,27.6660655 L10.4411163,32.6275701 Z M17.8029304,24.7419207 C17.7327857,24.694489 17.6406055,24.6947048 17.5706519,24.7424793 L9.17969875,30.4729327 L9.97733704,31.6630872 L17.1663867,26.7318339 C17.4702138,26.5234819 17.8704158,26.5220115 18.1755582,26.7282651 L25.4726333,31.6596643 L26.2779363,30.4731512 L17.8029304,24.7419207 Z" id="Stroke-41" fill="#0E1944" fill-rule="nonzero"></path>
            <path d="M29.7707175,0.96155777 C28.4961963,0.96155777 27.4535643,2.00418984 27.4535643,3.27851792 L27.4535643,14.219783 C27.4535643,15.4941111 28.4961963,16.5367431 29.7707175,16.5367431 L30.959125,16.5367431 C30.9849977,17.3104147 30.7988686,18.6928676 29.3909291,19.8169795 C29.3909291,19.8169795 33.2645003,20.2989072 34.7971694,16.5367431 L62.2612566,16.5367431 C63.5355846,16.5367431 64.5782167,15.4941111 64.5782167,14.219783 L64.5782167,3.27851792 C64.5782167,2.00418984 63.5355846,0.96155777 62.2612566,0.96155777 L29.7707175,0.96155777 Z" id="Fill-43" fill="#FFFFFF"></path>
            <path d="M30.4122238,17.0655893 L29.7707175,17.0655893 C28.2041594,17.0655893 26.9247181,15.7862215 26.9247181,14.219783 L26.9247181,3.27851792 C26.9247181,1.71207941 28.2041594,0.432711616 29.7707175,0.432711616 L62.2612566,0.432711616 C63.8276583,0.432711616 65.1070629,1.71211617 65.1070629,3.27851792 L65.1070629,14.219783 C65.1070629,15.7861847 63.8276583,17.0655893 62.2612566,17.0655893 L35.1428127,17.0655893 C34.566797,18.2931889 33.7065279,19.1601871 32.6417438,19.7049916 C31.5478048,20.2647135 30.4182839,20.4189226 29.4694312,20.3546388 C29.4038473,20.3501955 29.3553842,20.3454806 29.3256365,20.3417795 C28.8611578,20.2839917 28.6951857,19.6957391 29.0609626,19.4036995 C29.915915,18.7210976 30.3207442,17.9104655 30.4122238,17.0655893 Z M32.1599686,18.7633942 C33.0961479,18.2843912 33.8331647,17.5013144 34.3074061,16.3372183 C34.3885306,16.1380863 34.5821468,16.007897 34.7971694,16.007897 L62.2612566,16.007897 C63.243511,16.007897 64.0493706,15.2020374 64.0493706,14.219783 L64.0493706,3.27851792 C64.0493706,2.2962635 63.243511,1.49040392 62.2612566,1.49040392 L29.7707175,1.49040392 C28.7882931,1.49040392 27.9824104,2.29624035 27.9824104,3.27851792 L27.9824104,14.219783 C27.9824104,15.2020605 28.7882931,16.007897 29.7707175,16.007897 L30.959125,16.007897 C31.2443183,16.007897 31.4781437,16.2340336 31.4876757,16.5190676 C31.519303,17.4648186 31.2785571,18.405783 30.6701409,19.2463872 C31.15716,19.1688097 31.6662179,19.0160253 32.1599686,18.7633942 Z" id="Stroke-45" fill="#0E1944" fill-rule="nonzero"></path>
            <path d="M49.2217524,5.63129441 L46.8213817,10.989844 C46.7584376,11.1244208 46.6236677,11.2053213 46.4798231,11.2053213 C46.255078,11.2053213 46.093277,11.0255638 46.093277,10.8369246 C46.093277,10.791937 46.1112334,10.7376815 46.1291898,10.6928869 L48.3409214,5.82012666 L45.3829356,5.82012666 C45.2031781,5.82012666 45.0591404,5.67628205 45.0591404,5.47856812 C45.0591404,5.29881063 45.2031781,5.15477294 45.3829356,5.15477294 L48.8981503,5.15477294 C49.0510697,5.15477294 49.2489767,5.28973587 49.2489767,5.50540624 C49.2489767,5.55058696 49.2399019,5.59538153 49.2217524,5.63129441" id="Fill-47" fill="#0E1944"></path>
            <path d="M53.7985403,11.1514133 L50.2113068,11.1514133 C50.040624,11.1514133 49.8697482,10.998494 49.8697482,10.7918984 C49.8697482,10.6837736 49.9147359,10.5851097 50.0049042,10.5130908 C52.108511,8.88581248 53.2772243,7.83391257 53.2772243,6.82719339 C53.2772243,6.0629827 52.6477834,5.73030584 52.0276104,5.73030584 C51.4340825,5.73030584 50.9396046,5.93709453 50.5800896,6.28772783 C50.5173386,6.35067192 50.436245,6.37751004 50.3644192,6.37751004 C50.1935434,6.37751004 50.0224745,6.23366543 50.0224745,6.04502626 C50.0224745,5.96393265 50.0496988,5.87415045 50.1126429,5.81120636 C50.6071208,5.31653537 51.2902379,5.06495212 52.0276104,5.06495212 C53.0254479,5.06495212 54.0412419,5.63125579 54.0412419,6.82719339 C54.0412419,8.04996911 52.8007028,9.16462002 51.1284368,10.4860596 L53.7985403,10.4860596 C53.9784909,10.4860596 54.1223355,10.6300973 54.1223355,10.8096617 C54.1223355,11.0075687 53.9784909,11.1514133 53.7985403,11.1514133" id="Fill-49" fill="#0E1944"></path>
            <path d="M57.5751081,8.04989188 C56.9819663,8.04989188 56.4063948,8.41848162 56.073911,8.94887241 C56.1457368,9.69512666 56.5411647,10.6122567 57.5841829,10.6122567 C58.5103877,10.6122567 58.959878,9.92006487 58.959878,9.34449336 C58.959878,8.46346926 58.3483936,8.04989188 57.5751081,8.04989188 M57.6112141,11.2774174 C55.9389481,11.2774174 55.3006256,9.81194007 55.3006256,8.18466172 C55.3006256,6.55738338 56.0557615,5.08302441 57.7371023,5.08302441 C58.3931881,5.08302441 58.8606348,5.27166358 59.2653306,5.65820976 C59.3282746,5.72115385 59.3553058,5.80224745 59.3553058,5.88314798 C59.3553058,6.06290547 59.2025795,6.21563176 59.022629,6.21563176 C58.9417285,6.21563176 58.8606348,6.18879364 58.7978838,6.13492431 C58.5370327,5.90091134 58.2225054,5.74837813 57.7371023,5.74837813 C56.5772706,5.74837813 56.0466867,6.92597312 56.0466867,8.1037612 C56.0466867,8.18466172 56.0466867,8.25668057 56.0557615,8.33738801 C56.3164195,7.92400371 56.9819663,7.40249459 57.7548656,7.40249459 C58.8339898,7.40249459 59.7150139,8.04081711 59.7150139,9.31746216 C59.7150139,10.3604804 58.9235789,11.2774174 57.6112141,11.2774174" id="Fill-51" fill="#0E1944"></path>
            <path d="M15.0740848,41.6573023 C15.0740848,41.949376 14.8373123,42.1861484 14.5452386,42.1861484 C14.253165,42.1861484 14.0163925,41.949376 14.0163925,41.6573023 L14.0163925,34.0567076 C14.0163925,33.7646339 14.253165,33.5278614 14.5452386,33.5278614 L20.907032,33.5278614 C21.1991056,33.5278614 21.4358781,33.7646339 21.4358781,34.0567076 L21.4358781,41.6573023 C21.4358781,41.949376 21.1991056,42.1861484 20.907032,42.1861484 C20.6149583,42.1861484 20.3781858,41.949376 20.3781858,41.6573023 L20.3781858,34.5855538 L15.0740848,34.5855538 L15.0740848,41.6573023 Z" id="Stroke-53" fill="#0E1944" fill-rule="nonzero"></path>
            <path d="M36.6849513,5.14859438 C34.9375772,2.47269849 31.5163925,4.22740964 31.5163925,6.69477912 C31.5163925,8.59758264 34.4900178,10.4345459 36.6849513,13.4340439 C38.8789195,10.434932 41.8535102,8.5979688 41.8535102,6.69477912 C41.8535102,4.22740964 38.539871,2.47269849 36.6849513,5.14859438" id="Fill-55" fill="#FFEBDE"></path>
            <path d="M42.3823563,6.69477912 C42.3823563,6.82534013 42.3715041,6.95617323 42.3501093,7.08734903 C42.2255034,7.85133321 41.7713481,8.58297213 40.9354762,9.51959088 C40.5657662,9.93386169 38.9089835,11.6261983 38.5103866,12.0607911 C37.9724058,12.6473551 37.5175396,13.1916212 37.1117804,13.7462861 C36.9005274,14.0350648 36.4694644,14.0350968 36.2581686,13.7463494 C35.8528485,13.1924571 35.398598,12.6489032 34.8616034,12.0632883 C34.4620974,11.6276104 32.8039018,9.93369739 32.4342178,9.51940942 C31.5976503,8.58190628 31.1434166,7.84969062 31.0194166,7.08502153 C30.9982711,6.95462425 30.9875463,6.82456638 30.9875463,6.69477912 C30.9875463,3.72979071 34.6284349,2.12511282 36.6944429,4.30767834 C38.8282389,2.13208135 42.3823563,3.71834792 42.3823563,6.69477912 Z M37.7309011,11.3458678 C38.1469772,10.8922173 39.7969442,9.2068426 40.1463384,8.81533625 C40.8587456,8.0170633 41.2223399,7.43131708 41.3062105,6.91708905 C41.3185313,6.84154791 41.324664,6.76761293 41.324664,6.69477912 C41.324664,4.48932626 38.5373455,3.40462531 37.1195838,5.44987976 C36.905706,5.75841853 36.4474157,5.75208003 36.2421527,5.43774421 C34.9138037,3.40353542 32.0452386,4.50587734 32.0452386,6.69477912 C32.0452386,6.76717144 32.0512979,6.84065157 32.0634705,6.91571596 C32.146897,7.43018059 32.5104767,8.01626382 33.2233948,8.81519866 C33.5727523,9.20670774 35.2241595,10.8936862 35.6411657,11.3484487 C36.0239615,11.7659034 36.3681756,12.1648657 36.6848989,12.5629195 C37.0022132,12.1640461 37.3471553,11.7642684 37.7309011,11.3458678 Z" id="Stroke-57" fill="#0E1944" fill-rule="nonzero"></path>
        </g>
    </g>
</svg>