<?xml version="1.0" encoding="UTF-8"?>
<svg width="124px" height="98px" viewBox="0 0 124 98" version="1.1" xmlns="http://www.w3.org/2000/svg" xmlns:xlink="http://www.w3.org/1999/xlink">
    <!-- Generator: Sketch 51.2 (57519) - http://www.bohemiancoding.com/sketch -->
    <title>icon-roofstock-guarantee copy</title>
    <desc>Created with Sketch.</desc>
    <defs>
        <polygon id="path-1" points="33.8255864 0.455558169 33.8255864 31.2153062 0.12105254 31.2153062 0.12105254 0.455558169"></polygon>
        <polygon id="path-3" points="33.8255864 0.455558169 33.8255864 31.2153062 0.12105254 31.2153062 0.12105254 0.455558169"></polygon>
    </defs>
    <g id="Page-1" stroke="none" stroke-width="1" fill="none" fill-rule="evenodd">
        <g id="icon-roofstock-guarantee">
            <path d="M28.5146349,47.3528798 C15.6527313,48.146576 6.4076494,49.6651247 2.24991589,50.4508391 C1.11553785,50.6653516 0.61131474,52.009796 1.31782204,52.9272109 L9.11419211,63.0392291 L7.83652944,74.3894331 C7.71803453,75.4435373 8.65756529,76.3035827 9.68832227,76.0825851 C13.0552634,75.359728 20.2343692,74.0082993 29.4333422,73.3547847 C31.5414609,73.2051247 33.0471891,71.2321089 32.6505533,69.143356 L28.5146349,47.3528798 Z" id="Fill-1" fill="#FFFFFF" fill-rule="nonzero"></path>
            <g id="Group-5" transform="translate(0.000000, 45.898684)" fill="#0E1944" fill-rule="nonzero">
                <path d="M27.7046551,2.50505669 C15.4570412,3.30174602 6.64528376,4.73698413 2.43301284,5.53267573 C2.16032581,5.58455782 2.05422576,5.79208618 2.02100752,5.87938776 C1.98828508,5.96619047 1.93027711,6.1946712 2.10132625,6.41716553 L9.89769633,16.5291837 C10.0563506,16.7347166 10.1287366,16.9946258 10.0994847,17.2530386 L8.82182204,28.6032427 C8.79405756,28.8501813 8.92048518,29.0063264 8.99882071,29.0776644 C9.07666047,29.1485033 9.24176007,29.2602493 9.48172467,29.2078684 C12.9512953,28.4630613 20.1487455,27.1151247 29.3635838,26.4611111 C30.0849651,26.409728 30.7518087,26.0490476 31.1935618,25.4713604 C31.6368022,24.8921769 31.8123133,24.1488662 31.6764658,23.4314967 L27.7046551,2.50505669 Z M9.36967507,31.2153062 C8.74646127,31.2153062 8.13564231,30.9838322 7.66662062,30.5558049 C7.0642302,30.0060544 6.75981231,29.1924036 6.85103851,28.378254 L8.08358389,17.4316326 L0.534615316,7.63988662 C-0.0112545374,6.9314966 -0.149085436,6.00809524 0.167231518,5.17099773 C0.483052678,4.33439909 1.19303054,3.73675738 2.06711642,3.57163264 C6.42366358,2.74800453 15.6454431,1.2484127 28.4542967,0.458208618 C28.9446376,0.421791382 29.3953147,0.773492064 29.48902,1.26736962 L33.6244427,23.0573469 C33.8668862,24.3339456 33.5540398,25.6574376 32.7657264,26.6880953 C31.9784047,27.7172562 30.7894891,28.3602949 29.5029022,28.4515873 C20.4085418,29.0976191 13.3147127,30.4256009 9.89521736,31.1594331 C9.72119344,31.1973469 9.54469058,31.2153062 9.36967507,31.2153062 Z" id="Fill-3"></path>
            </g>
            <path d="M95.545668,47.3528798 C108.407572,48.146576 117.652653,49.6651247 121.810387,50.4508391 C122.944765,50.6653516 123.448988,52.009796 122.741985,52.9272109 L114.946111,63.0392291 L116.223773,74.3894331 C116.342268,75.4435373 115.402738,76.3035827 114.37198,76.0825851 C111.005039,75.359728 103.825934,74.0082993 94.6269607,73.3547847 C92.518842,73.2051247 91.0131138,71.2321089 91.4097496,69.143356 L95.545668,47.3528798 Z" id="Fill-6" fill="#FFFFFF" fill-rule="nonzero"></path>
            <g id="Group-10" transform="translate(90.234618, 45.898684)">
                <g id="Fill-8-Clipped">
                    <mask id="mask-2" fill="white">
                        <use xlink:href="#path-1"></use>
                    </mask>
                    <g id="path-1"></g>
                    <path d="M6.12108013,2.50505669 L2.14926959,23.4314967 C2.01342187,24.1488662 2.18893316,24.8921769 2.63217353,25.4713604 C3.07392651,26.0490476 3.74077024,26.409728 4.4621514,26.4611111 C13.6769898,27.1151247 20.87444,28.4630613 24.3440107,29.2078684 C24.5839751,29.2597507 24.7495707,29.1485033 24.8269147,29.0776644 C24.90525,29.0063264 25.0316778,28.8501813 25.0039133,28.6032427 L23.7262504,17.2530386 C23.6969987,16.9946258 23.7693847,16.7347166 23.9280389,16.5291837 L31.7244091,6.41716553 C31.8954582,6.1946712 31.8374502,5.96619047 31.8047278,5.87938776 C31.7715096,5.79208618 31.6654096,5.58455782 31.3927224,5.53267573 C27.1804516,4.73698413 18.3686941,3.30174602 6.12108013,2.50505669 M24.4560602,31.2153062 C24.2810447,31.2153062 24.1045418,31.1973469 23.930518,31.1594331 C20.5110226,30.4256009 13.4171934,29.0976191 4.32283311,28.4515873 C3.03624613,28.3602949 1.84733068,27.7172562 1.06000885,26.6880953 C0.27169544,25.6574376 -0.0411509518,24.3339456 0.201292607,23.0573469 L4.33671536,1.26736962 C4.43091633,0.773990929 4.87415671,0.421292518 5.37143869,0.458208618 C18.1802922,1.2484127 27.4020718,2.74800453 31.7586189,3.57163264 C32.6327047,3.73675738 33.3426827,4.33439909 33.6585038,5.17099773 C33.9748207,6.00809524 33.8369898,6.9314966 33.29112,7.63988662 L25.7421513,17.4316326 L26.9746967,28.378254 C27.0659229,29.1924036 26.7615051,30.0060544 26.1591147,30.5558049 C25.6900929,30.9838322 25.079274,31.2153062 24.4560602,31.2153062" id="Fill-8" fill="#0E1944" fill-rule="nonzero" mask="url(#mask-2)"></path>
                </g>
            </g>
            <path d="M105.078112,55.4779638 L108.985966,50.8988707 C109.956731,49.7614558 109.973588,48.0857642 109.026125,46.9278958 L104.659662,41.5950158 C103.991331,40.7778731 103.78508,39.6728844 104.114288,38.6676689 L106.069702,32.697238 C106.545664,31.243542 105.89072,29.6576462 104.530755,28.9732018 L98.8107729,26.0947438 C97.8538893,25.6128391 97.2162976,24.6629978 97.1285418,23.5894376 L96.5980416,17.0956962 C96.4755804,15.6035873 95.3069924,14.4147891 93.8265498,14.2776009 L86.9602904,13.6410476 C85.9419282,13.5467619 85.0380947,12.9471247 84.5502329,12.0426803 L81.3994582,6.20295238 C80.6780771,4.86599093 79.0964922,4.25837189 77.6740576,4.77220409 L72.3363329,6.7018186 C71.3164833,7.06998187 70.1796264,6.86893878 69.3461956,6.17202267 L64.6068951,2.21202268 C63.4546684,1.24871202 61.7788827,1.26617234 60.6464878,2.25392744 L55.6582984,6.60354196 C54.8585818,7.30145578 53.7574218,7.53392744 52.7464967,7.21814513 L46.2996796,5.20521996 C44.849976,4.75224942 43.2897104,5.43719273 42.6322869,6.81506122 L40.1369527,12.0456735 C39.6530571,13.0598685 38.6599804,13.7278503 37.5444427,13.7897098 L31.7391838,14.1114785 C30.2215564,14.1957868 28.9944649,15.388576 28.8581213,16.9131111 L28.2116051,24.1212291 C28.1188916,25.1548798 27.5160053,26.0727936 26.6072138,26.5621813 L20.256085,29.9844036 C18.892154,30.7197324 18.2867888,32.3644942 18.8455494,33.8171927 L20.8193077,38.947034 C21.2233803,39.9971473 21.0270456,41.1854467 20.3071518,42.0464898 L16.2436193,46.9069433 C15.2708703,48.0712971 15.2867357,49.7759229 16.2808039,50.9218187 L20.9710208,56.3260362 C21.7231412,57.1930658 21.9333581,58.4093016 21.5163949,59.4803673 L19.338865,65.0736553 C18.7612643,66.5572836 19.4013351,68.2394602 20.8158371,68.9548344 L26.0102771,71.5823629 C26.9741018,72.0697551 27.6121896,73.0310702 27.6905251,74.1131111 L28.1302949,80.17683 C28.2403611,81.7008662 29.4431589,82.91361 30.9568198,83.0273516 L37.9619018,83.5516598 C39.0114989,83.6309796 39.9475591,84.2465804 40.4403789,85.1829524 L43.8648322,91.6891656 C44.5624153,93.0141542 46.1063196,93.641728 47.5223089,93.1757869 L53.3062489,91.2726122 C54.3196529,90.9388707 55.432216,91.1598684 56.2438318,91.8567847 L60.5463373,95.5488933 C61.7243453,96.5595964 63.4650802,96.5266711 64.604912,95.4725669 L69.5172449,90.9278958 C70.3129951,90.1915691 71.4349782,89.9316598 72.4692058,90.2444489 L79.6418662,92.4110249 C81.0662842,92.8410476 82.5918442,92.1790522 83.258688,90.8415918 L86.0207596,85.303678 C86.5398567,84.2615464 87.5993696,83.6040409 88.75705,83.6040409 L93.3262931,83.6040409 C94.9088693,83.6040409 96.2306578,82.3898004 96.3759256,80.8039047 L97.0100469,73.8826349 C97.1027604,72.8649478 97.6907729,71.9600044 98.5792369,71.4661269 L105.078608,67.8523402 C106.389985,67.1234967 106.984938,65.5460816 106.485178,64.123814 L104.513402,58.5170567 C104.147506,57.475424 104.363177,56.3165578 105.078112,55.4779638" id="Fill-11" fill="#E0E0F0" fill-rule="nonzero"></path>
            <g id="Group-15" transform="translate(14.378044, 0.002993)" fill="#0E1944" fill-rule="nonzero">
                <path d="M39.8700169,90.1218276 C40.8244213,90.1218276 41.7689102,90.4590613 42.5091316,91.0946169 L46.8116371,94.7872244 C47.6063958,95.4686758 48.7858911,95.4467256 49.5558602,94.7348436 L54.4681931,90.1901724 C55.5158069,89.2208753 57.0126109,88.8731656 58.3765418,89.2862267 L65.5492022,91.4523038 C66.5130271,91.7446396 67.5422967,91.2976553 67.9949571,90.3907164 L70.7565329,84.8528027 C71.4481664,83.4654558 72.8363913,82.6034149 74.3793042,82.6034149 L78.9480513,82.6034149 C80.0249171,82.6034149 80.911398,81.7892653 81.0105569,80.70922 L81.6446782,73.7879502 C81.7676353,72.4405124 82.5440496,71.2442313 83.721066,70.5897189 L90.2209331,66.975932 C91.111876,66.4805578 91.5119822,65.4199682 91.1723629,64.4536644 L89.2005878,58.8469071 C88.717684,57.4725307 89.0042531,55.9315329 89.9477502,54.8250476 L93.8556033,50.2459547 C94.5140187,49.4747076 94.5254218,48.3447756 93.8823762,47.55956 L89.5164091,42.2261813 C88.625962,41.1386531 88.3562498,39.6904444 88.794532,38.3524853 L90.749946,32.3820544 C91.0697336,31.4052744 90.6220309,30.3222358 89.7087773,29.86278 L83.9892909,26.9838231 C82.7304684,26.3502631 81.8777016,25.0796509 81.7621816,23.6683582 L81.2316813,17.1741179 C81.1488836,16.1629161 80.3605702,15.3612381 79.3575778,15.2679501 L72.4913182,14.6313968 C71.1407738,14.5066803 69.947892,13.7159773 69.3003842,12.5157052 L66.1501053,6.67597733 C65.6597644,5.76604536 64.6002513,5.3579728 63.6309729,5.70817687 L58.2932484,7.63729251 C56.9496449,8.12418593 55.4335051,7.85429931 54.3348242,6.93688436 L49.5955238,2.97638549 C48.812664,2.32137416 47.6862187,2.33334693 46.9177371,3.00482087 L41.9295476,7.35493424 C40.8630933,8.28482087 39.42281,8.58912924 38.0747447,8.16808618 L31.6279273,6.155161 C30.6571616,5.85185033 29.58922,6.31928798 29.1479629,7.24418593 L26.6526287,12.4747982 C26.0125578,13.8162494 24.6972147,14.7007392 23.2212342,14.7825533 L17.4159752,15.1048209 C16.3966215,15.1611927 15.5592244,15.9758413 15.4675024,17.0000136 L14.8214821,24.2076327 C14.6980292,25.5805124 13.9042621,26.7882676 12.6970022,27.4387891 L6.3463692,30.8610113 C5.42468702,31.357882 5.01466489,32.4723491 5.39246038,33.454118 L7.36572289,38.5839591 C7.90118104,39.9738004 7.64088889,41.5452291 6.68747587,42.6856371 L2.62443913,47.5460907 C1.96205755,48.3397869 1.97246923,49.4821904 2.65022044,50.262916 L7.34043736,55.6671338 C8.33896769,56.8185171 8.61562107,58.417882 8.06181851,59.8416462 L5.88428862,65.4349342 C5.49112351,66.4446396 5.91998584,67.5735738 6.88331473,68.0599682 L12.0777548,70.6879956 C13.3459973,71.3295373 14.1982683,72.6126213 14.3018893,74.037882 L14.7411634,80.101102 C14.8155325,81.1242767 15.6370642,81.9528933 16.6524515,82.02922 L23.6575333,82.5540271 C25.0556742,82.6587891 26.28227,83.4659547 26.938702,84.7126213 L30.3631553,91.2188344 C30.8361433,92.1177913 31.8758247,92.5418276 32.8361789,92.2245487 L38.6201187,90.3208753 C39.0276618,90.1871791 39.4495831,90.1218276 39.8700169,90.1218276 M48.1542489,97.2790613 C47.2186844,97.2790613 46.28312,96.9552971 45.5245542,96.3057733 L41.2225444,92.6126667 C40.6771704,92.1452291 39.9166216,91.9950702 39.2368871,92.2175647 L33.4529473,94.1217369 C31.5704153,94.7378367 29.53617,93.9117142 28.6105216,92.1532109 L25.1860682,85.6469978 C24.8509111,85.0099456 24.2237309,84.597882 23.5097867,84.5435058 L16.5052005,84.0191973 C14.5165684,83.8700362 12.9082107,82.2482222 12.7629429,80.246272 L12.3231731,74.1830522 C12.2706189,73.4547076 11.8353112,72.7986984 11.1868119,72.4709433 L5.99237184,69.8434149 C4.10884816,68.8905804 3.26847631,66.6825987 4.03794953,64.7070884 L6.21498362,59.1138004 C6.49808233,58.3859547 6.35678087,57.567814 5.84611244,56.979152 L1.15589553,51.5749342 C-0.16886764,50.0484036 -0.189691014,47.8139818 1.10631607,46.2620091 L5.1703444,41.4015556 C5.65721469,40.8183809 5.79008764,40.0152064 5.51640902,39.3048209 L3.54265073,34.1744807 C2.80441258,32.2543447 3.60710402,30.0738004 5.4098132,29.102508 L11.760942,25.6797869 C12.3777105,25.347542 12.7832705,24.7304444 12.8457406,24.0285398 L13.4922568,16.8204218 C13.6717344,14.8174739 15.3118229,13.2235964 17.3064046,13.1123492 L23.1116636,12.7900816 C23.8662629,12.7481769 24.5375689,12.296703 24.8647933,11.6112608 L27.3606233,6.38064853 C28.2238018,4.57076191 30.3091138,3.6523492 32.2159398,4.2489932 L38.6622611,6.26191838 C39.3514158,6.47842631 40.0866791,6.32228118 40.6310616,5.84636282 L45.6192509,1.4967483 C47.1244833,0.182734694 49.3302736,0.16078458 50.8627747,1.44137415 L55.6010836,5.40137416 C56.1618273,5.87080727 56.9367542,6.00849433 57.6234298,5.75956009 L62.9606587,3.83044444 C64.8555856,3.146 66.9309818,3.9416916 67.8928233,5.72364173 L71.043598,11.5633696 C71.3742931,12.1764762 71.9831289,12.5805578 72.6727791,12.6444127 L79.5395342,13.2814648 C81.5033767,13.463551 83.0462896,15.0319864 83.2079184,17.0104898 L83.7384187,23.5047302 C83.7979142,24.2260907 84.2332218,24.8756144 84.8762673,25.1988798 L90.5957538,28.0778367 C92.3830933,28.9772924 93.2591624,31.0959773 92.6334698,33.0066349 L90.6780558,38.9770658 C90.4534609,39.6610113 90.5922833,40.4013289 91.0474227,40.9575647 L95.41339,46.2909433 C96.6702293,47.8264536 96.6484144,50.0364309 95.36034,51.546 L91.4524869,56.1250929 C90.9695831,56.6908073 90.8233236,57.4785171 91.0707251,58.1814196 L93.0420044,63.7881769 C93.7063691,65.6783809 92.9230138,67.7536644 91.1798,68.7224627 L84.6809242,72.3367482 C84.0790296,72.6709887 83.6818982,73.2816009 83.6189322,73.9705351 L82.9853067,80.8923038 C82.7919469,83.0050022 81.05617,84.5988798 78.9480513,84.5988798 L74.3793042,84.5988798 C73.5914864,84.5988798 72.8825002,85.0393787 72.5289987,85.7477687 L69.7669269,91.2861813 C68.8819336,93.0611473 66.8665284,93.9321678 64.9790384,93.3639591 L57.806378,91.1973831 C57.1107782,90.985864 56.3457671,91.1639591 55.8103089,91.6588344 L50.897976,96.2040044 C50.1250322,96.9188798 49.1398884,97.2785624 48.1542489,97.2790613" id="Fill-13"></path>
            </g>
            <path d="M97.3143656,48.9318413 C97.3143656,68.2180091 81.7756671,83.8524762 62.6087438,83.8524762 C43.4413244,83.8524762 27.9031218,68.2180091 27.9031218,48.9318413 C27.9031218,29.6456736 43.4413244,14.0112064 62.6087438,14.0112064 C81.7756671,14.0112064 97.3143656,29.6456736 97.3143656,48.9318413" id="Fill-16" fill="#FFFFFF" fill-rule="nonzero"></path>
            <path d="M62.6087438,15.0089388 C44.0189251,15.0089388 28.8947109,30.2268527 28.8947109,48.9318413 C28.8947109,67.63683 44.0189251,82.8547438 62.6087438,82.8547438 C81.1985622,82.8547438 96.3227764,67.63683 96.3227764,48.9318413 C96.3227764,30.2268527 81.1985622,15.0089388 62.6087438,15.0089388 M62.6087438,84.8502087 C42.9252022,84.8502087 26.9115324,68.7373289 26.9115324,48.9318413 C26.9115324,29.1263538 42.9252022,13.0134739 62.6087438,13.0134739 C82.2922851,13.0134739 98.3059549,29.1263538 98.3059549,48.9318413 C98.3059549,68.7373289 82.2922851,84.8502087 62.6087438,84.8502087" id="Fill-18" fill="#0E1944" fill-rule="nonzero"></path>
            <path d="M13.0249208,38.8326938 L18.269436,66.8390431 C18.4563506,67.8362767 19.2114458,68.4833062 20.0067003,68.32317 C27.4927029,66.8215827 63.9182364,60.4046667 105.300228,68.3436236 C106.0935,68.4962767 106.847603,67.8547347 107.033526,66.861492 L112.277546,38.8586349 C112.486771,37.7411747 111.900246,36.6301996 111.007816,36.4590884 C64.1373776,27.4809931 22.8813173,34.7180453 14.2817601,36.4391338 C13.3937919,36.6167302 12.8161912,37.7197233 13.0249208,38.8326938" id="Fill-20" fill="#FFFFFF" fill-rule="nonzero"></path>
            <path d="M63.0072633,63.4681042 C75.7234033,63.4681042 90.2873696,64.4478776 105.486449,67.3637507 C105.532558,67.373728 105.605935,67.3757233 105.708069,67.305882 C105.875648,67.1911429 106.007033,66.955678 106.059092,66.6768118 L111.303111,38.6739547 C111.423093,38.0344082 111.09934,37.4926396 110.82219,37.4392607 C63.9120884,28.4526849 22.3337618,35.8443856 14.4754174,37.4178096 C14.201243,37.4726849 13.8804639,38.0134558 13.9994546,38.6475147 L13.9994546,38.6480136 L19.2439699,66.6543629 C19.2970199,66.9377189 19.4293971,67.1761769 19.5989588,67.2904173 C19.697622,67.3582631 19.7690164,67.3537733 19.8126463,67.3447936 C24.2539742,66.4538187 40.813514,63.4681042 63.0072633,63.4681042 M105.532062,69.3632064 C105.392744,69.3632064 105.25293,69.3502358 105.114603,69.323796 C63.7524427,61.38883 27.1231378,67.9135011 20.2003577,69.3013469 C19.6133369,69.4215738 19.0035095,69.293864 18.4893705,68.9446576 C17.8815263,68.5320953 17.4462187,67.8316871 17.2950013,67.0235238 L12.0504861,39.0171747 L12.0504861,39.0176736 C11.7366481,37.3434784 12.6513891,35.7481042 14.0886976,35.4602584 C22.010008,33.8753604 63.9220044,26.423796 111.193045,35.4792153 C112.619942,35.7520953 113.562943,37.3848844 113.252576,39.0431156 L108.008556,67.0459729 C107.85833,67.8461542 107.426989,68.5425713 106.824103,68.9556327 C106.432425,69.2240227 105.985218,69.3632064 105.532062,69.3632064" id="Fill-22" fill="#0E1944" fill-rule="nonzero"></path>
            <path d="M69.3528393,57.9050976 C69.2531847,57.9050976 69.1535298,57.881152 69.0623038,57.8312653 L62.6655618,54.3207438 L56.2678282,57.8312653 C56.0635609,57.9435102 55.814672,57.9265487 55.6252784,57.791356 C55.4358849,57.6556644 55.3392049,57.4236916 55.3778769,57.1917189 L56.5429942,50.1621951 L51.9008693,45.4903129 C51.7407278,45.3291791 51.6812324,45.0902222 51.7511393,44.87122 C51.8205507,44.6542131 52.005482,44.4925804 52.2300771,44.4541678 L59.2202851,43.2823311 L62.1216751,37.4445987 C62.2252962,37.2375691 62.4355131,37.1068662 62.6655618,37.1068662 C62.8951147,37.1068662 63.1058273,37.2375691 63.2079611,37.4445987 L66.1098469,43.2823311 L73.1005507,44.4541678 C73.3251456,44.4925804 73.5100771,44.6527164 73.5789924,44.87122 C73.6488996,45.0907211 73.5913873,45.3291791 73.4297582,45.4903129 L68.7871378,50.1621951 L69.9522549,57.1917189 C69.9894396,57.4236916 69.8937511,57.6556644 69.7053493,57.791356 C69.6007367,57.8656871 69.476788,57.9050976 69.3528393,57.9050976" id="Fill-24" fill="#FFEBDE" fill-rule="nonzero"></path>
            <path d="M62.3211829,37.8909842 C62.3216787,37.8914829 62.3221744,37.8924807 62.3221744,37.8929796 L62.3211829,37.8909842 Z M72.7284073,44.7848162 L72.7259282,44.7873107 L72.7284073,44.7848162 Z M53.1286551,45.3151111 L57.2442462,49.4566984 C57.4708242,49.6846802 57.5739496,50.0079456 57.5208996,50.3262222 L56.4851847,56.5750204 L62.1907889,53.4451338 C62.4867782,53.2825033 62.844742,53.2830022 63.1402356,53.4451338 L68.8448482,56.5750204 L67.8091333,50.3262222 C67.7565791,50.0079456 67.8597042,49.6846802 68.0862824,49.4566984 L72.2018733,45.3151111 L65.9464329,44.2659956 C65.6340824,44.2136144 65.3648658,44.0135691 65.2230687,43.7282178 L62.6647684,38.5824127 L60.10746,43.7282178 C59.9656627,44.0135691 59.6964462,44.2136144 59.3835998,44.2659956 L53.1286551,45.3151111 Z M69.5359858,56.9546576 L69.5374731,56.9551564 C69.5369773,56.9546576 69.5364816,56.9546576 69.5359858,56.9546576 Z M55.7930553,56.9551564 C55.7925596,56.9556553 55.7920638,56.9556553 55.7920638,56.9561542 L55.7930553,56.9551564 Z M56.356278,57.3552471 L56.356278,57.3562449 L56.356278,57.3552471 Z M55.9779867,58.9047256 C55.6547287,58.9047256 55.3314707,58.8044536 55.052834,58.6064036 C54.5466278,58.2432291 54.2977389,57.6386031 54.3998724,57.0264942 L55.4812004,50.5043176 L51.1995184,46.19561 C50.7736309,45.767084 50.6229093,45.1430022 50.8068491,44.5668118 C50.9902931,43.9916191 51.4712138,43.5720727 52.0636884,43.4708027 L58.5595891,42.3812789 L61.2348969,36.9985124 C61.5095671,36.448762 62.057916,36.109034 62.6652642,36.109034 C63.2671589,36.109034 63.8288942,36.459238 64.0961276,37.0010069 L66.7709393,42.3812789 L73.2633696,43.4703038 C73.8598104,43.5725713 74.3417229,43.9926169 74.5236796,44.5688073 C74.7076193,45.1469931 74.5559062,45.7720727 74.1275396,46.199102 L69.849328,50.5043176 L70.9301602,57.027492 C71.0288233,57.6415964 70.7804302,58.2432291 70.283644,58.6024127 C69.7754547,58.9605987 69.1071236,58.9930249 68.5860433,58.7061769 L62.6652642,55.45756 L56.742502,58.7071747 C56.5025373,58.8393742 56.2397662,58.9047256 55.9779867,58.9047256 Z" id="Fill-26" fill="#0E1944" fill-rule="nonzero"></path>
            <path d="M89.3158104,56.408 C89.2503656,56.408 89.1849207,56.3925351 89.1249296,56.3591111 L84.9195998,54.0518549 L80.7137742,56.3591111 C80.5799098,56.4334422 80.4162976,56.4219682 80.2913573,56.3336689 C80.1669129,56.2438731 80.1039469,56.0917189 80.1292324,55.9395647 L80.8952351,51.318068 L77.8431236,48.2470476 C77.7375193,48.1407891 77.6988473,47.9836462 77.7449562,47.8399729 C77.7905693,47.6967982 77.9120389,47.5905398 78.0597858,47.5655964 L82.65481,46.794848 L84.5626278,42.9575691 C84.6305516,42.8218776 84.7683824,42.7355738 84.9195998,42.7355738 C85.0703213,42.7355738 85.2096396,42.8218776 85.2770678,42.9575691 L87.1838938,46.794848 L91.7799098,47.5655964 C91.9276564,47.5905398 92.0491262,47.6958004 92.0942436,47.8399729 C92.1398567,47.9841451 92.1021762,48.1407891 91.9960762,48.2470476 L88.9444604,51.318068 L89.7099673,55.9395647 C89.7347569,56.0917189 89.6717911,56.2438731 89.5478424,56.3336689 C89.4789269,56.3820589 89.3976167,56.408 89.3158104,56.408" id="Fill-28" fill="#FFEBDE" fill-rule="nonzero"></path>
            <path d="M84.3898433,43.4038549 C84.3903391,43.4043538 84.3903391,43.4048527 84.3908349,43.4053516 L84.3898433,43.4038549 Z M91.2952704,47.5414513 C91.2942789,47.5419502 91.2937831,47.5429478 91.2932873,47.5434467 L91.2952704,47.5414513 Z M84.919352,53.0544218 C85.0824684,53.0544218 85.2465764,53.09483 85.3938273,53.1761451 L88.5317113,54.8977324 L87.9665056,51.4819956 C87.9134556,51.1642178 88.0165809,50.8404536 88.2431589,50.6124716 L90.4816716,48.3595918 L87.0210253,47.7794104 C86.7081789,47.7265307 86.4389624,47.5269842 86.2971651,47.2411338 L84.919352,44.469932 L83.5420344,47.2411338 C83.4002373,47.5269842 83.1310209,47.7265307 82.8181744,47.7794104 L79.357528,48.3595918 L81.5960407,50.6124716 C81.8226189,50.8404536 81.9257442,51.1642178 81.87319,51.4819956 L81.3069924,54.8972336 L84.4448764,53.1761451 C84.5926233,53.09483 84.7562356,53.0544218 84.919352,53.0544218 Z M89.5976698,55.4819047 L89.5996529,55.4834013 C89.5991571,55.4829024 89.5981656,55.4824036 89.5976698,55.4819047 Z M80.2395467,55.4834013 C80.2385551,55.4839002 80.2380593,55.4843991 80.2370678,55.484898 L80.2395467,55.4834013 Z M80.5236371,57.4075284 C80.2425216,57.4075284 79.9619018,57.3207256 79.7194582,57.1491156 C79.2786967,56.8313378 79.063522,56.3065307 79.1512776,55.7757369 L79.8334909,51.6605896 L77.1423178,48.9522449 C76.7714636,48.5790929 76.6405738,48.0358276 76.8012111,47.5339682 C76.9603611,47.0341042 77.3798036,46.6684353 77.8959256,46.5816327 L81.9941638,45.8941951 L83.6758991,42.5113831 C83.9138804,42.0339682 84.3903391,41.7376418 84.919352,41.7376418 C85.4508438,41.7376418 85.9277982,42.034966 86.1642922,42.5128798 L87.8450358,45.8941951 L91.9427782,46.5816327 C92.4608836,46.6689342 92.8808216,47.035102 93.0394758,47.5379591 C93.1981302,48.0403176 93.0662489,48.583084 92.6958902,48.9537416 L90.0062044,51.6605896 L90.687922,55.775238 C90.7741904,56.3080271 90.5585198,56.8308391 90.1261869,57.1436282 C89.6844338,57.4574149 89.1043542,57.4853516 88.6482231,57.2344218 L84.919352,55.1885713 L81.1884976,57.2354196 C80.979768,57.3506576 80.7512067,57.4075284 80.5236371,57.4075284 Z" id="Fill-30" fill="#0E1944" fill-rule="nonzero"></path>
            <path d="M44.8071393,56.408 C44.7411987,56.408 44.6757538,56.3925351 44.6162584,56.3591111 L40.4109287,54.0518549 L36.2051031,56.3591111 C36.0712387,56.4334422 35.9076264,56.4219682 35.7826862,56.3336689 C35.6582418,56.2438731 35.59478,56.0917189 35.6200656,55.9395647 L36.3860682,51.318068 L33.3339567,48.2470476 C33.2283524,48.1407891 33.1896804,47.9836462 33.2357893,47.8399729 C33.2814024,47.6967982 33.402872,47.5905398 33.5506189,47.5655964 L38.1456431,46.794848 L40.0534609,42.9575691 C40.1213847,42.8218776 40.2597113,42.7355738 40.4109287,42.7355738 C40.5616502,42.7355738 40.7004727,42.8218776 40.7679009,42.9575691 L42.6752227,46.794848 L47.2707429,47.5655964 C47.4184896,47.5905398 47.5399593,47.6958004 47.5855724,47.8399729 C47.6311856,47.9841451 47.5935051,48.1407891 47.4869093,48.2470476 L44.4352936,51.318068 L45.2012962,55.9395647 C45.2260858,56.0917189 45.1626242,56.2438731 45.0391713,56.3336689 C44.9702558,56.3820589 44.8884498,56.408 44.8071393,56.408" id="Fill-32" fill="#FFEBDE" fill-rule="nonzero"></path>
            <path d="M39.8806764,43.4038549 C39.8811722,43.4043538 39.8811722,43.4048527 39.881668,43.4053516 L39.8806764,43.4038549 Z M46.7861036,47.5414513 C46.7846162,47.5429478 46.7831289,47.5439456 46.7821373,47.5454422 L46.7861036,47.5414513 Z M34.8488571,48.3595918 L37.0868738,50.6124716 C37.313452,50.8404536 37.4165773,51.1642178 37.3640231,51.4819956 L36.7978256,54.8977324 L39.9362053,53.1761451 C40.2316989,53.0135147 40.5901584,53.0135147 40.8851562,53.1761451 L44.0230402,54.8972336 L43.4573387,51.4819956 C43.4042887,51.1642178 43.507414,50.8404536 43.733992,50.6124716 L45.9730004,48.3595918 L42.5123542,47.7794104 C42.1995078,47.7265307 41.9302913,47.5269842 41.788494,47.2411338 L40.4106809,44.469932 L39.0328676,47.2411338 C38.8910704,47.5269842 38.621854,47.7265307 38.3090076,47.7794104 L34.8488571,48.3595918 Z M45.085528,55.4799093 L45.0909818,55.4834013 C45.0889987,55.4824036 45.0875113,55.481406 45.085528,55.4799093 Z M35.7308756,55.4834013 C35.729884,55.4839002 35.7293882,55.4843991 35.7283967,55.484898 L35.7308756,55.4834013 Z M36.014966,57.4075284 C35.7338504,57.4075284 35.4532307,57.3207256 35.2107871,57.1491156 C34.7700258,56.8313378 34.5543551,56.3065307 34.6421107,55.7757369 L35.324324,51.6605896 L32.6331509,48.9522449 C32.2622967,48.5790929 32.1314069,48.0358276 32.2920442,47.5339682 C32.4511944,47.0341042 32.8706367,46.6684353 33.3867587,46.5816327 L37.4849969,45.8941951 L39.1667322,42.5113831 C39.4047136,42.0339682 39.8811722,41.7376418 40.4106809,41.7376418 C40.9416769,41.7376418 41.4186313,42.034966 41.6551253,42.5128798 L43.3363647,45.8941951 L47.4336113,46.5816327 C47.9517167,46.6689342 48.3716547,47.035102 48.5303089,47.5379591 C48.6904507,48.0393198 48.5580736,48.5835827 48.185236,48.9557369 L45.4970376,51.6605896 L46.1792509,55.775238 C46.2655193,56.3065307 46.0503444,56.8293424 45.6190031,57.1426304 C45.172788,57.4589116 44.5907251,57.4858504 44.1365773,57.2324262 L40.4106809,55.1885713 L36.6798264,57.2354196 C36.4710969,57.3506576 36.2425356,57.4075284 36.014966,57.4075284 Z" id="Fill-34" fill="#0E1944" fill-rule="nonzero"></path>
        </g>
        <g id="icon-roofstock-guarantee-copy">
            <path d="M28.5146349,47.3528798 C15.6527313,48.146576 6.4076494,49.6651247 2.24991589,50.4508391 C1.11553785,50.6653516 0.61131474,52.009796 1.31782204,52.9272109 L9.11419211,63.0392291 L7.83652944,74.3894331 C7.71803453,75.4435373 8.65756529,76.3035827 9.68832227,76.0825851 C13.0552634,75.359728 20.2343692,74.0082993 29.4333422,73.3547847 C31.5414609,73.2051247 33.0471891,71.2321089 32.6505533,69.143356 L28.5146349,47.3528798 Z" id="Fill-1" fill="#FFFFFF" fill-rule="nonzero"></path>
            <g id="Group-5" transform="translate(0.000000, 45.898684)" fill="#0E1944" fill-rule="nonzero">
                <path d="M27.7046551,2.50505669 C15.4570412,3.30174602 6.64528376,4.73698413 2.43301284,5.53267573 C2.16032581,5.58455782 2.05422576,5.79208618 2.02100752,5.87938776 C1.98828508,5.96619047 1.93027711,6.1946712 2.10132625,6.41716553 L9.89769633,16.5291837 C10.0563506,16.7347166 10.1287366,16.9946258 10.0994847,17.2530386 L8.82182204,28.6032427 C8.79405756,28.8501813 8.92048518,29.0063264 8.99882071,29.0776644 C9.07666047,29.1485033 9.24176007,29.2602493 9.48172467,29.2078684 C12.9512953,28.4630613 20.1487455,27.1151247 29.3635838,26.4611111 C30.0849651,26.409728 30.7518087,26.0490476 31.1935618,25.4713604 C31.6368022,24.8921769 31.8123133,24.1488662 31.6764658,23.4314967 L27.7046551,2.50505669 Z M9.36967507,31.2153062 C8.74646127,31.2153062 8.13564231,30.9838322 7.66662062,30.5558049 C7.0642302,30.0060544 6.75981231,29.1924036 6.85103851,28.378254 L8.08358389,17.4316326 L0.534615316,7.63988662 C-0.0112545374,6.9314966 -0.149085436,6.00809524 0.167231518,5.17099773 C0.483052678,4.33439909 1.19303054,3.73675738 2.06711642,3.57163264 C6.42366358,2.74800453 15.6454431,1.2484127 28.4542967,0.458208618 C28.9446376,0.421791382 29.3953147,0.773492064 29.48902,1.26736962 L33.6244427,23.0573469 C33.8668862,24.3339456 33.5540398,25.6574376 32.7657264,26.6880953 C31.9784047,27.7172562 30.7894891,28.3602949 29.5029022,28.4515873 C20.4085418,29.0976191 13.3147127,30.4256009 9.89521736,31.1594331 C9.72119344,31.1973469 9.54469058,31.2153062 9.36967507,31.2153062 Z" id="Fill-3"></path>
            </g>
            <path d="M95.545668,47.3528798 C108.407572,48.146576 117.652653,49.6651247 121.810387,50.4508391 C122.944765,50.6653516 123.448988,52.009796 122.741985,52.9272109 L114.946111,63.0392291 L116.223773,74.3894331 C116.342268,75.4435373 115.402738,76.3035827 114.37198,76.0825851 C111.005039,75.359728 103.825934,74.0082993 94.6269607,73.3547847 C92.518842,73.2051247 91.0131138,71.2321089 91.4097496,69.143356 L95.545668,47.3528798 Z" id="Fill-6" fill="#FFFFFF" fill-rule="nonzero"></path>
            <g id="Group-10" transform="translate(90.234618, 45.898684)">
                <g id="Fill-8-Clipped">
                    <mask id="mask-4" fill="white">
                        <use xlink:href="#path-3"></use>
                    </mask>
                    <g id="path-1"></g>
                    <path d="M6.12108013,2.50505669 L2.14926959,23.4314967 C2.01342187,24.1488662 2.18893316,24.8921769 2.63217353,25.4713604 C3.07392651,26.0490476 3.74077024,26.409728 4.4621514,26.4611111 C13.6769898,27.1151247 20.87444,28.4630613 24.3440107,29.2078684 C24.5839751,29.2597507 24.7495707,29.1485033 24.8269147,29.0776644 C24.90525,29.0063264 25.0316778,28.8501813 25.0039133,28.6032427 L23.7262504,17.2530386 C23.6969987,16.9946258 23.7693847,16.7347166 23.9280389,16.5291837 L31.7244091,6.41716553 C31.8954582,6.1946712 31.8374502,5.96619047 31.8047278,5.87938776 C31.7715096,5.79208618 31.6654096,5.58455782 31.3927224,5.53267573 C27.1804516,4.73698413 18.3686941,3.30174602 6.12108013,2.50505669 M24.4560602,31.2153062 C24.2810447,31.2153062 24.1045418,31.1973469 23.930518,31.1594331 C20.5110226,30.4256009 13.4171934,29.0976191 4.32283311,28.4515873 C3.03624613,28.3602949 1.84733068,27.7172562 1.06000885,26.6880953 C0.27169544,25.6574376 -0.0411509518,24.3339456 0.201292607,23.0573469 L4.33671536,1.26736962 C4.43091633,0.773990929 4.87415671,0.421292518 5.37143869,0.458208618 C18.1802922,1.2484127 27.4020718,2.74800453 31.7586189,3.57163264 C32.6327047,3.73675738 33.3426827,4.33439909 33.6585038,5.17099773 C33.9748207,6.00809524 33.8369898,6.9314966 33.29112,7.63988662 L25.7421513,17.4316326 L26.9746967,28.378254 C27.0659229,29.1924036 26.7615051,30.0060544 26.1591147,30.5558049 C25.6900929,30.9838322 25.079274,31.2153062 24.4560602,31.2153062" id="Fill-8" fill="#0E1944" fill-rule="nonzero" mask="url(#mask-4)"></path>
                </g>
            </g>
            <path d="M105.078112,55.4779638 L108.985966,50.8988707 C109.956731,49.7614558 109.973588,48.0857642 109.026125,46.9278958 L104.659662,41.5950158 C103.991331,40.7778731 103.78508,39.6728844 104.114288,38.6676689 L106.069702,32.697238 C106.545664,31.243542 105.89072,29.6576462 104.530755,28.9732018 L98.8107729,26.0947438 C97.8538893,25.6128391 97.2162976,24.6629978 97.1285418,23.5894376 L96.5980416,17.0956962 C96.4755804,15.6035873 95.3069924,14.4147891 93.8265498,14.2776009 L86.9602904,13.6410476 C85.9419282,13.5467619 85.0380947,12.9471247 84.5502329,12.0426803 L81.3994582,6.20295238 C80.6780771,4.86599093 79.0964922,4.25837189 77.6740576,4.77220409 L72.3363329,6.7018186 C71.3164833,7.06998187 70.1796264,6.86893878 69.3461956,6.17202267 L64.6068951,2.21202268 C63.4546684,1.24871202 61.7788827,1.26617234 60.6464878,2.25392744 L55.6582984,6.60354196 C54.8585818,7.30145578 53.7574218,7.53392744 52.7464967,7.21814513 L46.2996796,5.20521996 C44.849976,4.75224942 43.2897104,5.43719273 42.6322869,6.81506122 L40.1369527,12.0456735 C39.6530571,13.0598685 38.6599804,13.7278503 37.5444427,13.7897098 L31.7391838,14.1114785 C30.2215564,14.1957868 28.9944649,15.388576 28.8581213,16.9131111 L28.2116051,24.1212291 C28.1188916,25.1548798 27.5160053,26.0727936 26.6072138,26.5621813 L20.256085,29.9844036 C18.892154,30.7197324 18.2867888,32.3644942 18.8455494,33.8171927 L20.8193077,38.947034 C21.2233803,39.9971473 21.0270456,41.1854467 20.3071518,42.0464898 L16.2436193,46.9069433 C15.2708703,48.0712971 15.2867357,49.7759229 16.2808039,50.9218187 L20.9710208,56.3260362 C21.7231412,57.1930658 21.9333581,58.4093016 21.5163949,59.4803673 L19.338865,65.0736553 C18.7612643,66.5572836 19.4013351,68.2394602 20.8158371,68.9548344 L26.0102771,71.5823629 C26.9741018,72.0697551 27.6121896,73.0310702 27.6905251,74.1131111 L28.1302949,80.17683 C28.2403611,81.7008662 29.4431589,82.91361 30.9568198,83.0273516 L37.9619018,83.5516598 C39.0114989,83.6309796 39.9475591,84.2465804 40.4403789,85.1829524 L43.8648322,91.6891656 C44.5624153,93.0141542 46.1063196,93.641728 47.5223089,93.1757869 L53.3062489,91.2726122 C54.3196529,90.9388707 55.432216,91.1598684 56.2438318,91.8567847 L60.5463373,95.5488933 C61.7243453,96.5595964 63.4650802,96.5266711 64.604912,95.4725669 L69.5172449,90.9278958 C70.3129951,90.1915691 71.4349782,89.9316598 72.4692058,90.2444489 L79.6418662,92.4110249 C81.0662842,92.8410476 82.5918442,92.1790522 83.258688,90.8415918 L86.0207596,85.303678 C86.5398567,84.2615464 87.5993696,83.6040409 88.75705,83.6040409 L93.3262931,83.6040409 C94.9088693,83.6040409 96.2306578,82.3898004 96.3759256,80.8039047 L97.0100469,73.8826349 C97.1027604,72.8649478 97.6907729,71.9600044 98.5792369,71.4661269 L105.078608,67.8523402 C106.389985,67.1234967 106.984938,65.5460816 106.485178,64.123814 L104.513402,58.5170567 C104.147506,57.475424 104.363177,56.3165578 105.078112,55.4779638" id="Fill-11" fill="#E0E0F0" fill-rule="nonzero"></path>
            <g id="Group-15" transform="translate(14.378044, 0.002993)" fill="#0E1944" fill-rule="nonzero">
                <path d="M39.8700169,90.1218276 C40.8244213,90.1218276 41.7689102,90.4590613 42.5091316,91.0946169 L46.8116371,94.7872244 C47.6063958,95.4686758 48.7858911,95.4467256 49.5558602,94.7348436 L54.4681931,90.1901724 C55.5158069,89.2208753 57.0126109,88.8731656 58.3765418,89.2862267 L65.5492022,91.4523038 C66.5130271,91.7446396 67.5422967,91.2976553 67.9949571,90.3907164 L70.7565329,84.8528027 C71.4481664,83.4654558 72.8363913,82.6034149 74.3793042,82.6034149 L78.9480513,82.6034149 C80.0249171,82.6034149 80.911398,81.7892653 81.0105569,80.70922 L81.6446782,73.7879502 C81.7676353,72.4405124 82.5440496,71.2442313 83.721066,70.5897189 L90.2209331,66.975932 C91.111876,66.4805578 91.5119822,65.4199682 91.1723629,64.4536644 L89.2005878,58.8469071 C88.717684,57.4725307 89.0042531,55.9315329 89.9477502,54.8250476 L93.8556033,50.2459547 C94.5140187,49.4747076 94.5254218,48.3447756 93.8823762,47.55956 L89.5164091,42.2261813 C88.625962,41.1386531 88.3562498,39.6904444 88.794532,38.3524853 L90.749946,32.3820544 C91.0697336,31.4052744 90.6220309,30.3222358 89.7087773,29.86278 L83.9892909,26.9838231 C82.7304684,26.3502631 81.8777016,25.0796509 81.7621816,23.6683582 L81.2316813,17.1741179 C81.1488836,16.1629161 80.3605702,15.3612381 79.3575778,15.2679501 L72.4913182,14.6313968 C71.1407738,14.5066803 69.947892,13.7159773 69.3003842,12.5157052 L66.1501053,6.67597733 C65.6597644,5.76604536 64.6002513,5.3579728 63.6309729,5.70817687 L58.2932484,7.63729251 C56.9496449,8.12418593 55.4335051,7.85429931 54.3348242,6.93688436 L49.5955238,2.97638549 C48.812664,2.32137416 47.6862187,2.33334693 46.9177371,3.00482087 L41.9295476,7.35493424 C40.8630933,8.28482087 39.42281,8.58912924 38.0747447,8.16808618 L31.6279273,6.155161 C30.6571616,5.85185033 29.58922,6.31928798 29.1479629,7.24418593 L26.6526287,12.4747982 C26.0125578,13.8162494 24.6972147,14.7007392 23.2212342,14.7825533 L17.4159752,15.1048209 C16.3966215,15.1611927 15.5592244,15.9758413 15.4675024,17.0000136 L14.8214821,24.2076327 C14.6980292,25.5805124 13.9042621,26.7882676 12.6970022,27.4387891 L6.3463692,30.8610113 C5.42468702,31.357882 5.01466489,32.4723491 5.39246038,33.454118 L7.36572289,38.5839591 C7.90118104,39.9738004 7.64088889,41.5452291 6.68747587,42.6856371 L2.62443913,47.5460907 C1.96205755,48.3397869 1.97246923,49.4821904 2.65022044,50.262916 L7.34043736,55.6671338 C8.33896769,56.8185171 8.61562107,58.417882 8.06181851,59.8416462 L5.88428862,65.4349342 C5.49112351,66.4446396 5.91998584,67.5735738 6.88331473,68.0599682 L12.0777548,70.6879956 C13.3459973,71.3295373 14.1982683,72.6126213 14.3018893,74.037882 L14.7411634,80.101102 C14.8155325,81.1242767 15.6370642,81.9528933 16.6524515,82.02922 L23.6575333,82.5540271 C25.0556742,82.6587891 26.28227,83.4659547 26.938702,84.7126213 L30.3631553,91.2188344 C30.8361433,92.1177913 31.8758247,92.5418276 32.8361789,92.2245487 L38.6201187,90.3208753 C39.0276618,90.1871791 39.4495831,90.1218276 39.8700169,90.1218276 M48.1542489,97.2790613 C47.2186844,97.2790613 46.28312,96.9552971 45.5245542,96.3057733 L41.2225444,92.6126667 C40.6771704,92.1452291 39.9166216,91.9950702 39.2368871,92.2175647 L33.4529473,94.1217369 C31.5704153,94.7378367 29.53617,93.9117142 28.6105216,92.1532109 L25.1860682,85.6469978 C24.8509111,85.0099456 24.2237309,84.597882 23.5097867,84.5435058 L16.5052005,84.0191973 C14.5165684,83.8700362 12.9082107,82.2482222 12.7629429,80.246272 L12.3231731,74.1830522 C12.2706189,73.4547076 11.8353112,72.7986984 11.1868119,72.4709433 L5.99237184,69.8434149 C4.10884816,68.8905804 3.26847631,66.6825987 4.03794953,64.7070884 L6.21498362,59.1138004 C6.49808233,58.3859547 6.35678087,57.567814 5.84611244,56.979152 L1.15589553,51.5749342 C-0.16886764,50.0484036 -0.189691014,47.8139818 1.10631607,46.2620091 L5.1703444,41.4015556 C5.65721469,40.8183809 5.79008764,40.0152064 5.51640902,39.3048209 L3.54265073,34.1744807 C2.80441258,32.2543447 3.60710402,30.0738004 5.4098132,29.102508 L11.760942,25.6797869 C12.3777105,25.347542 12.7832705,24.7304444 12.8457406,24.0285398 L13.4922568,16.8204218 C13.6717344,14.8174739 15.3118229,13.2235964 17.3064046,13.1123492 L23.1116636,12.7900816 C23.8662629,12.7481769 24.5375689,12.296703 24.8647933,11.6112608 L27.3606233,6.38064853 C28.2238018,4.57076191 30.3091138,3.6523492 32.2159398,4.2489932 L38.6622611,6.26191838 C39.3514158,6.47842631 40.0866791,6.32228118 40.6310616,5.84636282 L45.6192509,1.4967483 C47.1244833,0.182734694 49.3302736,0.16078458 50.8627747,1.44137415 L55.6010836,5.40137416 C56.1618273,5.87080727 56.9367542,6.00849433 57.6234298,5.75956009 L62.9606587,3.83044444 C64.8555856,3.146 66.9309818,3.9416916 67.8928233,5.72364173 L71.043598,11.5633696 C71.3742931,12.1764762 71.9831289,12.5805578 72.6727791,12.6444127 L79.5395342,13.2814648 C81.5033767,13.463551 83.0462896,15.0319864 83.2079184,17.0104898 L83.7384187,23.5047302 C83.7979142,24.2260907 84.2332218,24.8756144 84.8762673,25.1988798 L90.5957538,28.0778367 C92.3830933,28.9772924 93.2591624,31.0959773 92.6334698,33.0066349 L90.6780558,38.9770658 C90.4534609,39.6610113 90.5922833,40.4013289 91.0474227,40.9575647 L95.41339,46.2909433 C96.6702293,47.8264536 96.6484144,50.0364309 95.36034,51.546 L91.4524869,56.1250929 C90.9695831,56.6908073 90.8233236,57.4785171 91.0707251,58.1814196 L93.0420044,63.7881769 C93.7063691,65.6783809 92.9230138,67.7536644 91.1798,68.7224627 L84.6809242,72.3367482 C84.0790296,72.6709887 83.6818982,73.2816009 83.6189322,73.9705351 L82.9853067,80.8923038 C82.7919469,83.0050022 81.05617,84.5988798 78.9480513,84.5988798 L74.3793042,84.5988798 C73.5914864,84.5988798 72.8825002,85.0393787 72.5289987,85.7477687 L69.7669269,91.2861813 C68.8819336,93.0611473 66.8665284,93.9321678 64.9790384,93.3639591 L57.806378,91.1973831 C57.1107782,90.985864 56.3457671,91.1639591 55.8103089,91.6588344 L50.897976,96.2040044 C50.1250322,96.9188798 49.1398884,97.2785624 48.1542489,97.2790613" id="Fill-13"></path>
            </g>
            <path d="M97.3143656,48.9318413 C97.3143656,68.2180091 81.7756671,83.8524762 62.6087438,83.8524762 C43.4413244,83.8524762 27.9031218,68.2180091 27.9031218,48.9318413 C27.9031218,29.6456736 43.4413244,14.0112064 62.6087438,14.0112064 C81.7756671,14.0112064 97.3143656,29.6456736 97.3143656,48.9318413" id="Fill-16" fill="#FFFFFF" fill-rule="nonzero"></path>
            <path d="M62.6087438,15.0089388 C44.0189251,15.0089388 28.8947109,30.2268527 28.8947109,48.9318413 C28.8947109,67.63683 44.0189251,82.8547438 62.6087438,82.8547438 C81.1985622,82.8547438 96.3227764,67.63683 96.3227764,48.9318413 C96.3227764,30.2268527 81.1985622,15.0089388 62.6087438,15.0089388 M62.6087438,84.8502087 C42.9252022,84.8502087 26.9115324,68.7373289 26.9115324,48.9318413 C26.9115324,29.1263538 42.9252022,13.0134739 62.6087438,13.0134739 C82.2922851,13.0134739 98.3059549,29.1263538 98.3059549,48.9318413 C98.3059549,68.7373289 82.2922851,84.8502087 62.6087438,84.8502087" id="Fill-18" fill="#0E1944" fill-rule="nonzero"></path>
            <path d="M13.0249208,38.8326938 L18.269436,66.8390431 C18.4563506,67.8362767 19.2114458,68.4833062 20.0067003,68.32317 C27.4927029,66.8215827 63.9182364,60.4046667 105.300228,68.3436236 C106.0935,68.4962767 106.847603,67.8547347 107.033526,66.861492 L112.277546,38.8586349 C112.486771,37.7411747 111.900246,36.6301996 111.007816,36.4590884 C64.1373776,27.4809931 22.8813173,34.7180453 14.2817601,36.4391338 C13.3937919,36.6167302 12.8161912,37.7197233 13.0249208,38.8326938" id="Fill-20" fill="#FFFFFF" fill-rule="nonzero"></path>
            <path d="M63.0072633,63.4681042 C75.7234033,63.4681042 90.2873696,64.4478776 105.486449,67.3637507 C105.532558,67.373728 105.605935,67.3757233 105.708069,67.305882 C105.875648,67.1911429 106.007033,66.955678 106.059092,66.6768118 L111.303111,38.6739547 C111.423093,38.0344082 111.09934,37.4926396 110.82219,37.4392607 C63.9120884,28.4526849 22.3337618,35.8443856 14.4754174,37.4178096 C14.201243,37.4726849 13.8804639,38.0134558 13.9994546,38.6475147 L13.9994546,38.6480136 L19.2439699,66.6543629 C19.2970199,66.9377189 19.4293971,67.1761769 19.5989588,67.2904173 C19.697622,67.3582631 19.7690164,67.3537733 19.8126463,67.3447936 C24.2539742,66.4538187 40.813514,63.4681042 63.0072633,63.4681042 M105.532062,69.3632064 C105.392744,69.3632064 105.25293,69.3502358 105.114603,69.323796 C63.7524427,61.38883 27.1231378,67.9135011 20.2003577,69.3013469 C19.6133369,69.4215738 19.0035095,69.293864 18.4893705,68.9446576 C17.8815263,68.5320953 17.4462187,67.8316871 17.2950013,67.0235238 L12.0504861,39.0171747 L12.0504861,39.0176736 C11.7366481,37.3434784 12.6513891,35.7481042 14.0886976,35.4602584 C22.010008,33.8753604 63.9220044,26.423796 111.193045,35.4792153 C112.619942,35.7520953 113.562943,37.3848844 113.252576,39.0431156 L108.008556,67.0459729 C107.85833,67.8461542 107.426989,68.5425713 106.824103,68.9556327 C106.432425,69.2240227 105.985218,69.3632064 105.532062,69.3632064" id="Fill-22" fill="#0E1944" fill-rule="nonzero"></path>
            <path d="M69.3528393,57.9050976 C69.2531847,57.9050976 69.1535298,57.881152 69.0623038,57.8312653 L62.6655618,54.3207438 L56.2678282,57.8312653 C56.0635609,57.9435102 55.814672,57.9265487 55.6252784,57.791356 C55.4358849,57.6556644 55.3392049,57.4236916 55.3778769,57.1917189 L56.5429942,50.1621951 L51.9008693,45.4903129 C51.7407278,45.3291791 51.6812324,45.0902222 51.7511393,44.87122 C51.8205507,44.6542131 52.005482,44.4925804 52.2300771,44.4541678 L59.2202851,43.2823311 L62.1216751,37.4445987 C62.2252962,37.2375691 62.4355131,37.1068662 62.6655618,37.1068662 C62.8951147,37.1068662 63.1058273,37.2375691 63.2079611,37.4445987 L66.1098469,43.2823311 L73.1005507,44.4541678 C73.3251456,44.4925804 73.5100771,44.6527164 73.5789924,44.87122 C73.6488996,45.0907211 73.5913873,45.3291791 73.4297582,45.4903129 L68.7871378,50.1621951 L69.9522549,57.1917189 C69.9894396,57.4236916 69.8937511,57.6556644 69.7053493,57.791356 C69.6007367,57.8656871 69.476788,57.9050976 69.3528393,57.9050976" id="Fill-24" fill="#FFEBDE" fill-rule="nonzero"></path>
            <path d="M62.3211829,37.8909842 C62.3216787,37.8914829 62.3221744,37.8924807 62.3221744,37.8929796 L62.3211829,37.8909842 Z M72.7284073,44.7848162 L72.7259282,44.7873107 L72.7284073,44.7848162 Z M53.1286551,45.3151111 L57.2442462,49.4566984 C57.4708242,49.6846802 57.5739496,50.0079456 57.5208996,50.3262222 L56.4851847,56.5750204 L62.1907889,53.4451338 C62.4867782,53.2825033 62.844742,53.2830022 63.1402356,53.4451338 L68.8448482,56.5750204 L67.8091333,50.3262222 C67.7565791,50.0079456 67.8597042,49.6846802 68.0862824,49.4566984 L72.2018733,45.3151111 L65.9464329,44.2659956 C65.6340824,44.2136144 65.3648658,44.0135691 65.2230687,43.7282178 L62.6647684,38.5824127 L60.10746,43.7282178 C59.9656627,44.0135691 59.6964462,44.2136144 59.3835998,44.2659956 L53.1286551,45.3151111 Z M69.5359858,56.9546576 L69.5374731,56.9551564 C69.5369773,56.9546576 69.5364816,56.9546576 69.5359858,56.9546576 Z M55.7930553,56.9551564 C55.7925596,56.9556553 55.7920638,56.9556553 55.7920638,56.9561542 L55.7930553,56.9551564 Z M56.356278,57.3552471 L56.356278,57.3562449 L56.356278,57.3552471 Z M55.9779867,58.9047256 C55.6547287,58.9047256 55.3314707,58.8044536 55.052834,58.6064036 C54.5466278,58.2432291 54.2977389,57.6386031 54.3998724,57.0264942 L55.4812004,50.5043176 L51.1995184,46.19561 C50.7736309,45.767084 50.6229093,45.1430022 50.8068491,44.5668118 C50.9902931,43.9916191 51.4712138,43.5720727 52.0636884,43.4708027 L58.5595891,42.3812789 L61.2348969,36.9985124 C61.5095671,36.448762 62.057916,36.109034 62.6652642,36.109034 C63.2671589,36.109034 63.8288942,36.459238 64.0961276,37.0010069 L66.7709393,42.3812789 L73.2633696,43.4703038 C73.8598104,43.5725713 74.3417229,43.9926169 74.5236796,44.5688073 C74.7076193,45.1469931 74.5559062,45.7720727 74.1275396,46.199102 L69.849328,50.5043176 L70.9301602,57.027492 C71.0288233,57.6415964 70.7804302,58.2432291 70.283644,58.6024127 C69.7754547,58.9605987 69.1071236,58.9930249 68.5860433,58.7061769 L62.6652642,55.45756 L56.742502,58.7071747 C56.5025373,58.8393742 56.2397662,58.9047256 55.9779867,58.9047256 Z" id="Fill-26" fill="#0E1944" fill-rule="nonzero"></path>
            <path d="M89.3158104,56.408 C89.2503656,56.408 89.1849207,56.3925351 89.1249296,56.3591111 L84.9195998,54.0518549 L80.7137742,56.3591111 C80.5799098,56.4334422 80.4162976,56.4219682 80.2913573,56.3336689 C80.1669129,56.2438731 80.1039469,56.0917189 80.1292324,55.9395647 L80.8952351,51.318068 L77.8431236,48.2470476 C77.7375193,48.1407891 77.6988473,47.9836462 77.7449562,47.8399729 C77.7905693,47.6967982 77.9120389,47.5905398 78.0597858,47.5655964 L82.65481,46.794848 L84.5626278,42.9575691 C84.6305516,42.8218776 84.7683824,42.7355738 84.9195998,42.7355738 C85.0703213,42.7355738 85.2096396,42.8218776 85.2770678,42.9575691 L87.1838938,46.794848 L91.7799098,47.5655964 C91.9276564,47.5905398 92.0491262,47.6958004 92.0942436,47.8399729 C92.1398567,47.9841451 92.1021762,48.1407891 91.9960762,48.2470476 L88.9444604,51.318068 L89.7099673,55.9395647 C89.7347569,56.0917189 89.6717911,56.2438731 89.5478424,56.3336689 C89.4789269,56.3820589 89.3976167,56.408 89.3158104,56.408" id="Fill-28" fill="#FFEBDE" fill-rule="nonzero"></path>
            <path d="M84.3898433,43.4038549 C84.3903391,43.4043538 84.3903391,43.4048527 84.3908349,43.4053516 L84.3898433,43.4038549 Z M91.2952704,47.5414513 C91.2942789,47.5419502 91.2937831,47.5429478 91.2932873,47.5434467 L91.2952704,47.5414513 Z M84.919352,53.0544218 C85.0824684,53.0544218 85.2465764,53.09483 85.3938273,53.1761451 L88.5317113,54.8977324 L87.9665056,51.4819956 C87.9134556,51.1642178 88.0165809,50.8404536 88.2431589,50.6124716 L90.4816716,48.3595918 L87.0210253,47.7794104 C86.7081789,47.7265307 86.4389624,47.5269842 86.2971651,47.2411338 L84.919352,44.469932 L83.5420344,47.2411338 C83.4002373,47.5269842 83.1310209,47.7265307 82.8181744,47.7794104 L79.357528,48.3595918 L81.5960407,50.6124716 C81.8226189,50.8404536 81.9257442,51.1642178 81.87319,51.4819956 L81.3069924,54.8972336 L84.4448764,53.1761451 C84.5926233,53.09483 84.7562356,53.0544218 84.919352,53.0544218 Z M89.5976698,55.4819047 L89.5996529,55.4834013 C89.5991571,55.4829024 89.5981656,55.4824036 89.5976698,55.4819047 Z M80.2395467,55.4834013 C80.2385551,55.4839002 80.2380593,55.4843991 80.2370678,55.484898 L80.2395467,55.4834013 Z M80.5236371,57.4075284 C80.2425216,57.4075284 79.9619018,57.3207256 79.7194582,57.1491156 C79.2786967,56.8313378 79.063522,56.3065307 79.1512776,55.7757369 L79.8334909,51.6605896 L77.1423178,48.9522449 C76.7714636,48.5790929 76.6405738,48.0358276 76.8012111,47.5339682 C76.9603611,47.0341042 77.3798036,46.6684353 77.8959256,46.5816327 L81.9941638,45.8941951 L83.6758991,42.5113831 C83.9138804,42.0339682 84.3903391,41.7376418 84.919352,41.7376418 C85.4508438,41.7376418 85.9277982,42.034966 86.1642922,42.5128798 L87.8450358,45.8941951 L91.9427782,46.5816327 C92.4608836,46.6689342 92.8808216,47.035102 93.0394758,47.5379591 C93.1981302,48.0403176 93.0662489,48.583084 92.6958902,48.9537416 L90.0062044,51.6605896 L90.687922,55.775238 C90.7741904,56.3080271 90.5585198,56.8308391 90.1261869,57.1436282 C89.6844338,57.4574149 89.1043542,57.4853516 88.6482231,57.2344218 L84.919352,55.1885713 L81.1884976,57.2354196 C80.979768,57.3506576 80.7512067,57.4075284 80.5236371,57.4075284 Z" id="Fill-30" fill="#0E1944" fill-rule="nonzero"></path>
            <path d="M44.8071393,56.408 C44.7411987,56.408 44.6757538,56.3925351 44.6162584,56.3591111 L40.4109287,54.0518549 L36.2051031,56.3591111 C36.0712387,56.4334422 35.9076264,56.4219682 35.7826862,56.3336689 C35.6582418,56.2438731 35.59478,56.0917189 35.6200656,55.9395647 L36.3860682,51.318068 L33.3339567,48.2470476 C33.2283524,48.1407891 33.1896804,47.9836462 33.2357893,47.8399729 C33.2814024,47.6967982 33.402872,47.5905398 33.5506189,47.5655964 L38.1456431,46.794848 L40.0534609,42.9575691 C40.1213847,42.8218776 40.2597113,42.7355738 40.4109287,42.7355738 C40.5616502,42.7355738 40.7004727,42.8218776 40.7679009,42.9575691 L42.6752227,46.794848 L47.2707429,47.5655964 C47.4184896,47.5905398 47.5399593,47.6958004 47.5855724,47.8399729 C47.6311856,47.9841451 47.5935051,48.1407891 47.4869093,48.2470476 L44.4352936,51.318068 L45.2012962,55.9395647 C45.2260858,56.0917189 45.1626242,56.2438731 45.0391713,56.3336689 C44.9702558,56.3820589 44.8884498,56.408 44.8071393,56.408" id="Fill-32" fill="#FFEBDE" fill-rule="nonzero"></path>
            <path d="M39.8806764,43.4038549 C39.8811722,43.4043538 39.8811722,43.4048527 39.881668,43.4053516 L39.8806764,43.4038549 Z M46.7861036,47.5414513 C46.7846162,47.5429478 46.7831289,47.5439456 46.7821373,47.5454422 L46.7861036,47.5414513 Z M34.8488571,48.3595918 L37.0868738,50.6124716 C37.313452,50.8404536 37.4165773,51.1642178 37.3640231,51.4819956 L36.7978256,54.8977324 L39.9362053,53.1761451 C40.2316989,53.0135147 40.5901584,53.0135147 40.8851562,53.1761451 L44.0230402,54.8972336 L43.4573387,51.4819956 C43.4042887,51.1642178 43.507414,50.8404536 43.733992,50.6124716 L45.9730004,48.3595918 L42.5123542,47.7794104 C42.1995078,47.7265307 41.9302913,47.5269842 41.788494,47.2411338 L40.4106809,44.469932 L39.0328676,47.2411338 C38.8910704,47.5269842 38.621854,47.7265307 38.3090076,47.7794104 L34.8488571,48.3595918 Z M45.085528,55.4799093 L45.0909818,55.4834013 C45.0889987,55.4824036 45.0875113,55.481406 45.085528,55.4799093 Z M35.7308756,55.4834013 C35.729884,55.4839002 35.7293882,55.4843991 35.7283967,55.484898 L35.7308756,55.4834013 Z M36.014966,57.4075284 C35.7338504,57.4075284 35.4532307,57.3207256 35.2107871,57.1491156 C34.7700258,56.8313378 34.5543551,56.3065307 34.6421107,55.7757369 L35.324324,51.6605896 L32.6331509,48.9522449 C32.2622967,48.5790929 32.1314069,48.0358276 32.2920442,47.5339682 C32.4511944,47.0341042 32.8706367,46.6684353 33.3867587,46.5816327 L37.4849969,45.8941951 L39.1667322,42.5113831 C39.4047136,42.0339682 39.8811722,41.7376418 40.4106809,41.7376418 C40.9416769,41.7376418 41.4186313,42.034966 41.6551253,42.5128798 L43.3363647,45.8941951 L47.4336113,46.5816327 C47.9517167,46.6689342 48.3716547,47.035102 48.5303089,47.5379591 C48.6904507,48.0393198 48.5580736,48.5835827 48.185236,48.9557369 L45.4970376,51.6605896 L46.1792509,55.775238 C46.2655193,56.3065307 46.0503444,56.8293424 45.6190031,57.1426304 C45.172788,57.4589116 44.5907251,57.4858504 44.1365773,57.2324262 L40.4106809,55.1885713 L36.6798264,57.2354196 C36.4710969,57.3506576 36.2425356,57.4075284 36.014966,57.4075284 Z" id="Fill-34" fill="#0E1944" fill-rule="nonzero"></path>
        </g>
    </g>
</svg>