<?xml version="1.0" encoding="UTF-8"?>
<svg width="370px" height="238px" viewBox="0 0 370 238" version="1.1" xmlns="http://www.w3.org/2000/svg" xmlns:xlink="http://www.w3.org/1999/xlink">
    <!-- Generator: Sketch 49.3 (51167) - http://www.bohemiancoding.com/sketch -->
    <title>market-map</title>
    <desc>Created with Sketch.</desc>
    <defs>
        <polygon id="path-1" points="0.179777226 153.843125 75.9618974 153.843125 75.9618974 0.100939147 0.179777226 0.100939147 0.179777226 153.843125"></polygon>
        <polygon id="path-3" points="0.0644615385 153.843125 75.8456289 153.843125 75.8456289 0.100734023 0.0644615385 0.100734023"></polygon>
        <polygon id="path-5" points="7.13201023e-05 0.132917286 25.2958161 0.132917286 25.2958161 38.4295251 7.13201023e-05 38.4295251 7.13201023e-05 0.132917286"></polygon>
    </defs>
    <g id="Page-1" stroke="none" stroke-width="1" fill="none" fill-rule="evenodd">
        <g id="market-map" transform="translate(0.000000, -1.000000)">
            <g id="Market-Map" transform="translate(0.000000, 84.000000)">
                <g id="Market-Chart" opacity="0.600000024">
                    <g id="Map" opacity="0.200000003">
                        <polygon id="Fill-1" fill="#FFFFFF" points="125.583692 2.05134422 59.17225 21.8796717 1.18660897 153.742716 111.469141 125.888906"></polygon>
                        <g id="Group-20" transform="translate(0.000000, 0.925110)">
                            <g id="Group-4" fill="#0E1944">
                                <path d="M60.0831378,21.7668534 L3.14227244,151.25456 L110.367561,124.174068 L124.221215,2.61748692 L60.0831378,21.7668534 Z M1.18554167,153.843227 C0.860605769,153.843227 0.542785256,153.727332 0.315092949,153.514003 C0.00913141026,153.227855 -0.0821826923,152.816581 0.0779134615,152.452485 L58.0635545,20.5894407 C58.1880737,20.3053438 58.4525288,20.0838097 58.7845801,19.9843244 L125.197208,0.157022549 C125.579067,0.0421530161 126.001247,0.104715887 126.319067,0.321121882 C126.635702,0.537527877 126.804099,0.879059614 126.763779,1.22674508 L112.649228,125.064307 C112.601792,125.481734 112.266183,125.831471 111.801311,125.948392 L1.51877885,153.802202 C1.40849038,153.829894 1.29701603,153.843227 1.18554167,153.843227 Z" id="Fill-2"></path>
                            </g>
                            <polygon id="Fill-5" fill="#E0E0F0" points="125.583692 1.12623423 184.878564 28.9585067 184.878564 152.817606 111.469141 124.963796"></polygon>
                            <g id="Group-9" transform="translate(110.102564, 0.000000)">
                                <mask id="mask-2" fill="white">
                                    <use xlink:href="#path-1"></use>
                                </mask>
                                <g id="Clip-8"></g>
                                <path d="M2.63074359,124.324013 L73.5901026,151.247586 L73.5901026,29.5689562 L16.4855833,2.76538144 L2.63074359,124.324013 Z M74.776,153.843432 C74.6147179,153.843432 74.45225,153.814715 74.2992692,153.756254 L0.889846154,125.90347 C0.419044872,125.725012 0.135615385,125.305533 0.185423077,124.86349 L14.3011603,1.02592852 C14.3402949,0.683371159 14.5739167,0.380813014 14.9249423,0.220816165 C15.2771538,0.0597936944 15.6969615,0.0608193152 16.0468013,0.224918648 L75.3416731,28.0571911 C75.7235321,28.2356491 75.9618974,28.582309 75.9618974,28.9587118 L75.9618974,152.817811 C75.9618974,153.164471 75.7602949,153.486516 75.4246859,153.676256 C75.2290128,153.787023 75.0025064,153.843432 74.776,153.843432 Z" id="Fill-7" fill="#0E1944" mask="url(#mask-2)"></path>
                            </g>
                            <polygon id="Fill-10" fill="#E0E0F0" points="244.173436 1.12623423 310.584878 20.9545617 368.570519 152.817606 258.287987 124.963796"></polygon>
                            <g id="Group-14" transform="translate(242.923077, 0.000000)" fill="#0E1944">
                                <path d="M16.466609,124.17376 L123.691897,151.255278 L66.7498462,21.7665458 L2.61176923,2.61717923 L16.466609,124.17376 Z M125.647442,153.842919 C125.537154,153.842919 125.425679,153.829586 125.315391,153.801895 L15.032859,125.948084 C14.5679872,125.831163 14.2323782,125.481427 14.1849423,125.065025 L0.0703910256,1.22746301 C0.0312564103,0.879777548 0.198467949,0.538245812 0.515102564,0.321839817 C0.832923077,0.104408201 1.25510256,0.0428709507 1.63696154,0.156714863 L68.0484038,19.9850424 C68.3804551,20.083502 68.6449103,20.3060617 68.7694295,20.589133 L126.756256,152.453203 C126.916353,152.816273 126.825038,153.227547 126.519077,153.513695 C126.290199,153.727024 125.973564,153.842919 125.647442,153.842919 Z" id="Fill-12"></path>
                            </g>
                            <polygon id="Fill-15" fill="#FFFFFF" points="244.173436 1.12623423 184.878564 28.9585067 184.878564 152.817606 258.287987 124.963796"></polygon>
                            <g id="Group-19" transform="translate(183.628205, 0.000000)">
                                <mask id="mask-4" fill="white">
                                    <use xlink:href="#path-3"></use>
                                </mask>
                                <g id="Clip-18"></g>
                                <path d="M2.43625641,29.5687511 L2.43625641,151.247381 L73.3956154,124.323808 L59.5395897,2.76517632 L2.43625641,29.5687511 Z M1.25035897,153.843227 C1.02385256,153.843227 0.797346154,153.786818 0.601673077,153.676051 C0.266064103,153.486311 0.0644615385,153.164266 0.0644615385,152.817606 L0.0644615385,28.9585067 C0.0644615385,28.5821039 0.302826923,28.2364696 0.684685897,28.056986 L59.9795577,0.224713524 C60.3282115,0.0606141911 60.7515769,0.0595885702 61.1014167,0.220611041 C61.4524423,0.381633511 61.6860641,0.683166035 61.7251987,1.02572339 L75.83975,124.863285 C75.8907436,125.305327 75.6061282,125.724806 75.1365128,125.903264 L1.72708974,153.756049 C1.57410897,153.81451 1.41164103,153.843227 1.25035897,153.843227 Z" id="Fill-17" fill="#0E1944" mask="url(#mask-4)"></path>
                            </g>
                        </g>
                    </g>
                </g>
                <path d="M61.7148438,99.9414062 C95.1445312,46.1523437 226.402344,14.8828125 296,59" id="Path-2" stroke="#0F183E" stroke-width="1.10344828" stroke-dasharray="4.413793103448276,6.620689655172414"></path>
                <g id="Group-10-Copy" transform="translate(283.344828, 26.535211)">
                    <ellipse id="Oval-4-Copy" fill="#FFE0CC" cx="13.0989989" cy="38.7822319" rx="12.2803115" ry="3.23185265"></ellipse>
                    <g id="Page-1-Copy-3">
                        <path d="M12.6497103,8.06268498 C10.352331,8.05457596 8.46138851,9.82692396 8.46249195,12.0720626 C8.4635954,14.2442202 10.2294805,16.082498 12.6478713,16.0849659 C15.0530207,16.0870813 16.8288368,14.254092 16.8361931,12.074178 C16.8439172,9.85583435 14.9676874,8.06303754 12.6497103,8.06268498 M12.6728828,37.9355805 C12.6191816,37.7042973 12.5687908,37.4832386 12.5165609,37.262885 C11.8066759,34.25973 10.6719632,31.4078257 9.19444598,28.677204 C8.32750345,27.0740876 7.34911264,25.5340804 6.32805517,24.0176952 C5.45191724,22.7156699 4.54929655,21.4284523 3.71288276,20.1031577 C3.03426207,19.0278322 2.41154943,17.9179552 1.81164138,16.7996167 C1.31913563,15.881888 1.02377931,14.8925886 0.858629885,13.8690902 C0.741296552,13.1392791 0.7104,12.4048847 0.754905747,11.6715479 C0.936974713,8.66028391 2.19453793,6.12533621 4.48713563,4.06458944 C5.73476782,2.94307781 7.18212414,2.13817021 8.80750345,1.62800758 C9.44897471,1.42669254 10.1047908,1.2768521 10.772377,1.18377474 C11.5775264,1.0709537 12.3892966,1.03322917 13.2014345,1.0730691 C14.7565609,1.14957587 16.2502621,1.48698128 17.674446,2.09409949 C19.2972506,2.78548092 20.6828138,3.77971632 21.820469,5.08844036 C22.812469,6.23004824 23.5675954,7.49787465 24.0332506,8.91836204 C24.2594575,9.60903833 24.4036414,10.3162852 24.4838253,11.036577 C24.5518713,11.6461632 24.5820322,12.2568071 24.542308,12.8670984 C24.4617563,14.120117 24.180377,15.3287124 23.6297563,16.4756088 C22.6241471,18.5691442 21.4191816,20.5512688 20.0773885,22.4618225 C18.9007448,24.1361573 17.7755954,25.8425755 16.7468138,27.6057567 C15.3377103,30.0208321 14.1765149,32.5367412 13.3754115,35.1996703 C13.1069057,36.0923668 12.8696644,36.9924671 12.6953195,37.9070226 C12.6942161,37.9126637 12.6872276,37.9172471 12.6728828,37.9355805" id="Fill-1" fill="#FFE0CC"></path>
                        <g id="Group-5" transform="translate(0.000000, 0.219648)">
                            <mask id="mask-6" fill="white">
                                <use xlink:href="#path-5"></use>
                            </mask>
                            <g id="Clip-4"></g>
                            <path d="M12.633931,8.54816801 C11.7169655,8.54816801 10.8555402,8.88874651 10.2067126,9.50855709 C9.55604598,10.1304831 9.1977931,10.9628908 9.19816092,11.8520616 C9.19926437,13.7051471 10.7146667,15.1584231 12.6486437,15.160186 L12.6523218,15.160186 C14.580046,15.160186 16.0943448,13.7079677 16.1005977,11.8524142 C16.103908,10.9720575 15.7489655,10.1445857 15.1012414,9.52160203 C14.4487356,8.894035 13.5781149,8.54816801 12.6493793,8.54816801 C12.6442299,8.54816801 12.6394483,8.54816801 12.633931,8.54816801 M12.6523218,16.5704489 L12.6471724,16.5704489 C9.88965517,16.5676284 7.72836782,14.4955995 7.72689655,11.8527667 C7.72616092,10.5856454 8.23816092,9.39855658 9.16836782,8.50973834 C10.0945287,7.62479832 11.3245057,7.13790503 12.633931,7.13790503 L12.6504828,7.13790503 C13.9727816,7.13825759 15.2130575,7.63149707 16.1436322,8.52630893 C17.0690575,9.41653743 17.5762759,10.5993955 17.5718621,11.8569975 C17.5630345,14.5005355 15.4021149,16.5700964 12.6523218,16.5704489 M12.5765517,1.54303924 C12.0112184,1.54303924 11.4425747,1.58287916 10.8787126,1.66185389 C10.2629885,1.74787993 9.64321839,1.88784853 9.03632184,2.0785866 C7.49885057,2.5612491 6.1371954,3.32843216 4.99034483,4.3593344 C2.83641379,6.2952729 1.65829885,8.69518792 1.48910345,11.4927971 C1.4468046,12.1922875 1.47954023,12.8815536 1.58583908,13.5419092 C1.75245977,14.5763371 2.04045977,15.4644502 2.46565517,16.2573706 C3.16708046,17.5646843 3.76331034,18.6008751 4.34262069,19.5186037 C4.93664368,20.4603068 5.57848276,21.4030676 6.19935632,22.3148026 C6.44910345,22.6811184 6.69885057,23.0477868 6.9463908,23.4155129 C8.15871264,25.2164187 9.08082759,26.7155282 9.84772414,28.1331951 C11.0317241,30.3212181 11.9755402,32.5543695 12.6648276,34.7959825 C12.6662989,34.7924569 12.6674023,34.7885786 12.6685057,34.7847004 C13.4431264,32.2099128 14.5671724,29.6774331 16.1050115,27.0420041 C17.049931,25.4219645 18.150069,23.7233028 19.4672184,21.8483581 C20.8858851,19.8288616 22.0286897,17.9031475 22.9614713,15.9612153 C23.4514023,14.9405375 23.7283678,13.8426478 23.8081839,12.6037318 C23.8416552,12.0875755 23.8232644,11.5273485 23.7526437,10.8920251 C23.6731954,10.1809 23.5356322,9.53288413 23.3311264,8.91025302 C22.9118161,7.63043937 22.2133333,6.4229017 21.2551724,5.32007605 C20.203954,4.11042298 18.8985747,3.16766218 17.3754483,2.51858865 C16.0487356,1.9530732 14.631908,1.62977041 13.1635862,1.55749443 C12.9686437,1.54797516 12.7725977,1.54303924 12.5765517,1.54303924 M12.6725517,38.4295251 C12.6188506,38.4295251 12.5647816,38.4242366 12.5103448,38.4129545 C12.230069,38.3547811 12.0171034,38.1376006 11.9549425,37.8692981 L11.7989885,37.1994232 C11.1317701,34.3757242 10.036046,31.5439161 8.5416092,28.7822686 C7.79678161,27.4051468 6.89673563,25.9427041 5.71016092,24.180228 C5.46409195,23.8146173 5.21581609,23.4500643 4.96754023,23.0855113 C4.33967816,22.1639045 3.69085057,21.2109193 3.08358621,20.2484148 C2.48662069,19.3024809 1.87457471,18.2391426 1.15733333,16.9025659 C0.658574713,15.97285 0.322758621,14.9437106 0.131862069,13.7569743 C0.00974712644,12.998958 -0.0277701149,12.2095633 0.0204137931,11.4113544 C0.212045977,8.24073068 1.54574713,5.52209622 3.984,3.33054756 C5.28901149,2.15756133 6.83494253,1.28531368 8.57875862,0.738131642 C9.26510345,0.522713972 9.96763218,0.364059387 10.6661149,0.266398676 C11.5209195,0.146526323 12.386023,0.10703896 13.2393563,0.148994283 C14.8882759,0.23043697 16.4809195,0.593932253 17.9731494,1.22996085 C19.704092,1.96752839 21.1885977,3.04003339 22.3858391,4.41750775 C23.4672184,5.66206482 24.2576552,7.03143017 24.7350805,8.4875267 C24.9653333,9.19019023 25.1271724,9.94855914 25.2154483,10.7421846 C25.2952644,11.457188 25.3154943,12.0946268 25.2768736,12.6911681 C25.1867586,14.0869758 24.8571954,15.3854755 24.2977471,16.5507053 C23.3318621,18.5624454 22.1508046,20.5530316 20.6876322,22.63599 C19.3929195,24.4784986 18.3141149,26.1447243 17.3890575,27.7302124 C15.9067586,30.2704486 14.8253793,32.7059728 14.0823908,35.1753433 C13.7881379,36.1526555 13.5711264,37.0157364 13.4188506,37.8142979 C13.3956782,37.935933 13.3309425,38.0621516 13.2470805,38.1562866 C13.1076782,38.3332746 12.8961839,38.4295251 12.6725517,38.4295251" id="Fill-3" fill="#0F183E" mask="url(#mask-6)"></path>
                        </g>
                    </g>
                </g>
                <g id="Group-18" transform="translate(45.103448, 83.816901)">
                    <ellipse id="Oval-4-Copy" fill="#E0E0F0" cx="15.5906563" cy="36.823402" rx="12.2803115" ry="3.23185265"></ellipse>
                    <ellipse id="Oval" stroke="#0F183E" stroke-width="1.10344828" fill="#E0E0F0" cx="16.5517241" cy="16.584507" rx="16.5517241" ry="16.584507"></ellipse>
                    <ellipse id="Oval" fill="#0F183E" cx="16.5517241" cy="16.584507" rx="3.31034483" ry="3.31690141"></ellipse>
                </g>
            </g>
            <g id="Group-8" transform="translate(67.000000, 0.000000)">
                <path d="M19.542,15 L19.542,6.236 L16.168,6.236 L16.168,5.032 L24.372,5.032 L24.372,6.236 L20.998,6.236 L20.998,15 L19.542,15 Z M29.328,7.776 C31.0173418,7.776 31.862,8.71865724 31.862,10.604 L31.862,15 L30.448,15 L30.448,10.688 C30.448,10.0719969 30.3290012,9.6240014 30.091,9.344 C29.8529988,9.0639986 29.4726693,8.924 28.95,8.924 C28.3526637,8.924 27.8743351,9.1106648 27.515,9.484 C27.1556649,9.8573352 26.976,10.3566635 26.976,10.982 L26.976,15 L25.576,15 L25.576,4.696 L26.976,4.696 L26.976,9.036 C27.2093345,8.62533128 27.5313313,8.31266774 27.942,8.098 C28.3526687,7.88333226 28.8146641,7.776 29.328,7.776 Z M39.898,11.5 L34.858,11.5 C34.9046669,13.1520083 35.6559927,13.978 37.112,13.978 C37.9240041,13.978 38.6659966,13.7120027 39.338,13.18 L39.772,14.188 C39.4546651,14.4680014 39.0510024,14.6896658 38.561,14.853 C38.0709976,15.0163341 37.5786691,15.098 37.084,15.098 C35.954661,15.098 35.0680032,14.7736699 34.424,14.125 C33.7799968,13.4763301 33.458,12.587339 33.458,11.458 C33.458,10.7393297 33.6003319,10.1000028 33.885,9.54 C34.1696681,8.9799972 34.5686641,8.54600154 35.082,8.238 C35.5953359,7.92999846 36.1786634,7.776 36.832,7.776 C37.7840048,7.776 38.5329973,8.08399692 39.079,8.7 C39.6250027,9.31600308 39.898,10.1699945 39.898,11.262 L39.898,11.5 Z M36.86,8.826 C36.3279973,8.826 35.8940017,8.98466508 35.558,9.302 C35.2219983,9.61933492 35.0073338,10.0719971 34.914,10.66 L38.652,10.66 C38.5959997,10.0626637 38.4140015,9.60766823 38.106,9.295 C37.7979985,8.98233177 37.3826693,8.826 36.86,8.826 Z M53.31,7.776 C54.8780078,7.776 55.662,8.71865724 55.662,10.604 L55.662,15 L54.248,15 L54.248,10.674 C54.248,10.0673303 54.143001,9.6240014 53.933,9.344 C53.722999,9.0639986 53.384669,8.924 52.918,8.924 C52.376664,8.924 51.9496682,9.1106648 51.637,9.484 C51.3243318,9.8573352 51.168,10.3659968 51.168,11.01 L51.168,15 L49.754,15 L49.754,10.674 C49.754,10.0673303 49.649001,9.6240014 49.439,9.344 C49.2289989,9.0639986 48.890669,8.924 48.424,8.924 C47.882664,8.924 47.4533349,9.1106648 47.136,9.484 C46.8186651,9.8573352 46.66,10.3659968 46.66,11.01 L46.66,15 L45.26,15 L45.26,9.932 C45.26,9.19466298 45.222667,8.53200294 45.148,7.944 L46.464,7.944 L46.59,9.12 C46.7953344,8.69066452 47.0893314,8.3593345 47.472,8.126 C47.8546686,7.8926655 48.3026641,7.776 48.816,7.776 C49.9080055,7.776 50.6219983,8.22866214 50.958,9.134 C51.1726677,8.7139979 51.4876646,8.38266788 51.903,8.14 C52.3183354,7.89733212 52.7873307,7.776 53.31,7.776 Z M64.146,7.944 L64.146,15 L62.746,15 L62.746,13.796 C62.5406656,14.2160021 62.235002,14.5379989 61.829,14.762 C61.422998,14.9860011 60.949336,15.098 60.408,15.098 C59.7826635,15.098 59.2343357,14.9486682 58.763,14.65 C58.2916643,14.3513318 57.9253346,13.9290027 57.664,13.383 C57.4026654,12.8369973 57.272,12.2000036 57.272,11.472 C57.272,10.7439964 57.4049987,10.1000028 57.671,9.54 C57.9370013,8.9799972 58.3079976,8.54600154 58.784,8.238 C59.2600024,7.92999846 59.8013303,7.776 60.408,7.776 C60.949336,7.776 61.4206647,7.89033219 61.822,8.119 C62.2233353,8.34766781 62.5313323,8.6719979 62.746,9.092 L62.746,7.944 L64.146,7.944 Z M60.744,13.978 C61.3786698,13.978 61.8709982,13.7563356 62.221,13.313 C62.5710017,12.8696645 62.746,12.2466707 62.746,11.444 C62.746,10.6319959 62.5710017,10.0066689 62.221,9.568 C61.8709982,9.12933114 61.3740032,8.91 60.73,8.91 C60.0953302,8.91 59.5983351,9.13633107 59.239,9.589 C58.8796649,10.0416689 58.7,10.6693293 58.7,11.472 C58.7,12.2653373 58.8796649,12.8813311 59.239,13.32 C59.5983351,13.7586689 60.0999968,13.978 60.744,13.978 Z M64.37,16.792 C64.6313346,16.866667 64.859999,16.904 65.056,16.904 C65.8306705,16.904 66.218,16.4606711 66.218,15.574 L66.218,7.944 L67.618,7.944 L67.618,15.686 C67.618,16.4700039 67.422002,17.0673313 67.03,17.478 C66.637998,17.8886687 66.0873369,18.094 65.378,18.094 C65.0139982,18.094 64.6780015,18.0473338 64.37,17.954 L64.37,16.792 Z M66.092,4.864 L67.73,4.864 L67.73,6.348 L66.092,6.348 L66.092,4.864 Z M72.728,15.098 C72.0373299,15.098 71.4306693,14.9486682 70.908,14.65 C70.3853307,14.3513318 69.9816681,13.9266694 69.697,13.376 C69.4123319,12.8253306 69.27,12.181337 69.27,11.444 C69.27,10.706663 69.4123319,10.0603361 69.697,9.505 C69.9816681,8.94966389 70.3853307,8.52266816 70.908,8.224 C71.4306693,7.92533184 72.0373299,7.776 72.728,7.776 C73.4093367,7.776 74.0113307,7.92533184 74.534,8.224 C75.0566693,8.52266816 75.4603319,8.94966389 75.745,9.505 C76.0296681,10.0603361 76.172,10.706663 76.172,11.444 C76.172,12.181337 76.0296681,12.8253306 75.745,13.376 C75.4603319,13.9266694 75.0566693,14.3513318 74.534,14.65 C74.0113307,14.9486682 73.4093367,15.098 72.728,15.098 Z M72.714,13.978 C73.3673366,13.978 73.8666649,13.7633355 74.212,13.334 C74.5573351,12.9046645 74.73,12.2746708 74.73,11.444 C74.73,10.6319959 74.5550017,10.0066689 74.205,9.568 C73.8549982,9.12933114 73.3626698,8.91 72.728,8.91 C72.0839968,8.91 71.5846684,9.12933114 71.23,9.568 C70.8753316,10.0066689 70.698,10.6319959 70.698,11.444 C70.698,12.2746708 70.8729982,12.9046645 71.223,13.334 C71.5730017,13.7633355 72.0699968,13.978 72.714,13.978 Z M81.338,7.776 C81.5526677,7.776 81.7766655,7.80866634 82.01,7.874 L81.982,9.162 C81.7299987,9.0686662 81.4546682,9.022 81.156,9.022 C80.5119968,9.022 80.0290016,9.21566473 79.707,9.603 C79.3849984,9.99033527 79.224,10.4779971 79.224,11.066 L79.224,15 L77.824,15 L77.824,9.932 C77.824,9.19466298 77.786667,8.53200294 77.712,7.944 L79.028,7.944 L79.154,9.218 C79.3406676,8.751331 79.629998,8.39433457 80.022,8.147 C80.414002,7.89966543 80.8526642,7.776 81.338,7.776 Z M83.088,15 L83.088,7.944 L84.488,7.944 L84.488,15 L83.088,15 Z M82.962,4.864 L84.6,4.864 L84.6,6.348 L82.962,6.348 L82.962,4.864 Z M88.394,9.036 L88.394,12.578 C88.394,13.0633358 88.498999,13.4063323 88.709,13.607 C88.9190011,13.8076677 89.2106648,13.908 89.584,13.908 C89.8266679,13.908 90.0739987,13.870667 90.326,13.796 L90.326,14.944 C90.0179985,15.0466672 89.668002,15.098 89.276,15.098 C88.5479964,15.098 87.9833353,14.8926687 87.582,14.482 C87.1806647,14.0713313 86.98,13.4740039 86.98,12.69 L86.98,9.036 L85.608,9.036 L85.608,7.944 L86.98,7.944 L86.98,6.18 L88.394,5.69 L88.394,7.944 L90.34,7.944 L90.34,9.036 L88.394,9.036 Z M98.152,7.944 L94.862,15.574 C94.4979982,16.4046708 94.0430027,17.0136647 93.497,17.401 C92.9509973,17.7883353 92.2766707,18.0473327 91.474,18.178 L91.166,17.086 C91.82867,16.9366659 92.3303316,16.7430012 92.671,16.505 C93.0116684,16.2669988 93.2846656,15.9100024 93.49,15.434 L93.742,14.846 L90.774,7.944 L92.272,7.944 L94.484,13.404 L96.738,7.944 L98.152,7.944 Z M106.02,15.098 C105.32933,15.098 104.722669,14.9486682 104.2,14.65 C103.677331,14.3513318 103.273668,13.9266694 102.989,13.376 C102.704332,12.8253306 102.562,12.181337 102.562,11.444 C102.562,10.706663 102.704332,10.0603361 102.989,9.505 C103.273668,8.94966389 103.677331,8.52266816 104.2,8.224 C104.722669,7.92533184 105.32933,7.776 106.02,7.776 C106.701337,7.776 107.303331,7.92533184 107.826,8.224 C108.348669,8.52266816 108.752332,8.94966389 109.037,9.505 C109.321668,10.0603361 109.464,10.706663 109.464,11.444 C109.464,12.181337 109.321668,12.8253306 109.037,13.376 C108.752332,13.9266694 108.348669,14.3513318 107.826,14.65 C107.303331,14.9486682 106.701337,15.098 106.02,15.098 Z M106.006,13.978 C106.659337,13.978 107.158665,13.7633355 107.504,13.334 C107.849335,12.9046645 108.022,12.2746708 108.022,11.444 C108.022,10.6319959 107.847002,10.0066689 107.497,9.568 C107.146998,9.12933114 106.65467,8.91 106.02,8.91 C105.375997,8.91 104.876668,9.12933114 104.522,9.568 C104.167332,10.0066689 103.99,10.6319959 103.99,11.444 C103.99,12.2746708 104.164998,12.9046645 104.515,13.334 C104.865002,13.7633355 105.361997,13.978 106.006,13.978 Z M114.07,5.83 C113.295329,5.83 112.908,6.2733289 112.908,7.16 L112.908,7.944 L114.56,7.944 L114.56,9.036 L112.908,9.036 L112.908,15 L111.494,15 L111.494,9.036 L110.136,9.036 L110.136,7.944 L111.494,7.944 L111.494,7.048 C111.494,6.26399608 111.692331,5.66666872 112.089,5.256 C112.485669,4.84533128 113.04333,4.64 113.762,4.64 C114.135335,4.64 114.475998,4.6866662 114.784,4.78 L114.784,5.942 C114.531999,5.86733296 114.294001,5.83 114.07,5.83 Z M127.86,15 L126.334,15 L125.088,11.682 C124.957333,11.3273316 124.766001,11.082334 124.514,10.947 C124.261999,10.811666 123.916669,10.744 123.478,10.744 L121.294,10.744 L121.294,15 L119.866,15 L119.866,5.032 L123.968,5.032 C125.060005,5.032 125.897664,5.27466424 126.481,5.76 C127.064336,6.24533576 127.356,6.94066214 127.356,7.846 C127.356,8.4993366 127.183335,9.05466438 126.838,9.512 C126.492665,9.96933562 126.00267,10.2913324 125.368,10.478 C125.94667,10.5806672 126.366665,10.9913297 126.628,11.71 L127.86,15 Z M123.8,9.582 C124.528004,9.582 125.069332,9.43966809 125.424,9.155 C125.778668,8.87033191 125.956,8.44333618 125.956,7.874 C125.956,7.30466382 125.781002,6.88233471 125.431,6.607 C125.080998,6.33166529 124.537337,6.194 123.8,6.194 L121.294,6.194 L121.294,9.582 L123.8,9.582 Z M132.536,15.098 C131.84533,15.098 131.238669,14.9486682 130.716,14.65 C130.193331,14.3513318 129.789668,13.9266694 129.505,13.376 C129.220332,12.8253306 129.078,12.181337 129.078,11.444 C129.078,10.706663 129.220332,10.0603361 129.505,9.505 C129.789668,8.94966389 130.193331,8.52266816 130.716,8.224 C131.238669,7.92533184 131.84533,7.776 132.536,7.776 C133.217337,7.776 133.819331,7.92533184 134.342,8.224 C134.864669,8.52266816 135.268332,8.94966389 135.553,9.505 C135.837668,10.0603361 135.98,10.706663 135.98,11.444 C135.98,12.181337 135.837668,12.8253306 135.553,13.376 C135.268332,13.9266694 134.864669,14.3513318 134.342,14.65 C133.819331,14.9486682 133.217337,15.098 132.536,15.098 Z M132.522,13.978 C133.175337,13.978 133.674665,13.7633355 134.02,13.334 C134.365335,12.9046645 134.538,12.2746708 134.538,11.444 C134.538,10.6319959 134.363002,10.0066689 134.013,9.568 C133.662998,9.12933114 133.17067,8.91 132.536,8.91 C131.891997,8.91 131.392668,9.12933114 131.038,9.568 C130.683332,10.0066689 130.506,10.6319959 130.506,11.444 C130.506,12.2746708 130.680998,12.9046645 131.031,13.334 C131.381002,13.7633355 131.877997,13.978 132.522,13.978 Z M140.67,15.098 C139.97933,15.098 139.372669,14.9486682 138.85,14.65 C138.327331,14.3513318 137.923668,13.9266694 137.639,13.376 C137.354332,12.8253306 137.212,12.181337 137.212,11.444 C137.212,10.706663 137.354332,10.0603361 137.639,9.505 C137.923668,8.94966389 138.327331,8.52266816 138.85,8.224 C139.372669,7.92533184 139.97933,7.776 140.67,7.776 C141.351337,7.776 141.953331,7.92533184 142.476,8.224 C142.998669,8.52266816 143.402332,8.94966389 143.687,9.505 C143.971668,10.0603361 144.114,10.706663 144.114,11.444 C144.114,12.181337 143.971668,12.8253306 143.687,13.376 C143.402332,13.9266694 142.998669,14.3513318 142.476,14.65 C141.953331,14.9486682 141.351337,15.098 140.67,15.098 Z M140.656,13.978 C141.309337,13.978 141.808665,13.7633355 142.154,13.334 C142.499335,12.9046645 142.672,12.2746708 142.672,11.444 C142.672,10.6319959 142.497002,10.0066689 142.147,9.568 C141.796998,9.12933114 141.30467,8.91 140.67,8.91 C140.025997,8.91 139.526668,9.12933114 139.172,9.568 C138.817332,10.0066689 138.64,10.6319959 138.64,11.444 C138.64,12.2746708 138.814998,12.9046645 139.165,13.334 C139.515002,13.7633355 140.011997,13.978 140.656,13.978 Z M148.72,5.83 C147.945329,5.83 147.558,6.2733289 147.558,7.16 L147.558,7.944 L149.21,7.944 L149.21,9.036 L147.558,9.036 L147.558,15 L146.144,15 L146.144,9.036 L144.786,9.036 L144.786,7.944 L146.144,7.944 L146.144,7.048 C146.144,6.26399608 146.342331,5.66666872 146.739,5.256 C147.135669,4.84533128 147.69333,4.64 148.412,4.64 C148.785335,4.64 149.125998,4.6866662 149.434,4.78 L149.434,5.942 C149.181999,5.86733296 148.944001,5.83 148.72,5.83 Z M153.046,15.098 C151.813994,15.098 150.843337,14.7993363 150.134,14.202 L150.554,13.18 C151.291337,13.7400028 152.135995,14.02 153.088,14.02 C153.573336,14.02 153.941999,13.9383342 154.194,13.775 C154.446001,13.6116659 154.572,13.3806682 154.572,13.082 C154.572,12.8299987 154.485668,12.6316674 154.313,12.487 C154.140332,12.3423326 153.848669,12.2186672 153.438,12.116 L152.262,11.836 C151.645997,11.7053327 151.177002,11.474335 150.855,11.143 C150.532998,10.811665 150.372,10.3986691 150.372,9.904 C150.372,9.26933016 150.626331,8.75600196 151.135,8.364 C151.643669,7.97199804 152.317996,7.776 153.158,7.776 C153.662003,7.776 154.140331,7.85533254 154.593,8.014 C155.045669,8.17266746 155.430665,8.39666522 155.748,8.686 L155.314,9.68 C154.632663,9.13866396 153.914004,8.868 153.158,8.868 C152.700664,8.868 152.346001,8.95433247 152.094,9.127 C151.841999,9.29966753 151.716,9.53999846 151.716,9.848 C151.716,10.0906679 151.795333,10.2866659 151.954,10.436 C152.112667,10.5853341 152.364665,10.7019996 152.71,10.786 L153.914,11.08 C154.586003,11.2293341 155.082998,11.4649984 155.405,11.787 C155.727002,12.1090016 155.888,12.5266641 155.888,13.04 C155.888,13.6746698 155.633669,14.1763315 155.125,14.545 C154.616331,14.9136685 153.923338,15.098 153.046,15.098 Z M159.318,9.036 L159.318,12.578 C159.318,13.0633358 159.422999,13.4063323 159.633,13.607 C159.843001,13.8076677 160.134665,13.908 160.508,13.908 C160.750668,13.908 160.997999,13.870667 161.25,13.796 L161.25,14.944 C160.941998,15.0466672 160.592002,15.098 160.2,15.098 C159.471996,15.098 158.907335,14.8926687 158.506,14.482 C158.104665,14.0713313 157.904,13.4740039 157.904,12.69 L157.904,9.036 L156.532,9.036 L156.532,7.944 L157.904,7.944 L157.904,6.18 L159.318,5.69 L159.318,7.944 L161.264,7.944 L161.264,9.036 L159.318,9.036 Z M165.604,15.098 C164.91333,15.098 164.306669,14.9486682 163.784,14.65 C163.261331,14.3513318 162.857668,13.9266694 162.573,13.376 C162.288332,12.8253306 162.146,12.181337 162.146,11.444 C162.146,10.706663 162.288332,10.0603361 162.573,9.505 C162.857668,8.94966389 163.261331,8.52266816 163.784,8.224 C164.306669,7.92533184 164.91333,7.776 165.604,7.776 C166.285337,7.776 166.887331,7.92533184 167.41,8.224 C167.932669,8.52266816 168.336332,8.94966389 168.621,9.505 C168.905668,10.0603361 169.048,10.706663 169.048,11.444 C169.048,12.181337 168.905668,12.8253306 168.621,13.376 C168.336332,13.9266694 167.932669,14.3513318 167.41,14.65 C166.887331,14.9486682 166.285337,15.098 165.604,15.098 Z M165.59,13.978 C166.243337,13.978 166.742665,13.7633355 167.088,13.334 C167.433335,12.9046645 167.606,12.2746708 167.606,11.444 C167.606,10.6319959 167.431002,10.0066689 167.081,9.568 C166.730998,9.12933114 166.23867,8.91 165.604,8.91 C164.959997,8.91 164.460668,9.12933114 164.106,9.568 C163.751332,10.0066689 163.574,10.6319959 163.574,11.444 C163.574,12.2746708 163.748998,12.9046645 164.099,13.334 C164.449002,13.7633355 164.945997,13.978 165.59,13.978 Z M173.766,15.098 C173.056663,15.098 172.438336,14.9486682 171.911,14.65 C171.383664,14.3513318 170.980001,13.9290027 170.7,13.383 C170.419999,12.8369973 170.28,12.2000036 170.28,11.472 C170.28,10.7439964 170.426999,10.1000028 170.721,9.54 C171.015001,8.9799972 171.427997,8.54600154 171.96,8.238 C172.492003,7.92999846 173.112663,7.776 173.822,7.776 C174.316669,7.776 174.792664,7.85766585 175.25,8.021 C175.707336,8.18433415 176.075999,8.4059986 176.356,8.686 L175.922,9.708 C175.25933,9.18533072 174.592003,8.924 173.92,8.924 C173.238663,8.924 172.706669,9.14566445 172.324,9.589 C171.941331,10.0323355 171.75,10.6553293 171.75,11.458 C171.75,12.2606707 171.941331,12.8789978 172.324,13.313 C172.706669,13.7470022 173.238663,13.964 173.92,13.964 C174.61067,13.964 175.277997,13.7026693 175.922,13.18 L176.356,14.202 C176.057332,14.4820014 175.677002,14.7013325 175.215,14.86 C174.752998,15.0186675 174.270003,15.098 173.766,15.098 Z M184.266,15 L182.46,15 L179.086,11.668 L179.086,15 L177.686,15 L177.686,4.696 L179.086,4.696 L179.086,11.136 L182.222,7.958 L183.972,7.958 L180.598,11.346 L184.266,15 Z M192.596,7.776 C193.212003,7.776 193.757998,7.92533184 194.234,8.224 C194.710002,8.52266816 195.078665,8.94733058 195.34,9.498 C195.601335,10.0486694 195.732,10.6879964 195.732,11.416 C195.732,12.1440036 195.599001,12.7856639 195.333,13.341 C195.066999,13.8963361 194.696002,14.3279985 194.22,14.636 C193.743998,14.9440015 193.20267,15.098 192.596,15.098 C192.054664,15.098 191.581002,14.9836678 191.175,14.755 C190.768998,14.5263322 190.463334,14.1973355 190.258,13.768 L190.258,15 L188.858,15 L188.858,4.696 L190.258,4.696 L190.258,9.106 C190.463334,8.6859979 190.768998,8.3593345 191.175,8.126 C191.581002,7.8926655 192.054664,7.776 192.596,7.776 Z M192.274,13.978 C192.90867,13.978 193.403332,13.7516689 193.758,13.299 C194.112668,12.8463311 194.29,12.2186707 194.29,11.416 C194.29,10.6226627 194.112668,10.0066689 193.758,9.568 C193.403332,9.12933114 192.90867,8.91 192.274,8.91 C191.629997,8.91 191.133002,9.12933114 190.783,9.568 C190.432998,10.0066689 190.258,10.6319959 190.258,11.444 C190.258,12.2560041 190.432998,12.8813311 190.783,13.32 C191.133002,13.7586689 191.629997,13.978 192.274,13.978 Z M203.516,7.944 L203.516,15 L202.144,15 L202.144,13.824 C201.919999,14.2346687 201.612002,14.5496656 201.22,14.769 C200.827998,14.9883344 200.384669,15.098 199.89,15.098 C198.191325,15.098 197.342,14.1553428 197.342,12.27 L197.342,7.944 L198.742,7.944 L198.742,12.256 C198.742,12.8346696 198.860999,13.2616653 199.099,13.537 C199.337001,13.8123347 199.698664,13.95 200.184,13.95 C200.76267,13.95 201.226998,13.7633352 201.577,13.39 C201.927002,13.0166648 202.102,12.5220031 202.102,11.906 L202.102,7.944 L203.516,7.944 Z M212,7.944 L208.71,15.574 C208.345998,16.4046708 207.891003,17.0136647 207.345,17.401 C206.798997,17.7883353 206.124671,18.0473327 205.322,18.178 L205.014,17.086 C205.67667,16.9366659 206.178332,16.7430012 206.519,16.505 C206.859668,16.2669988 207.132666,15.9100024 207.338,15.434 L207.59,14.846 L204.622,7.944 L206.12,7.944 L208.332,13.404 L210.586,7.944 L212,7.944 Z M219.014,11.5 L213.974,11.5 C214.020667,13.1520083 214.771993,13.978 216.228,13.978 C217.040004,13.978 217.781997,13.7120027 218.454,13.18 L218.888,14.188 C218.570665,14.4680014 218.167002,14.6896658 217.677,14.853 C217.186998,15.0163341 216.694669,15.098 216.2,15.098 C215.070661,15.098 214.184003,14.7736699 213.54,14.125 C212.895997,13.4763301 212.574,12.587339 212.574,11.458 C212.574,10.7393297 212.716332,10.1000028 213.001,9.54 C213.285668,8.9799972 213.684664,8.54600154 214.198,8.238 C214.711336,7.92999846 215.294663,7.776 215.948,7.776 C216.900005,7.776 217.648997,8.08399692 218.195,8.7 C218.741003,9.31600308 219.014,10.1699945 219.014,11.262 L219.014,11.5 Z M215.976,8.826 C215.443997,8.826 215.010002,8.98466508 214.674,9.302 C214.337998,9.61933492 214.123334,10.0719971 214.03,10.66 L217.768,10.66 C217.712,10.0626637 217.530002,9.60766823 217.222,9.295 C216.913998,8.98233177 216.498669,8.826 215.976,8.826 Z M224.152,7.776 C224.366668,7.776 224.590665,7.80866634 224.824,7.874 L224.796,9.162 C224.543999,9.0686662 224.268668,9.022 223.97,9.022 C223.325997,9.022 222.843002,9.21566473 222.521,9.603 C222.198998,9.99033527 222.038,10.4779971 222.038,11.066 L222.038,15 L220.638,15 L220.638,9.932 C220.638,9.19466298 220.600667,8.53200294 220.526,7.944 L221.842,7.944 L221.968,9.218 C222.154668,8.751331 222.443998,8.39433457 222.836,8.147 C223.228002,7.89966543 223.666664,7.776 224.152,7.776 Z M228.296,15.098 C227.063994,15.098 226.093337,14.7993363 225.384,14.202 L225.804,13.18 C226.541337,13.7400028 227.385995,14.02 228.338,14.02 C228.823336,14.02 229.191999,13.9383342 229.444,13.775 C229.696001,13.6116659 229.822,13.3806682 229.822,13.082 C229.822,12.8299987 229.735668,12.6316674 229.563,12.487 C229.390332,12.3423326 229.098669,12.2186672 228.688,12.116 L227.512,11.836 C226.895997,11.7053327 226.427002,11.474335 226.105,11.143 C225.782998,10.811665 225.622,10.3986691 225.622,9.904 C225.622,9.26933016 225.876331,8.75600196 226.385,8.364 C226.893669,7.97199804 227.567996,7.776 228.408,7.776 C228.912003,7.776 229.390331,7.85533254 229.843,8.014 C230.295669,8.17266746 230.680665,8.39666522 230.998,8.686 L230.564,9.68 C229.882663,9.13866396 229.164004,8.868 228.408,8.868 C227.950664,8.868 227.596001,8.95433247 227.344,9.127 C227.091999,9.29966753 226.966,9.53999846 226.966,9.848 C226.966,10.0906679 227.045333,10.2866659 227.204,10.436 C227.362667,10.5853341 227.614665,10.7019996 227.96,10.786 L229.164,11.08 C229.836003,11.2293341 230.332998,11.4649984 230.655,11.787 C230.977002,12.1090016 231.138,12.5266641 231.138,13.04 C231.138,13.6746698 230.883669,14.1763315 230.375,14.545 C229.866331,14.9136685 229.173338,15.098 228.296,15.098 Z M17.036,35 L17.036,24.696 L18.436,24.696 L18.436,35 L17.036,35 Z M20.508,35 L20.508,27.944 L21.908,27.944 L21.908,35 L20.508,35 Z M20.382,24.864 L22.02,24.864 L22.02,26.348 L20.382,26.348 L20.382,24.864 Z M28.978,27.958 L30.392,27.958 L27.326,35 L26.052,35 L23.014,27.958 L24.512,27.958 L26.724,33.404 L28.978,27.958 Z M37.406,31.5 L32.366,31.5 C32.4126669,33.1520083 33.1639927,33.978 34.62,33.978 C35.4320041,33.978 36.1739966,33.7120027 36.846,33.18 L37.28,34.188 C36.9626651,34.4680014 36.5590025,34.6896658 36.069,34.853 C35.5789976,35.0163341 35.0866691,35.098 34.592,35.098 C33.462661,35.098 32.5760032,34.7736699 31.932,34.125 C31.2879968,33.4763301 30.966,32.587339 30.966,31.458 C30.966,30.7393297 31.1083319,30.1000028 31.393,29.54 C31.6776681,28.9799972 32.0766641,28.5460015 32.59,28.238 C33.1033359,27.9299985 33.6866634,27.776 34.34,27.776 C35.2920048,27.776 36.0409973,28.0839969 36.587,28.7 C37.1330027,29.3160031 37.406,30.1699945 37.406,31.262 L37.406,31.5 Z M34.368,28.826 C33.8359973,28.826 33.4020017,28.9846651 33.066,29.302 C32.7299983,29.6193349 32.5153338,30.0719971 32.422,30.66 L36.16,30.66 C36.1039997,30.0626637 35.9220015,29.6076682 35.614,29.295 C35.3059985,28.9823318 34.8906693,28.826 34.368,28.826 Z M50.818,27.776 C52.3860078,27.776 53.17,28.7186572 53.17,30.604 L53.17,35 L51.756,35 L51.756,30.674 C51.756,30.0673303 51.6510011,29.6240014 51.441,29.344 C51.230999,29.0639986 50.892669,28.924 50.426,28.924 C49.884664,28.924 49.4576682,29.1106648 49.145,29.484 C48.8323318,29.8573352 48.676,30.3659968 48.676,31.01 L48.676,35 L47.262,35 L47.262,30.674 C47.262,30.0673303 47.1570011,29.6240014 46.947,29.344 C46.736999,29.0639986 46.398669,28.924 45.932,28.924 C45.390664,28.924 44.9613349,29.1106648 44.644,29.484 C44.3266651,29.8573352 44.168,30.3659968 44.168,31.01 L44.168,35 L42.768,35 L42.768,29.932 C42.768,29.194663 42.730667,28.5320029 42.656,27.944 L43.972,27.944 L44.098,29.12 C44.3033344,28.6906645 44.5973314,28.3593345 44.98,28.126 C45.3626686,27.8926655 45.8106641,27.776 46.324,27.776 C47.4160055,27.776 48.1299983,28.2286621 48.466,29.134 C48.6806677,28.7139979 48.9956646,28.3826679 49.411,28.14 C49.8263354,27.8973321 50.2953307,27.776 50.818,27.776 Z M58.238,35.098 C57.5473299,35.098 56.9406693,34.9486682 56.418,34.65 C55.8953307,34.3513318 55.4916681,33.9266694 55.207,33.376 C54.9223319,32.8253306 54.78,32.181337 54.78,31.444 C54.78,30.706663 54.9223319,30.0603361 55.207,29.505 C55.4916681,28.9496639 55.8953307,28.5226682 56.418,28.224 C56.9406693,27.9253318 57.5473299,27.776 58.238,27.776 C58.9193367,27.776 59.5213307,27.9253318 60.044,28.224 C60.5666693,28.5226682 60.9703319,28.9496639 61.255,29.505 C61.5396681,30.0603361 61.682,30.706663 61.682,31.444 C61.682,32.181337 61.5396681,32.8253306 61.255,33.376 C60.9703319,33.9266694 60.5666693,34.3513318 60.044,34.65 C59.5213307,34.9486682 58.9193367,35.098 58.238,35.098 Z M58.224,33.978 C58.8773366,33.978 59.3766649,33.7633355 59.722,33.334 C60.0673351,32.9046645 60.24,32.2746708 60.24,31.444 C60.24,30.6319959 60.0650017,30.0066689 59.715,29.568 C59.3649982,29.1293311 58.8726698,28.91 58.238,28.91 C57.5939968,28.91 57.0946684,29.1293311 56.74,29.568 C56.3853316,30.0066689 56.208,30.6319959 56.208,31.444 C56.208,32.2746708 56.3829982,32.9046645 56.733,33.334 C57.0830017,33.7633355 57.5799968,33.978 58.224,33.978 Z M66.848,27.776 C67.0626677,27.776 67.2866655,27.8086663 67.52,27.874 L67.492,29.162 C67.2399987,29.0686662 66.9646682,29.022 66.666,29.022 C66.0219968,29.022 65.5390016,29.2156647 65.217,29.603 C64.8949984,29.9903353 64.734,30.4779971 64.734,31.066 L64.734,35 L63.334,35 L63.334,29.932 C63.334,29.194663 63.296667,28.5320029 63.222,27.944 L64.538,27.944 L64.664,29.218 C64.8506676,28.751331 65.139998,28.3943346 65.532,28.147 C65.924002,27.8996654 66.3626642,27.776 66.848,27.776 Z M74.478,31.5 L69.438,31.5 C69.4846669,33.1520083 70.2359927,33.978 71.692,33.978 C72.5040041,33.978 73.2459966,33.7120027 73.918,33.18 L74.352,34.188 C74.0346651,34.4680014 73.6310024,34.6896658 73.141,34.853 C72.6509975,35.0163341 72.1586691,35.098 71.664,35.098 C70.534661,35.098 69.6480032,34.7736699 69.004,34.125 C68.3599968,33.4763301 68.038,32.587339 68.038,31.458 C68.038,30.7393297 68.1803319,30.1000028 68.465,29.54 C68.7496681,28.9799972 69.1486641,28.5460015 69.662,28.238 C70.1753359,27.9299985 70.7586634,27.776 71.412,27.776 C72.3640048,27.776 73.1129973,28.0839969 73.659,28.7 C74.2050027,29.3160031 74.478,30.1699945 74.478,31.262 L74.478,31.5 Z M71.44,28.826 C70.9079973,28.826 70.4740017,28.9846651 70.138,29.302 C69.8019983,29.6193349 69.5873338,30.0719971 69.494,30.66 L73.232,30.66 C73.1759997,30.0626637 72.9940015,29.6076682 72.686,29.295 C72.3779985,28.9823318 71.9626693,28.826 71.44,28.826 Z M81.674,29.036 L81.674,32.578 C81.674,33.0633358 81.778999,33.4063323 81.989,33.607 C82.199001,33.8076677 82.4906648,33.908 82.864,33.908 C83.1066679,33.908 83.3539987,33.870667 83.606,33.796 L83.606,34.944 C83.2979985,35.0466672 82.948002,35.098 82.556,35.098 C81.8279964,35.098 81.2633353,34.8926687 80.862,34.482 C80.4606647,34.0713313 80.26,33.4740039 80.26,32.69 L80.26,29.036 L78.888,29.036 L78.888,27.944 L80.26,27.944 L80.26,26.18 L81.674,25.69 L81.674,27.944 L83.62,27.944 L83.62,29.036 L81.674,29.036 Z M88.674,27.776 C90.3633418,27.776 91.208,28.7186572 91.208,30.604 L91.208,35 L89.794,35 L89.794,30.688 C89.794,30.0719969 89.6750012,29.6240014 89.437,29.344 C89.1989988,29.0639986 88.8186693,28.924 88.296,28.924 C87.6986637,28.924 87.2203351,29.1106648 86.861,29.484 C86.5016649,29.8573352 86.322,30.3566635 86.322,30.982 L86.322,35 L84.922,35 L84.922,24.696 L86.322,24.696 L86.322,29.036 C86.5553345,28.6253313 86.8773313,28.3126677 87.288,28.098 C87.6986687,27.8833323 88.1606641,27.776 88.674,27.776 Z M99.678,27.944 L99.678,35 L98.278,35 L98.278,33.796 C98.0726656,34.2160021 97.767002,34.5379989 97.361,34.762 C96.954998,34.9860011 96.481336,35.098 95.94,35.098 C95.3146635,35.098 94.7663357,34.9486682 94.295,34.65 C93.8236643,34.3513318 93.4573346,33.9290027 93.196,33.383 C92.9346654,32.8369973 92.804,32.2000036 92.804,31.472 C92.804,30.7439964 92.9369987,30.1000028 93.203,29.54 C93.4690013,28.9799972 93.8399976,28.5460015 94.316,28.238 C94.7920024,27.9299985 95.3333303,27.776 95.94,27.776 C96.481336,27.776 96.9526647,27.8903322 97.354,28.119 C97.7553353,28.3476678 98.0633323,28.6719979 98.278,29.092 L98.278,27.944 L99.678,27.944 Z M96.276,33.978 C96.9106698,33.978 97.4029983,33.7563356 97.753,33.313 C98.1030018,32.8696645 98.278,32.2466707 98.278,31.444 C98.278,30.6319959 98.1030018,30.0066689 97.753,29.568 C97.4029983,29.1293311 96.9060032,28.91 96.262,28.91 C95.6273302,28.91 95.1303351,29.1363311 94.771,29.589 C94.4116649,30.0416689 94.232,30.6693293 94.232,31.472 C94.232,32.2653373 94.4116649,32.8813311 94.771,33.32 C95.1303351,33.7586689 95.6319968,33.978 96.276,33.978 Z M105.502,27.776 C107.191342,27.776 108.036,28.7186572 108.036,30.604 L108.036,35 L106.622,35 L106.622,30.688 C106.622,30.0719969 106.503001,29.6240014 106.265,29.344 C106.026999,29.0639986 105.646669,28.924 105.124,28.924 C104.526664,28.924 104.048335,29.1106648 103.689,29.484 C103.329665,29.8573352 103.15,30.3566635 103.15,30.982 L103.15,35 L101.75,35 L101.75,29.932 C101.75,29.194663 101.712667,28.5320029 101.638,27.944 L102.954,27.944 L103.08,29.162 C103.304001,28.7139978 103.628331,28.3710012 104.053,28.133 C104.477669,27.8949988 104.960664,27.776 105.502,27.776 Z M118.088,33.81 L120.272,33.81 L120.272,35 L114.448,35 L114.448,33.81 L116.632,33.81 L116.632,26.754 L114.602,28.014 L114.602,26.684 L117.248,25.032 L118.088,25.032 L118.088,33.81 Z M123.674,33.32 L123.674,34.468 C123.674,34.9066689 123.599334,35.3056649 123.45,35.665 C123.300666,36.0243351 123.048668,36.3813316 122.694,36.736 L122.092,36.246 C122.484002,35.8166645 122.708,35.4013353 122.764,35 L121.994,35 L121.994,33.32 L123.674,33.32 Z M128.714,35.112 C127.556661,35.112 126.67467,34.6780043 126.068,33.81 C125.46133,32.9419957 125.158,31.6773416 125.158,30.016 C125.158,28.3546584 125.46133,27.0900043 126.068,26.222 C126.67467,25.3539957 127.556661,24.92 128.714,24.92 C129.871339,24.92 130.75333,25.3516623 131.36,26.215 C131.96667,27.0783376 132.27,28.3406584 132.27,30.002 C132.27,31.672675 131.96667,32.9419957 131.36,33.81 C130.75333,34.6780043 129.871339,35.112 128.714,35.112 Z M128.714,33.95 C129.43267,33.95 129.962332,33.6303365 130.303,32.991 C130.643668,32.3516635 130.814,31.3553401 130.814,30.002 C130.814,28.6486599 130.646002,27.6593365 130.31,27.034 C129.973998,26.4086635 129.442004,26.096 128.714,26.096 C127.99533,26.096 127.465668,26.4109968 127.125,27.041 C126.784332,27.6710031 126.614,28.6579933 126.614,30.002 C126.614,31.3553401 126.784332,32.3516635 127.125,32.991 C127.465668,33.6303365 127.99533,33.95 128.714,33.95 Z M137.114,35.112 C135.956661,35.112 135.07467,34.6780043 134.468,33.81 C133.86133,32.9419957 133.558,31.6773416 133.558,30.016 C133.558,28.3546584 133.86133,27.0900043 134.468,26.222 C135.07467,25.3539957 135.956661,24.92 137.114,24.92 C138.271339,24.92 139.15333,25.3516623 139.76,26.215 C140.36667,27.0783376 140.67,28.3406584 140.67,30.002 C140.67,31.672675 140.36667,32.9419957 139.76,33.81 C139.15333,34.6780043 138.271339,35.112 137.114,35.112 Z M137.114,33.95 C137.83267,33.95 138.362332,33.6303365 138.703,32.991 C139.043668,32.3516635 139.214,31.3553401 139.214,30.002 C139.214,28.6486599 139.046002,27.6593365 138.71,27.034 C138.373998,26.4086635 137.842004,26.096 137.114,26.096 C136.39533,26.096 135.865668,26.4109968 135.525,27.041 C135.184332,27.6710031 135.014,28.6579933 135.014,30.002 C135.014,31.3553401 135.184332,32.3516635 135.525,32.991 C135.865668,33.6303365 136.39533,33.95 137.114,33.95 Z M145.514,35.112 C144.356661,35.112 143.47467,34.6780043 142.868,33.81 C142.26133,32.9419957 141.958,31.6773416 141.958,30.016 C141.958,28.3546584 142.26133,27.0900043 142.868,26.222 C143.47467,25.3539957 144.356661,24.92 145.514,24.92 C146.671339,24.92 147.55333,25.3516623 148.16,26.215 C148.76667,27.0783376 149.07,28.3406584 149.07,30.002 C149.07,31.672675 148.76667,32.9419957 148.16,33.81 C147.55333,34.6780043 146.671339,35.112 145.514,35.112 Z M145.514,33.95 C146.23267,33.95 146.762332,33.6303365 147.103,32.991 C147.443668,32.3516635 147.614,31.3553401 147.614,30.002 C147.614,28.6486599 147.446002,27.6593365 147.11,27.034 C146.773998,26.4086635 146.242004,26.096 145.514,26.096 C144.79533,26.096 144.265668,26.4109968 143.925,27.041 C143.584332,27.6710031 143.414,28.6579933 143.414,30.002 C143.414,31.3553401 143.584332,32.3516635 143.925,32.991 C144.265668,33.6303365 144.79533,33.95 145.514,33.95 Z M162.538,27.776 C164.106008,27.776 164.89,28.7186572 164.89,30.604 L164.89,35 L163.476,35 L163.476,30.674 C163.476,30.0673303 163.371001,29.6240014 163.161,29.344 C162.950999,29.0639986 162.612669,28.924 162.146,28.924 C161.604664,28.924 161.177668,29.1106648 160.865,29.484 C160.552332,29.8573352 160.396,30.3659968 160.396,31.01 L160.396,35 L158.982,35 L158.982,30.674 C158.982,30.0673303 158.877001,29.6240014 158.667,29.344 C158.456999,29.0639986 158.118669,28.924 157.652,28.924 C157.110664,28.924 156.681335,29.1106648 156.364,29.484 C156.046665,29.8573352 155.888,30.3659968 155.888,31.01 L155.888,35 L154.488,35 L154.488,29.932 C154.488,29.194663 154.450667,28.5320029 154.376,27.944 L155.692,27.944 L155.818,29.12 C156.023334,28.6906645 156.317331,28.3593345 156.7,28.126 C157.082669,27.8926655 157.530664,27.776 158.044,27.776 C159.136005,27.776 159.849998,28.2286621 160.186,29.134 C160.400668,28.7139979 160.715665,28.3826679 161.131,28.14 C161.546335,27.8973321 162.015331,27.776 162.538,27.776 Z M166.92,35 L166.92,27.944 L168.32,27.944 L168.32,35 L166.92,35 Z M166.794,24.864 L168.432,24.864 L168.432,26.348 L166.794,26.348 L166.794,24.864 Z M170.392,35 L170.392,24.696 L171.792,24.696 L171.792,35 L170.392,35 Z M179.884,31.5 L174.844,31.5 C174.890667,33.1520083 175.641993,33.978 177.098,33.978 C177.910004,33.978 178.651997,33.7120027 179.324,33.18 L179.758,34.188 C179.440665,34.4680014 179.037002,34.6896658 178.547,34.853 C178.056998,35.0163341 177.564669,35.098 177.07,35.098 C175.940661,35.098 175.054003,34.7736699 174.41,34.125 C173.765997,33.4763301 173.444,32.587339 173.444,31.458 C173.444,30.7393297 173.586332,30.1000028 173.871,29.54 C174.155668,28.9799972 174.554664,28.5460015 175.068,28.238 C175.581336,27.9299985 176.164663,27.776 176.818,27.776 C177.770005,27.776 178.518997,28.0839969 179.065,28.7 C179.611003,29.3160031 179.884,30.1699945 179.884,31.262 L179.884,31.5 Z M176.846,28.826 C176.313997,28.826 175.880002,28.9846651 175.544,29.302 C175.207998,29.6193349 174.993334,30.0719971 174.9,30.66 L178.638,30.66 C178.582,30.0626637 178.400002,29.6076682 178.092,29.295 C177.783998,28.9823318 177.368669,28.826 176.846,28.826 Z M183.972,35.098 C182.739994,35.098 181.769337,34.7993363 181.06,34.202 L181.48,33.18 C182.217337,33.7400028 183.061995,34.02 184.014,34.02 C184.499336,34.02 184.867999,33.9383342 185.12,33.775 C185.372001,33.6116658 185.498,33.3806682 185.498,33.082 C185.498,32.8299987 185.411668,32.6316674 185.239,32.487 C185.066332,32.3423326 184.774669,32.2186672 184.364,32.116 L183.188,31.836 C182.571997,31.7053327 182.103002,31.474335 181.781,31.143 C181.458998,30.811665 181.298,30.3986691 181.298,29.904 C181.298,29.2693302 181.552331,28.756002 182.061,28.364 C182.569669,27.971998 183.243996,27.776 184.084,27.776 C184.588003,27.776 185.066331,27.8553325 185.519,28.014 C185.971669,28.1726675 186.356665,28.3966652 186.674,28.686 L186.24,29.68 C185.558663,29.138664 184.840004,28.868 184.084,28.868 C183.626664,28.868 183.272001,28.9543325 183.02,29.127 C182.767999,29.2996675 182.642,29.5399985 182.642,29.848 C182.642,30.0906679 182.721333,30.2866659 182.88,30.436 C183.038667,30.5853341 183.290665,30.7019996 183.636,30.786 L184.84,31.08 C185.512003,31.2293341 186.008998,31.4649984 186.331,31.787 C186.653002,32.1090016 186.814,32.5266641 186.814,33.04 C186.814,33.6746698 186.559669,34.1763315 186.051,34.545 C185.542331,34.9136685 184.849338,35.098 183.972,35.098 Z M198.672,27.944 L198.672,35 L197.272,35 L197.272,33.796 C197.066666,34.2160021 196.761002,34.5379989 196.355,34.762 C195.948998,34.9860011 195.475336,35.098 194.934,35.098 C194.308664,35.098 193.760336,34.9486682 193.289,34.65 C192.817664,34.3513318 192.451335,33.9290027 192.19,33.383 C191.928665,32.8369973 191.798,32.2000036 191.798,31.472 C191.798,30.7439964 191.930999,30.1000028 192.197,29.54 C192.463001,28.9799972 192.833998,28.5460015 193.31,28.238 C193.786002,27.9299985 194.32733,27.776 194.934,27.776 C195.475336,27.776 195.946665,27.8903322 196.348,28.119 C196.749335,28.3476678 197.057332,28.6719979 197.272,29.092 L197.272,27.944 L198.672,27.944 Z M195.27,33.978 C195.90467,33.978 196.396998,33.7563356 196.747,33.313 C197.097002,32.8696645 197.272,32.2466707 197.272,31.444 C197.272,30.6319959 197.097002,30.0066689 196.747,29.568 C196.396998,29.1293311 195.900003,28.91 195.256,28.91 C194.62133,28.91 194.124335,29.1363311 193.765,29.589 C193.405665,30.0416689 193.226,30.6693293 193.226,31.472 C193.226,32.2653373 193.405665,32.8813311 193.765,33.32 C194.124335,33.7586689 194.625997,33.978 195.27,33.978 Z M210.306,27.944 L211.692,27.944 L209.004,35 L207.716,35 L205.826,29.89 L203.95,35 L202.662,35 L199.974,27.944 L201.444,27.944 L203.362,33.334 L205.308,27.944 L206.428,27.944 L208.374,33.334 L210.306,27.944 Z M219.364,27.944 L219.364,35 L217.964,35 L217.964,33.796 C217.758666,34.2160021 217.453002,34.5379989 217.047,34.762 C216.640998,34.9860011 216.167336,35.098 215.626,35.098 C215.000664,35.098 214.452336,34.9486682 213.981,34.65 C213.509664,34.3513318 213.143335,33.9290027 212.882,33.383 C212.620665,32.8369973 212.49,32.2000036 212.49,31.472 C212.49,30.7439964 212.622999,30.1000028 212.889,29.54 C213.155001,28.9799972 213.525998,28.5460015 214.002,28.238 C214.478002,27.9299985 215.01933,27.776 215.626,27.776 C216.167336,27.776 216.638665,27.8903322 217.04,28.119 C217.441335,28.3476678 217.749332,28.6719979 217.964,29.092 L217.964,27.944 L219.364,27.944 Z M215.962,33.978 C216.59667,33.978 217.088998,33.7563356 217.439,33.313 C217.789002,32.8696645 217.964,32.2466707 217.964,31.444 C217.964,30.6319959 217.789002,30.0066689 217.439,29.568 C217.088998,29.1293311 216.592003,28.91 215.948,28.91 C215.31333,28.91 214.816335,29.1363311 214.457,29.589 C214.097665,30.0416689 213.918,30.6693293 213.918,31.472 C213.918,32.2653373 214.097665,32.8813311 214.457,33.32 C214.816335,33.7586689 215.317997,33.978 215.962,33.978 Z M227.848,27.944 L224.558,35.574 C224.193998,36.4046708 223.739003,37.0136647 223.193,37.401 C222.646997,37.7883353 221.972671,38.0473327 221.17,38.178 L220.862,37.086 C221.52467,36.9366659 222.026332,36.7430012 222.367,36.505 C222.707668,36.2669988 222.980666,35.9100024 223.186,35.434 L223.438,34.846 L220.47,27.944 L221.968,27.944 L224.18,33.404 L226.434,27.944 L227.848,27.944 Z M20.018,45.83 C19.2433295,45.83 18.856,46.2733289 18.856,47.16 L18.856,47.944 L20.508,47.944 L20.508,49.036 L18.856,49.036 L18.856,55 L17.442,55 L17.442,49.036 L16.084,49.036 L16.084,47.944 L17.442,47.944 L17.442,47.048 C17.442,46.2639961 17.6403314,45.6666687 18.037,45.256 C18.4336687,44.8453313 18.9913297,44.64 19.71,44.64 C20.0833352,44.64 20.4239985,44.6866662 20.732,44.78 L20.732,45.942 C20.4799987,45.867333 20.2420011,45.83 20.018,45.83 Z M25.464,47.776 C25.6786677,47.776 25.9026655,47.8086663 26.136,47.874 L26.108,49.162 C25.8559987,49.0686662 25.5806682,49.022 25.282,49.022 C24.6379968,49.022 24.1550016,49.2156647 23.833,49.603 C23.5109984,49.9903353 23.35,50.4779971 23.35,51.066 L23.35,55 L21.95,55 L21.95,49.932 C21.95,49.194663 21.912667,48.5320029 21.838,47.944 L23.154,47.944 L23.28,49.218 C23.4666676,48.751331 23.755998,48.3943346 24.148,48.147 C24.540002,47.8996654 24.9786642,47.776 25.464,47.776 Z M30.112,55.098 C29.4213299,55.098 28.8146693,54.9486682 28.292,54.65 C27.7693307,54.3513318 27.3656681,53.9266694 27.081,53.376 C26.7963319,52.8253306 26.654,52.181337 26.654,51.444 C26.654,50.706663 26.7963319,50.0603361 27.081,49.505 C27.3656681,48.9496639 27.7693307,48.5226682 28.292,48.224 C28.8146693,47.9253318 29.4213299,47.776 30.112,47.776 C30.7933367,47.776 31.3953307,47.9253318 31.918,48.224 C32.4406693,48.5226682 32.8443319,48.9496639 33.129,49.505 C33.4136681,50.0603361 33.556,50.706663 33.556,51.444 C33.556,52.181337 33.4136681,52.8253306 33.129,53.376 C32.8443319,53.9266694 32.4406693,54.3513318 31.918,54.65 C31.3953307,54.9486682 30.7933367,55.098 30.112,55.098 Z M30.098,53.978 C30.7513366,53.978 31.2506649,53.7633355 31.596,53.334 C31.9413351,52.9046645 32.114,52.2746708 32.114,51.444 C32.114,50.6319959 31.9390017,50.0066689 31.589,49.568 C31.2389983,49.1293311 30.7466698,48.91 30.112,48.91 C29.4679968,48.91 28.9686684,49.1293311 28.614,49.568 C28.2593316,50.0066689 28.082,50.6319959 28.082,51.444 C28.082,52.2746708 28.2569983,52.9046645 28.607,53.334 C28.9570017,53.7633355 29.4539968,53.978 30.098,53.978 Z M43.258,47.776 C44.8260078,47.776 45.61,48.7186572 45.61,50.604 L45.61,55 L44.196,55 L44.196,50.674 C44.196,50.0673303 44.0910011,49.6240014 43.881,49.344 C43.670999,49.0639986 43.332669,48.924 42.866,48.924 C42.324664,48.924 41.8976682,49.1106648 41.585,49.484 C41.2723318,49.8573352 41.116,50.3659968 41.116,51.01 L41.116,55 L39.702,55 L39.702,50.674 C39.702,50.0673303 39.5970011,49.6240014 39.387,49.344 C39.1769989,49.0639986 38.838669,48.924 38.372,48.924 C37.830664,48.924 37.4013349,49.1106648 37.084,49.484 C36.7666651,49.8573352 36.608,50.3659968 36.608,51.01 L36.608,55 L35.208,55 L35.208,49.932 C35.208,49.194663 35.170667,48.5320029 35.096,47.944 L36.412,47.944 L36.538,49.12 C36.7433344,48.6906645 37.0373314,48.3593345 37.42,48.126 C37.8026686,47.8926655 38.2506641,47.776 38.764,47.776 C39.8560055,47.776 40.5699983,48.2286621 40.906,49.134 C41.1206677,48.7139979 41.4356646,48.3826679 41.851,48.14 C42.2663354,47.8973321 42.7353307,47.776 43.258,47.776 Z M53.212,49.036 L53.212,52.578 C53.212,53.0633358 53.3169989,53.4063323 53.527,53.607 C53.7370011,53.8076677 54.0286648,53.908 54.402,53.908 C54.6446679,53.908 54.8919987,53.870667 55.144,53.796 L55.144,54.944 C54.8359985,55.0466672 54.486002,55.098 54.094,55.098 C53.3659964,55.098 52.8013353,54.8926687 52.4,54.482 C51.9986647,54.0713313 51.798,53.4740039 51.798,52.69 L51.798,49.036 L50.426,49.036 L50.426,47.944 L51.798,47.944 L51.798,46.18 L53.212,45.69 L53.212,47.944 L55.158,47.944 L55.158,49.036 L53.212,49.036 Z M60.212,47.776 C61.9013418,47.776 62.746,48.7186572 62.746,50.604 L62.746,55 L61.332,55 L61.332,50.688 C61.332,50.0719969 61.2130012,49.6240014 60.975,49.344 C60.7369988,49.0639986 60.3566693,48.924 59.834,48.924 C59.2366637,48.924 58.7583351,49.1106648 58.399,49.484 C58.0396649,49.8573352 57.86,50.3566635 57.86,50.982 L57.86,55 L56.46,55 L56.46,44.696 L57.86,44.696 L57.86,49.036 C58.0933345,48.6253313 58.4153313,48.3126677 58.826,48.098 C59.2366687,47.8833323 59.6986641,47.776 60.212,47.776 Z M70.782,51.5 L65.742,51.5 C65.7886669,53.1520083 66.5399927,53.978 67.996,53.978 C68.8080041,53.978 69.5499966,53.7120027 70.222,53.18 L70.656,54.188 C70.3386651,54.4680014 69.9350024,54.6896658 69.445,54.853 C68.9549976,55.0163341 68.4626691,55.098 67.968,55.098 C66.838661,55.098 65.9520032,54.7736699 65.308,54.125 C64.6639968,53.4763301 64.342,52.587339 64.342,51.458 C64.342,50.7393297 64.4843319,50.1000028 64.769,49.54 C65.0536681,48.9799972 65.4526641,48.5460015 65.966,48.238 C66.4793359,47.9299985 67.0626634,47.776 67.716,47.776 C68.6680048,47.776 69.4169973,48.0839969 69.963,48.7 C70.5090027,49.3160031 70.782,50.1699945 70.782,51.262 L70.782,51.5 Z M67.744,48.826 C67.2119973,48.826 66.7780017,48.9846651 66.442,49.302 C66.1059983,49.6193349 65.8913338,50.0719971 65.798,50.66 L69.536,50.66 C69.4799997,50.0626637 69.2980015,49.6076682 68.99,49.295 C68.6819985,48.9823318 68.2666693,48.826 67.744,48.826 Z M72.406,55 L72.406,47.944 L73.806,47.944 L73.806,55 L72.406,55 Z M72.28,44.864 L73.918,44.864 L73.918,46.348 L72.28,46.348 L72.28,44.864 Z M79.392,47.776 C79.6066677,47.776 79.8306655,47.8086663 80.064,47.874 L80.036,49.162 C79.7839987,49.0686662 79.5086682,49.022 79.21,49.022 C78.5659968,49.022 78.0830016,49.2156647 77.761,49.603 C77.4389984,49.9903353 77.278,50.4779971 77.278,51.066 L77.278,55 L75.878,55 L75.878,49.932 C75.878,49.194663 75.840667,48.5320029 75.766,47.944 L77.082,47.944 L77.208,49.218 C77.3946676,48.751331 77.683998,48.3943346 78.076,48.147 C78.468002,47.8996654 78.9066642,47.776 79.392,47.776 Z M88.618,47.776 C89.2246697,47.776 89.7659976,47.9299985 90.242,48.238 C90.7180024,48.5460015 91.0889987,48.9799972 91.355,49.54 C91.6210013,50.1000028 91.754,50.7439964 91.754,51.472 C91.754,52.2000036 91.6233346,52.8369973 91.362,53.383 C91.1006654,53.9290027 90.7320024,54.3513318 90.256,54.65 C89.7799976,54.9486682 89.2340031,55.098 88.618,55.098 C88.076664,55.098 87.603002,54.9836678 87.197,54.755 C86.790998,54.5263322 86.4853344,54.1973355 86.28,53.768 L86.28,58.024 L84.88,58.024 L84.88,49.932 C84.88,49.194663 84.842667,48.5320029 84.768,47.944 L86.084,47.944 L86.224,49.246 C86.4106676,48.779331 86.7139979,48.4176679 87.134,48.161 C87.5540021,47.904332 88.0486638,47.776 88.618,47.776 Z M88.296,53.978 C88.9306698,53.978 89.4253316,53.7586689 89.78,53.32 C90.1346684,52.8813311 90.312,52.2653373 90.312,51.472 C90.312,50.6693293 90.1346684,50.0416689 89.78,49.589 C89.4253316,49.1363311 88.9306698,48.91 88.296,48.91 C87.6426634,48.91 87.1433351,49.1293311 86.798,49.568 C86.4526649,50.0066689 86.28,50.6319959 86.28,51.444 C86.28,52.2560041 86.4549982,52.8813311 86.805,53.32 C87.1550017,53.7586689 87.6519968,53.978 88.296,53.978 Z M96.92,47.776 C97.1346677,47.776 97.3586655,47.8086663 97.592,47.874 L97.564,49.162 C97.3119987,49.0686662 97.0366682,49.022 96.738,49.022 C96.0939968,49.022 95.6110016,49.2156647 95.289,49.603 C94.9669984,49.9903353 94.806,50.4779971 94.806,51.066 L94.806,55 L93.406,55 L93.406,49.932 C93.406,49.194663 93.368667,48.5320029 93.294,47.944 L94.61,47.944 L94.736,49.218 C94.9226676,48.751331 95.211998,48.3943346 95.604,48.147 C95.996002,47.8996654 96.4346642,47.776 96.92,47.776 Z M101.568,55.098 C100.87733,55.098 100.270669,54.9486682 99.748,54.65 C99.2253307,54.3513318 98.8216681,53.9266694 98.537,53.376 C98.2523319,52.8253306 98.11,52.181337 98.11,51.444 C98.11,50.706663 98.2523319,50.0603361 98.537,49.505 C98.8216681,48.9496639 99.2253307,48.5226682 99.748,48.224 C100.270669,47.9253318 100.87733,47.776 101.568,47.776 C102.249337,47.776 102.851331,47.9253318 103.374,48.224 C103.896669,48.5226682 104.300332,48.9496639 104.585,49.505 C104.869668,50.0603361 105.012,50.706663 105.012,51.444 C105.012,52.181337 104.869668,52.8253306 104.585,53.376 C104.300332,53.9266694 103.896669,54.3513318 103.374,54.65 C102.851331,54.9486682 102.249337,55.098 101.568,55.098 Z M101.554,53.978 C102.207337,53.978 102.706665,53.7633355 103.052,53.334 C103.397335,52.9046645 103.57,52.2746708 103.57,51.444 C103.57,50.6319959 103.395002,50.0066689 103.045,49.568 C102.694998,49.1293311 102.20267,48.91 101.568,48.91 C100.923997,48.91 100.424668,49.1293311 100.07,49.568 C99.7153316,50.0066689 99.538,50.6319959 99.538,51.444 C99.538,52.2746708 99.7129982,52.9046645 100.063,53.334 C100.413002,53.7633355 100.909997,53.978 101.554,53.978 Z M110.402,47.776 C111.00867,47.776 111.549998,47.9299985 112.026,48.238 C112.502002,48.5460015 112.872999,48.9799972 113.139,49.54 C113.405001,50.1000028 113.538,50.7439964 113.538,51.472 C113.538,52.2000036 113.407335,52.8369973 113.146,53.383 C112.884665,53.9290027 112.516002,54.3513318 112.04,54.65 C111.563998,54.9486682 111.018003,55.098 110.402,55.098 C109.860664,55.098 109.387002,54.9836678 108.981,54.755 C108.574998,54.5263322 108.269334,54.1973355 108.064,53.768 L108.064,58.024 L106.664,58.024 L106.664,49.932 C106.664,49.194663 106.626667,48.5320029 106.552,47.944 L107.868,47.944 L108.008,49.246 C108.194668,48.779331 108.497998,48.4176679 108.918,48.161 C109.338002,47.904332 109.832664,47.776 110.402,47.776 Z M110.08,53.978 C110.71467,53.978 111.209332,53.7586689 111.564,53.32 C111.918668,52.8813311 112.096,52.2653373 112.096,51.472 C112.096,50.6693293 111.918668,50.0416689 111.564,49.589 C111.209332,49.1363311 110.71467,48.91 110.08,48.91 C109.426663,48.91 108.927335,49.1293311 108.582,49.568 C108.236665,50.0066689 108.064,50.6319959 108.064,51.444 C108.064,52.2560041 108.238998,52.8813311 108.589,53.32 C108.939002,53.7586689 109.435997,53.978 110.08,53.978 Z M121.21,51.5 L116.17,51.5 C116.216667,53.1520083 116.967993,53.978 118.424,53.978 C119.236004,53.978 119.977997,53.7120027 120.65,53.18 L121.084,54.188 C120.766665,54.4680014 120.363002,54.6896658 119.873,54.853 C119.382998,55.0163341 118.890669,55.098 118.396,55.098 C117.266661,55.098 116.380003,54.7736699 115.736,54.125 C115.091997,53.4763301 114.77,52.587339 114.77,51.458 C114.77,50.7393297 114.912332,50.1000028 115.197,49.54 C115.481668,48.9799972 115.880664,48.5460015 116.394,48.238 C116.907336,47.9299985 117.490663,47.776 118.144,47.776 C119.096005,47.776 119.844997,48.0839969 120.391,48.7 C120.937003,49.3160031 121.21,50.1699945 121.21,51.262 L121.21,51.5 Z M118.172,48.826 C117.639997,48.826 117.206002,48.9846651 116.87,49.302 C116.533998,49.6193349 116.319334,50.0719971 116.226,50.66 L119.964,50.66 C119.908,50.0626637 119.726002,49.6076682 119.418,49.295 C119.109998,48.9823318 118.694669,48.826 118.172,48.826 Z M126.348,47.776 C126.562668,47.776 126.786665,47.8086663 127.02,47.874 L126.992,49.162 C126.739999,49.0686662 126.464668,49.022 126.166,49.022 C125.521997,49.022 125.039002,49.2156647 124.717,49.603 C124.394998,49.9903353 124.234,50.4779971 124.234,51.066 L124.234,55 L122.834,55 L122.834,49.932 C122.834,49.194663 122.796667,48.5320029 122.722,47.944 L124.038,47.944 L124.164,49.218 C124.350668,48.751331 124.639998,48.3943346 125.032,48.147 C125.424002,47.8996654 125.862664,47.776 126.348,47.776 Z M130.52,49.036 L130.52,52.578 C130.52,53.0633358 130.624999,53.4063323 130.835,53.607 C131.045001,53.8076677 131.336665,53.908 131.71,53.908 C131.952668,53.908 132.199999,53.870667 132.452,53.796 L132.452,54.944 C132.143998,55.0466672 131.794002,55.098 131.402,55.098 C130.673996,55.098 130.109335,54.8926687 129.708,54.482 C129.306665,54.0713313 129.106,53.4740039 129.106,52.69 L129.106,49.036 L127.734,49.036 L127.734,47.944 L129.106,47.944 L129.106,46.18 L130.52,45.69 L130.52,47.944 L132.466,47.944 L132.466,49.036 L130.52,49.036 Z M133.768,55 L133.768,47.944 L135.168,47.944 L135.168,55 L133.768,55 Z M133.642,44.864 L135.28,44.864 L135.28,46.348 L133.642,46.348 L133.642,44.864 Z M143.26,51.5 L138.22,51.5 C138.266667,53.1520083 139.017993,53.978 140.474,53.978 C141.286004,53.978 142.027997,53.7120027 142.7,53.18 L143.134,54.188 C142.816665,54.4680014 142.413002,54.6896658 141.923,54.853 C141.432998,55.0163341 140.940669,55.098 140.446,55.098 C139.316661,55.098 138.430003,54.7736699 137.786,54.125 C137.141997,53.4763301 136.82,52.587339 136.82,51.458 C136.82,50.7393297 136.962332,50.1000028 137.247,49.54 C137.531668,48.9799972 137.930664,48.5460015 138.444,48.238 C138.957336,47.9299985 139.540663,47.776 140.194,47.776 C141.146005,47.776 141.894997,48.0839969 142.441,48.7 C142.987003,49.3160031 143.26,50.1699945 143.26,51.262 L143.26,51.5 Z M140.222,48.826 C139.689997,48.826 139.256002,48.9846651 138.92,49.302 C138.583998,49.6193349 138.369334,50.0719971 138.276,50.66 L142.014,50.66 C141.958,50.0626637 141.776002,49.6076682 141.468,49.295 C141.159998,48.9823318 140.744669,48.826 140.222,48.826 Z M147.348,55.098 C146.115994,55.098 145.145337,54.7993363 144.436,54.202 L144.856,53.18 C145.593337,53.7400028 146.437995,54.02 147.39,54.02 C147.875336,54.02 148.243999,53.9383341 148.496,53.775 C148.748001,53.6116658 148.874,53.3806682 148.874,53.082 C148.874,52.8299987 148.787668,52.6316674 148.615,52.487 C148.442332,52.3423326 148.150669,52.2186672 147.74,52.116 L146.564,51.836 C145.947997,51.7053327 145.479002,51.474335 145.157,51.143 C144.834998,50.811665 144.674,50.3986691 144.674,49.904 C144.674,49.2693302 144.928331,48.756002 145.437,48.364 C145.945669,47.971998 146.619996,47.776 147.46,47.776 C147.964003,47.776 148.442331,47.8553325 148.895,48.014 C149.347669,48.1726675 149.732665,48.3966652 150.05,48.686 L149.616,49.68 C148.934663,49.138664 148.216004,48.868 147.46,48.868 C147.002664,48.868 146.648001,48.9543325 146.396,49.127 C146.143999,49.2996675 146.018,49.5399985 146.018,49.848 C146.018,50.0906679 146.097333,50.2866659 146.256,50.436 C146.414667,50.5853341 146.666665,50.7019996 147.012,50.786 L148.216,51.08 C148.888003,51.2293341 149.384998,51.4649984 149.707,51.787 C150.029002,52.1090016 150.19,52.5266641 150.19,53.04 C150.19,53.6746698 149.935669,54.1763315 149.427,54.545 C148.918331,54.9136685 148.225338,55.098 147.348,55.098 Z" id="The-majority-of-Roof" fill="#767676"></path>
                <path d="M0,2.5 C0,1.94771525 0.44771525,1.5 1,1.5 C1.55228475,1.5 2,1.94771525 2,2.5 L2,59.5259696 C2,60.0782544 1.55228475,60.5259696 1,60.5259696 C0.44771525,60.5259696 0,60.0782544 0,59.5259696 L0,2.5 Z" id="Line-2" fill="#C6C4E8" fill-rule="nonzero"></path>
            </g>
        </g>
    </g>
</svg>