<?xml version="1.0" encoding="UTF-8"?>
<svg width="39px" height="34px" viewBox="0 0 39 34" version="1.1" xmlns="http://www.w3.org/2000/svg" xmlns:xlink="http://www.w3.org/1999/xlink">
    <!-- Generator: Sketch 46.2 (44496) - http://www.bohemiancoding.com/sketch -->
    <title>mini-house-icon</title>
    <desc>Created with Sketch.</desc>
    <defs>
        <polygon id="path-1" points="0 0.25985886 0 17.6642509 38.7273305 17.6642509 38.7273305 0.25985886 8.52497676e-21 0.25985886"></polygon>
    </defs>
    <g id="Page-1" stroke="none" stroke-width="1" fill="none" fill-rule="evenodd">
        <g id="Hompage-2" transform="translate(-759.000000, -3003.000000)">
            <g id="Roofstock-Handles" transform="translate(736.000000, 2788.000000)">
                <g id="Long-term-support" transform="translate(0.000000, 192.000000)">
                    <g id="mini-house-icon" transform="translate(23.000000, 23.000000)">
                        <path d="M8.97459194,3.21963962 L5.62593871,3.21963962 C5.26393065,3.21963962 4.97080161,3.51890377 4.97080161,3.8877717 L4.97080161,10.7804698 L9.62972903,10.7804698 L9.62972903,3.8877717 C9.62972903,3.51890377 9.33628548,3.21963962 8.97459194,3.21963962" id="Fill-1" fill="#E0E0F0"></path>
                        <path d="M5.59967661,10.1390245 L9.00053952,10.1390245 L9.00053952,3.88783585 C9.00053952,3.87308113 8.98890242,3.86121321 8.97443468,3.86121321 L5.62578145,3.86121321 C5.61131371,3.86121321 5.59967661,3.87308113 5.59967661,3.88783585 L5.59967661,10.1390245 Z M9.62957177,11.4220434 L4.97064435,11.4220434 C4.62341855,11.4220434 4.3416121,11.1346472 4.3416121,10.780534 L4.3416121,3.88783585 C4.3416121,3.16581698 4.91780565,2.57819434 5.62578145,2.57819434 L8.97443468,2.57819434 C9.68241048,2.57819434 10.258604,3.16581698 10.258604,3.88783585 L10.258604,10.780534 C10.258604,11.1346472 9.9771121,11.4220434 9.62957177,11.4220434 L9.62957177,11.4220434 Z" id="Fill-3" fill="#0E1944"></path>
                        <polygon id="Fill-5" fill="#FFFFFF" points="19.3603863 4.71438868 4.97064435 12.9853698 4.97064435 33.0986151 33.7111282 33.0986151 33.7111282 12.9853698"></polygon>
                        <path d="M5.59967661,32.4571698 L33.082096,32.4571698 L33.082096,13.3597547 L19.3600718,5.45122642 L5.59967661,13.3603962 L5.59967661,32.4571698 Z M33.7111282,33.7401887 L4.97064435,33.7401887 C4.62341855,33.7401887 4.3416121,33.4527925 4.3416121,33.0986792 L4.3416121,12.985434 C4.3416121,12.7538491 4.46395887,12.5402264 4.66178952,12.4266792 L19.0515315,4.15569811 C19.2440153,4.04535849 19.4780153,4.04503774 19.6698702,4.15601887 L34.0206121,12.427 C34.2178137,12.5405472 34.3401605,12.7541698 34.3401605,12.985434 L34.3401605,33.0986792 C34.3401605,33.4527925 34.058354,33.7401887 33.7111282,33.7401887 L33.7111282,33.7401887 Z" id="Fill-7" fill="#0E1944"></path>
                        <path d="M19.0111476,1.07866604 L0.849728226,13.5476849 C0.618873387,13.7061377 0.559744355,14.0262509 0.718260484,14.2597604 L2.48835726,16.8652509 C2.64498629,17.0958736 2.95447016,17.1536094 3.18092177,16.9948358 L19.3602605,5.66321321 L35.5336234,16.990666 C35.759446,17.1491189 36.0679863,17.0920245 36.2249298,16.8630057 L38.0076073,14.2652132 C38.167696,14.0323453 38.109196,13.7109491 37.8777121,13.5518547 L19.7442847,1.07898679 C19.5231798,0.925666038 19.2325669,0.925666038 19.0111476,1.07866604" id="Fill-9" fill="#FFFFFF"></path>
                        <g id="Group-13" transform="translate(0.000000, 0.060943)">
                            <mask id="mask-2" fill="white">
                                <use xlink:href="#path-1"></use>
                            </mask>
                            <g id="Clip-12"></g>
                            <path d="M19.0111476,1.01772264 L19.0142927,1.01772264 L19.0111476,1.01772264 Z M1.31049435,13.943817 L2.93151048,16.3302321 L19.0045427,5.07366604 C19.2187282,4.92323208 19.5021073,4.92323208 19.7162927,5.07366604 L35.7836637,16.3267038 L37.4166315,13.9473453 L19.3926556,1.54985472 L19.3659218,1.54985472 L19.3624621,1.54985472 L1.31049435,13.943817 Z M2.90037339,17.6642509 C2.54276855,17.6642509 2.19019597,17.4913642 1.97129274,17.1693264 L0.201195968,14.5638358 C0.0282120968,14.3091566 -0.0365782258,14.0009113 0.0197201613,13.6958736 C0.0760185484,13.3911566 0.245857258,13.1281377 0.49841371,12.9549302 L18.659204,0.485911321 C19.0963815,0.184081132 19.6609379,0.184401887 20.0978008,0.487515094 L38.2296556,12.9591 C38.4825266,13.1329491 38.6523653,13.3975717 38.7080347,13.7032509 C38.763704,14.0089302 38.6979702,14.317817 38.5230992,14.5724962 L36.7404218,17.1696472 C36.3872202,17.6857415 35.6861637,17.8150057 35.1772766,17.4586472 L19.3602605,6.38042075 L3.53695403,17.462817 C3.34289758,17.598817 3.12084919,17.6642509 2.90037339,17.6642509 L2.90037339,17.6642509 Z" id="Fill-11" fill="#0E1944" mask="url(#mask-2)"></path>
                        </g>
                        <path d="M24.0504823,33.0986792 L14.6766435,33.0986792 L14.6766435,19.0970943 C14.6766435,18.4725849 15.1776677,17.9622642 15.7897161,17.9622642 L22.9377242,17.9622642 C23.5494581,17.9622642 24.0504823,18.4725849 24.0504823,19.0970943 L24.0504823,33.0986792 Z" id="Fill-14" fill="#FFEBDE"></path>
                        <path d="M15.3057702,32.4571698 L23.4215444,32.4571698 L23.4215444,19.0970943 C23.4215444,18.8250943 23.2042137,18.6037736 22.9378185,18.6037736 L15.7898105,18.6037736 C15.5227863,18.6037736 15.3057702,18.8250943 15.3057702,19.0970943 L15.3057702,32.4571698 Z M24.0505766,33.7401887 L14.6767379,33.7401887 C14.3295121,33.7401887 14.0477056,33.4527925 14.0477056,33.0986792 L14.0477056,19.0970943 C14.0477056,18.1175094 14.8289637,17.3207547 15.7898105,17.3207547 L22.9378185,17.3207547 C23.8980363,17.3207547 24.6796089,18.1175094 24.6796089,19.0970943 L24.6796089,33.0986792 C24.6796089,33.4527925 24.3978024,33.7401887 24.0505766,33.7401887 L24.0505766,33.7401887 Z" id="Fill-16" fill="#0E1944"></path>
                        <path d="M22.1080935,25.2007358 C22.1080935,25.8332642 21.6054968,26.3458302 20.9855855,26.3458302 C20.3653597,26.3458302 19.8624484,25.8332642 19.8624484,25.2007358 C19.8624484,24.5682075 20.3653597,24.0559623 20.9855855,24.0559623 C21.6054968,24.0559623 22.1080935,24.5682075 22.1080935,25.2007358" id="Fill-18" fill="#0E1944"></path>
                    </g>
                </g>
            </g>
        </g>
    </g>
</svg>