<?xml version="1.0" encoding="UTF-8"?>
<svg width="45px" height="43px" viewBox="0 0 45 43" version="1.1" xmlns="http://www.w3.org/2000/svg" xmlns:xlink="http://www.w3.org/1999/xlink">
    <!-- Generator: Sketch 46.2 (44496) - http://www.bohemiancoding.com/sketch -->
    <title>neighborhood-icon</title>
    <desc>Created with Sketch.</desc>
    <defs>
        <polygon id="path-1" points="22.4475571 17.9756098 44.895 17.9756098 44.895 0.0544634146 0.000114276135 0.0544634146 0.000114276135 17.9756098 22.4475571 17.9756098"></polygon>
        <polygon id="path-3" points="0 42.6585366 44.895 42.6585366 44.895 0.206317073 0 0.206317073"></polygon>
    </defs>
    <g id="Page-1" stroke="none" stroke-width="1" fill="none" fill-rule="evenodd">
        <g id="Hompage-2" transform="translate(-173.000000, -2480.000000)">
            <g id="Roofstock-Handles" transform="translate(151.000000, 2336.000000)">
                <g id="N-hood-Insights" transform="translate(0.000000, 116.000000)">
                    <g id="neighborhood-icon" transform="translate(22.000000, 28.000000)">
                        <polygon id="Fill-1" fill="#E0E0F0" points="3.82538182 17.808061 5.37638182 14.1453293 12.3868364 14.1453293 12.3868364 19.0655488 3.82538182 19.0655488"></polygon>
                        <g id="Group-42" transform="translate(0.000000, 0.061976)">
                            <path d="M4.37083636,18.4668805 L11.8413818,18.4668805 L11.8413818,14.6198317 L5.7402,14.6198317 L4.37083636,17.8532951 L4.37083636,18.4668805 Z M12.3868364,19.5400512 L3.82538182,19.5400512 C3.52429091,19.5400512 3.27992727,19.299661 3.27992727,19.0034659 L3.27992727,17.745978 C3.27992727,17.6754171 3.29438182,17.6051244 3.32165455,17.5399293 L4.87265455,13.8771976 C4.9572,13.6767829 5.15601818,13.546661 5.37638182,13.546661 L12.3868364,13.546661 C12.6879273,13.546661 12.9322909,13.7870512 12.9322909,14.0832463 L12.9322909,19.0034659 C12.9322909,19.299661 12.6879273,19.5400512 12.3868364,19.5400512 Z" id="Fill-2" fill="#0E1944"></path>
                            <polygon id="Fill-4" fill="#E0E0F0" points="41.1117818 17.7460854 39.5607818 14.0833537 32.5500545 14.0833537 32.5500545 19.0035732 41.1117818 19.0035732"></polygon>
                            <path d="M33.0956182,18.4668805 L40.5664364,18.4668805 L40.5664364,17.8535634 L39.1970727,14.6198317 L33.0956182,14.6198317 L33.0956182,18.4668805 Z M41.1118909,19.5400512 L32.5501636,19.5400512 C32.2490727,19.5400512 32.0047091,19.299661 32.0047091,19.0034659 L32.0047091,14.0832463 C32.0047091,13.7870512 32.2490727,13.546661 32.5501636,13.546661 L39.5606182,13.546661 C39.7809818,13.546661 39.9795273,13.6767829 40.0643455,13.8769293 L41.6153455,17.539661 C41.6428909,17.6051244 41.6573455,17.6754171 41.6573455,17.745978 L41.6573455,19.0034659 C41.6573455,19.299661 41.4129818,19.5400512 41.1118909,19.5400512 L41.1118909,19.5400512 Z" id="Fill-6" fill="#0E1944"></path>
                            <polygon id="Fill-8" fill="#E0E0F0" points="38.6937273 25.2740024 5.35281818 25.2740024 0.545454545 42.121978 44.3495455 42.121978"></polygon>
                            <g id="Group-12" transform="translate(0.000000, 24.682927)">
                                <mask id="mask-2" fill="white">
                                    <use xlink:href="#path-1"></use>
                                </mask>
                                <g id="Clip-11"></g>
                                <path d="M1.2651,16.902439 L43.5951,16.902439 L38.2995545,1.12763415 L5.76619091,1.12763415 L1.2651,16.902439 Z M44.3497364,17.9756098 L0.545372727,17.9756098 C0.374645455,17.9756098 0.214009091,17.897 0.110918182,17.763122 C0.00782727273,17.6292439 -0.0257181818,17.4559268 0.0203727273,17.2941463 L4.82773636,0.446170732 C4.89373636,0.214634146 5.10837273,0.0544634146 5.35273636,0.0544634146 L38.6936455,0.0544634146 C38.9292818,0.0544634146 39.1379182,0.203097561 39.2118273,0.422829268 L44.8676455,17.2708049 C44.9224636,17.4341951 44.8943727,17.6136829 44.7918273,17.7534634 C44.6892818,17.8927073 44.5245545,17.9756098 44.3497364,17.9756098 L44.3497364,17.9756098 Z" id="Fill-10" fill="#0E1944" mask="url(#mask-2)"></path>
                            </g>
                            <path d="M14.5254,17.6950024 C15.7485818,18.8231732 16.4194909,20.2113195 16.5168545,21.859978 C16.5403091,22.2616122 16.5239455,22.6640512 16.4612182,23.063539 C16.3731273,23.6240024 16.2154909,24.1654171 15.9525818,24.6679293 C15.6329455,25.2801732 15.3004909,25.8881244 14.9385818,26.4767585 C14.4924,27.2027585 14.0107636,27.9072951 13.5430364,28.6204171 C12.9984,29.4505146 12.4764,30.2937585 12.0138545,31.1716122 C11.2254,32.6668073 10.6202182,34.2282707 10.2414,35.8726366 C10.2135818,35.9933683 10.1868545,36.1143683 10.1579455,36.2410024 C10.1503091,36.2310756 10.1467636,36.2283927 10.1459455,36.2251732 C10.0532182,35.724539 9.92667273,35.2316854 9.78321818,34.7431244 C9.35585455,33.2849537 8.73621818,31.907539 7.98458182,30.5851244 C7.43558182,29.619539 6.83530909,28.6853439 6.20776364,27.7683195 C5.49158182,26.7222463 4.84876364,25.6370024 4.31258182,24.4905878 C4.01858182,23.8625146 3.86858182,23.2009049 3.82549091,22.5148805 L3.82549091,18.7571732 L14.1375818,18.7571732" id="Fill-13" fill="#FFFFFF"></path>
                            <path d="M4.37083636,22.4978171 C4.41365455,23.1511098 4.55683636,23.7295488 4.80801818,24.2661341 C5.30192727,25.3221341 5.90765455,26.3698171 6.66038182,27.4684756 C7.36592727,28.500061 7.95501818,29.4339878 8.46038182,30.3231098 C9.19592727,31.6168171 9.75556364,32.8662561 10.1635636,34.1280366 C10.5172909,33.0497683 10.9743818,31.9776707 11.5296545,30.924622 C11.9398364,30.1463049 12.4340182,29.3215732 13.0847455,28.3294268 C13.2167455,28.1284756 13.3495636,27.9283293 13.4821091,27.7281829 C13.8132,27.2294268 14.1557455,26.7135 14.4715636,26.1991829 C14.7794727,25.6988171 15.0958364,25.1343293 15.4675636,24.4228171 C15.6871091,24.0026707 15.8357455,23.5318171 15.9219273,22.9818171 C15.9772909,22.6314268 15.9939273,22.2644024 15.9721091,21.8906707 C15.8976545,20.624061 15.4675636,19.5449878 14.6630182,18.612939 C14.6761091,18.6585488 14.6832,18.7071098 14.6832,18.7572805 C14.6832,19.0534756 14.4388364,19.2938659 14.1377455,19.2938659 L4.37083636,19.2938659 L4.37083636,22.4978171 Z M10.1581091,36.7776951 C9.99010909,36.7776951 9.82892727,36.7012317 9.72447273,36.5665488 C9.67947273,36.5085976 9.63501818,36.4262317 9.61674545,36.3554024 C9.61401818,36.3441341 9.61156364,36.3328659 9.60938182,36.3215976 C9.5292,35.8899146 9.41465455,35.4222805 9.2592,34.8918659 C8.86592727,33.5504024 8.2932,32.2274512 7.50856364,30.8470854 C7.01738182,29.9834512 6.44410909,29.0747439 5.7552,28.0681098 C4.96974545,26.920622 4.33565455,25.8238415 3.81692727,24.7149878 C3.51065455,24.0603537 3.33038182,23.3311341 3.28101818,22.5479878 C3.2802,22.5369878 3.27992727,22.5257195 3.27992727,22.5147195 L3.27992727,18.7572805 C3.27992727,18.4608171 3.52429091,18.2206951 3.82538182,18.2206951 L14.1377455,18.2206951 C14.2045636,18.2206951 14.2686545,18.2325 14.3278364,18.2542317 C14.2708364,18.197622 14.2124727,18.1418171 14.1522,18.0865488 C13.9326545,17.8837195 13.9214727,17.544061 14.1273818,17.3278171 C14.3332909,17.1115732 14.6788364,17.1005732 14.8986545,17.3036707 C16.2287455,18.5305732 16.9563818,20.0534024 17.0613818,21.8289634 C17.0875636,22.2783537 17.0671091,22.7210366 17.0002909,23.1454756 C16.8958364,23.811378 16.7117455,24.3895488 16.4376545,24.9135244 C16.0544727,25.6473049 15.7263818,26.2324512 15.4051091,26.7545488 C15.0794727,27.2846951 14.7317455,27.8084024 14.3957455,28.314939 C14.2637455,28.5134756 14.1322909,28.7120122 14.0016545,28.9113537 C13.3697455,29.8742561 12.8922,30.6708171 12.4981091,31.4185488 C11.7066545,32.9191098 11.1265636,34.4575 10.7733818,35.9913293 L10.6904727,36.3580854 C10.6441091,36.5617195 10.4821091,36.7205488 10.2748364,36.7650854 C10.2361091,36.7734024 10.1968364,36.7776951 10.1581091,36.7776951 L10.1581091,36.7776951 Z" id="Fill-15" fill="#0E1944"></path>
                            <path d="M30.7579909,18.5850366 L41.0706273,18.5850366 L41.0706273,22.5147195 C41.0272636,23.2010122 40.8772636,23.862622 40.5832636,24.4906951 C40.0470818,25.6368415 39.4042636,26.7223537 38.6880818,27.7684268 C38.0602636,28.6851829 37.4599909,29.6196463 36.9112636,30.5852317 C36.1596273,31.907378 35.5399909,33.285061 35.1126273,34.7432317 C34.9691727,35.2317927 34.8429,35.7246463 34.7496273,36.2252805 C34.7490818,36.2285 34.7452636,36.2309146 34.7379,36.2411098 C34.7089909,36.1144756 34.6822636,35.9934756 34.6541727,35.8727439 C34.2753545,34.228378 33.6701727,32.6666463 32.8819909,31.1717195 C32.4191727,30.2938659 31.8974455,29.450622 31.3528091,28.6202561 C30.8850818,27.9074024 30.4034455,27.2025976 29.9572636,26.4768659 C29.5953545,25.8882317 29.2631727,25.2802805 28.9429909,24.6680366 C28.6803545,24.1655244 28.5227182,23.6238415 28.4343545,23.063378 C28.3719,22.6638902 28.3552636,22.2617195 28.3789909,21.8600854 C28.4763545,20.2114268 29.1472636,18.8232805 30.3704455,17.6951098" id="Fill-17" fill="#FFFFFF"></path>
                            <path d="M30.2146636,18.6337585 C29.4218455,19.5612463 28.9977545,20.6333439 28.9238455,21.8913683 C28.9017545,22.2629537 28.9183909,22.6302463 28.9734818,22.9817098 C29.0602091,23.5317098 29.2088455,24.0031 29.4278455,24.4227098 C29.8006636,25.1355634 30.1173,25.7003195 30.4241182,26.1990756 C30.7402091,26.7133927 31.0827545,27.2293195 31.4135727,27.7280756 C31.5463909,27.9284902 31.6792091,28.1286366 31.8112091,28.3293195 C32.4605727,29.3195878 32.9547545,30.1443195 33.3663,30.9247829 C33.9215727,31.9778317 34.3786636,33.0501976 34.7321182,34.1281976 C35.1403909,32.8664171 35.6997545,31.616978 36.4355727,30.3230024 C36.9409364,29.4333439 37.5297545,28.4994171 38.2355727,27.4686366 C38.9874818,26.3707829 39.5932091,25.3233683 40.0879364,24.2662951 C40.3391182,23.7289049 40.4820273,23.1504659 40.5251182,22.4977098 L40.5251182,19.1215146 L30.7579364,19.1215146 C30.4734818,19.1215146 30.2397545,18.9074171 30.2146636,18.6337585 M34.7373,36.7872463 C34.6980273,36.7872463 34.6582091,36.7829537 34.6183909,36.7749049 C34.4094818,36.7314415 34.2521182,36.563222 34.2054818,36.357978 L34.1223,35.9917585 C33.7691182,34.457661 33.1887545,32.919539 32.3978455,31.4187098 C32.0026636,30.6691 31.5248455,29.872539 30.8943,28.9112463 C30.7636636,28.7119049 30.6319364,28.5133683 30.5002091,28.3148317 C30.1639364,27.8082951 29.8164818,27.2845878 29.4905727,26.7547098 C29.1706636,26.2339537 28.8425727,25.6488073 28.4580273,24.9134171 C28.1842091,24.3894415 28.0001182,23.8112707 27.8953909,23.1453683 C27.8285727,22.7190512 27.8081182,22.2761 27.8343,21.8288561 C27.9393,20.0532951 28.6669364,18.5304659 29.9973,17.3035634 C30.2171182,17.1012707 30.5623909,17.1120024 30.7683,17.327978 C30.9619364,17.5313439 30.9638455,17.8433683 30.7808455,18.0483439 L41.0705727,18.0483439 C41.3716636,18.0483439 41.6160273,18.2887341 41.6160273,18.5849293 L41.6160273,22.5148805 C41.6160273,22.5258805 41.6157545,22.5368805 41.6149364,22.5478805 C41.5655727,23.3307585 41.3853,24.0597098 41.0787545,24.7148805 C40.5594818,25.8250756 39.9251182,26.9221244 39.1407545,28.0680024 C38.4518455,29.0741 37.8785727,29.9830756 37.3876636,30.8467098 C36.6027545,32.2273439 36.0297545,33.5505634 35.6367545,34.8920268 C35.4813,35.4216366 35.3667545,35.889539 35.2860273,36.3220268 C35.2691182,36.4135146 35.2235727,36.505539 35.1630273,36.5769049 C35.0604818,36.7140024 34.9039364,36.7872463 34.7373,36.7872463" id="Fill-19" fill="#0E1944"></path>
                            <mask id="mask-4" fill="white">
                                <use xlink:href="#path-3"></use>
                            </mask>
                            <g id="Clip-22"></g>
                            <polygon id="Fill-21" fill="#E0E0F0" mask="url(#mask-4)" points="8.32990909 37.2427805 13.0071818 37.2427805 13.0071818 35.2077805 8.32990909 35.2077805"></polygon>
                            <polygon id="Fill-23" fill="#E0E0F0" mask="url(#mask-4)" points="31.4779091 37.2427805 36.1549091 37.2427805 36.1549091 35.2077805 31.4779091 35.2077805"></polygon>
                            <polygon id="Fill-24" fill="#FFFFFF" mask="url(#mask-4)" points="2.67545455 20.9187805 14.1561818 20.9187805 14.1561818 18.0255122 2.67545455 18.0255122"></polygon>
                            <path d="M3.22118182,20.3821951 L13.611,20.3821951 L13.611,18.5620976 L3.22118182,18.5620976 L3.22118182,20.3821951 Z M14.1561818,21.4553659 L2.67572727,21.4553659 C2.37436364,21.4553659 2.13027273,21.2149756 2.13027273,20.9187805 L2.13027273,18.0255122 C2.13027273,17.7290488 2.37436364,17.4889268 2.67572727,17.4889268 L14.1561818,17.4889268 C14.4575455,17.4889268 14.7016364,17.7290488 14.7016364,18.0255122 L14.7016364,20.9187805 C14.7016364,21.2149756 14.4575455,21.4553659 14.1561818,21.4553659 L14.1561818,21.4553659 Z" id="Fill-25" fill="#0E1944" mask="url(#mask-4)"></path>
                            <polygon id="Fill-26" fill="#FFFFFF" mask="url(#mask-4)" points="30.2997273 20.9187805 42.2653636 20.9187805 42.2653636 18.0255122 30.2997273 18.0255122"></polygon>
                            <path d="M30.8451818,20.3821951 L41.7199091,20.3821951 L41.7199091,18.5620976 L30.8451818,18.5620976 L30.8451818,20.3821951 Z M42.2653636,21.4553659 L30.2997273,21.4553659 C29.9983636,21.4553659 29.7542727,21.2149756 29.7542727,20.9187805 L29.7542727,18.0255122 C29.7542727,17.7290488 29.9983636,17.4889268 30.2997273,17.4889268 L42.2653636,17.4889268 C42.5664545,17.4889268 42.8108182,17.7290488 42.8108182,18.0255122 L42.8108182,20.9187805 C42.8108182,21.2149756 42.5664545,21.4553659 42.2653636,21.4553659 L42.2653636,21.4553659 Z" id="Fill-27" fill="#0E1944" mask="url(#mask-4)"></path>
                            <path d="M12.6570545,35.7445 L7.68550909,35.7445 C7.38441818,35.7445 7.14005455,35.5041098 7.14005455,35.2079146 C7.14005455,34.9117195 7.38441818,34.6713293 7.68550909,34.6713293 L12.6570545,34.6713293 C12.9581455,34.6713293 13.2025091,34.9117195 13.2025091,35.2079146 C13.2025091,35.5041098 12.9581455,35.7445 12.6570545,35.7445" id="Fill-28" fill="#0E1944" mask="url(#mask-4)"></path>
                            <path d="M37.2099545,35.7445 L32.2384091,35.7445 C31.9373182,35.7445 31.6929545,35.5041098 31.6929545,35.2079146 C31.6929545,34.9117195 31.9373182,34.6713293 32.2384091,34.6713293 L37.2099545,34.6713293 C37.5110455,34.6713293 37.7554091,34.9117195 37.7554091,35.2079146 C37.7554091,35.5041098 37.5110455,35.7445 37.2099545,35.7445" id="Fill-29" fill="#0E1944" mask="url(#mask-4)"></path>
                            <path d="M15.8360182,2.27053415 L13.2050182,2.27053415 C12.7531091,2.27053415 12.3868364,2.63085122 12.3868364,3.0754122 L12.3868364,7.3871439 L16.6542,7.3871439 L16.6542,3.0754122 C16.6542,2.63085122 16.2879273,2.27053415 15.8360182,2.27053415" id="Fill-30" fill="#FFFFFF" mask="url(#mask-4)"></path>
                            <path d="M12.9321818,6.85063902 L16.1086364,6.85063902 L16.1086364,3.07549268 C16.1086364,2.92739512 15.9864545,2.8072 15.8359091,2.8072 L13.2049091,2.8072 C13.0543636,2.8072 12.9321818,2.92739512 12.9321818,3.07549268 L12.9321818,6.85063902 Z M16.6540909,7.92380976 L12.3867273,7.92380976 C12.0856364,7.92380976 11.8412727,7.68341951 11.8412727,7.38722439 L11.8412727,3.07549268 C11.8412727,2.33580976 12.453,1.73402927 13.2049091,1.73402927 L15.8359091,1.73402927 C16.5878182,1.73402927 17.1995455,2.33580976 17.1995455,3.07549268 L17.1995455,7.38722439 C17.1995455,7.68341951 16.9554545,7.92380976 16.6540909,7.92380976 L16.6540909,7.92380976 Z" id="Fill-31" fill="#0E1944" mask="url(#mask-4)"></path>
                            <path d="M32.4894273,15.3146829 C32.4212455,14.6874146 32.2993364,14.0719512 32.1070636,13.470439 C31.7116091,12.2336098 31.0712455,11.1295854 30.2298818,10.1358293 C29.2647,8.99585366 28.0887,8.13034146 26.7119727,7.52829268 C25.5037909,6.9997561 24.2364273,6.70597561 22.9172455,6.63917073 C22.2280636,6.60429268 21.5397,6.63756098 20.8565182,6.7354878 C20.2900636,6.81704878 19.7337,6.94743902 19.1890636,7.12263415 C17.8104273,7.56665854 16.5823364,8.26770732 15.5238818,9.24402439 C13.5785182,11.0383659 12.5116091,13.2456098 12.3575182,15.8679024 C12.3196091,16.5059024 12.3457909,17.1455122 12.4456091,17.7810976 C12.5855182,18.6723659 12.8358818,19.5335854 13.2539727,20.3328293 C13.7628818,21.3064634 14.2911545,22.2728537 14.8671545,23.2091951 C15.5765182,24.3633902 16.3423364,25.4837805 17.0860636,26.6175854 C17.9519727,27.9378537 18.7818818,29.2787805 19.5177,30.6747073 C20.7711545,33.0523171 21.7336091,35.5353659 22.3360636,38.1504146 C22.3805182,38.3425122 22.4230636,38.534878 22.4686091,38.7360976 C22.4808818,38.7202683 22.4866091,38.7162439 22.4877,38.7111463 C22.6355182,37.9148537 22.8367909,37.1311707 23.0645182,36.3541951 C23.7444273,34.0353415 24.7297909,31.8444634 25.9251545,29.7418537 C26.7978818,28.2066829 27.7527,26.7211463 28.7506091,25.2627073 C29.8892455,23.599561 30.9117,21.8733659 31.7645182,20.0505854 C32.2319727,19.0522683 32.4706091,17.9997561 32.5390636,16.9083415 C32.5726091,16.3773902 32.5469727,15.8456341 32.4894273,15.3146829" id="Fill-32" fill="#FFFFFF" mask="url(#mask-4)"></path>
                            <path d="M22.3878818,7.16242195 C21.9048818,7.16242195 21.4183364,7.1973 20.9350636,7.2667878 C20.4078818,7.34244634 19.8774273,7.46559268 19.3589727,7.63247073 C18.0430636,8.05637317 16.8785182,8.73032439 15.8969727,9.6355439 C14.0538818,11.335178 13.0464273,13.4423488 12.9021545,15.8988366 C12.8656091,16.5129585 12.8934273,17.1184951 12.9845182,17.6990805 C13.1271545,18.6080561 13.3739727,19.3893244 13.7388818,20.087422 C14.3350636,21.2273976 14.8415182,22.1310073 15.3337909,22.9313244 C15.8383364,23.7523 16.3832455,24.5735439 16.9101545,25.367422 C17.1220636,25.6869585 17.3342455,26.0062268 17.5442455,26.3268366 C18.5718818,27.8931293 19.3529727,29.1962268 20.0020636,30.4276902 C21.0485182,32.4127878 21.8732455,34.4402756 22.4628818,36.4742024 C22.4879727,36.3856659 22.5138818,36.2963244 22.5406091,36.2056415 C23.1959727,33.9696902 24.1472455,31.7699585 25.4492455,29.4800805 C26.2475182,28.0750317 27.1797,26.5975439 28.2981545,24.9631049 C29.5047,23.2006902 30.4761545,21.5206415 31.2689727,19.8263732 C31.6889727,18.9292024 31.9265182,17.9641537 31.9947,16.875422 C32.0230636,16.4225439 32.0075182,15.9307634 31.9472455,15.3716415 C31.8793364,14.7470561 31.7612455,14.1774707 31.5867,13.6312268 C31.2275182,12.5076171 30.6302455,11.4470561 29.8107,10.4793244 C28.9107,9.41634878 27.7936091,8.58839756 26.4905182,8.01827561 C25.3562455,7.52247073 24.1445182,7.23861707 22.8894273,7.17503171 C22.7230636,7.16671463 22.5556091,7.16242195 22.3878818,7.16242195 M22.4683364,39.2775927 C22.4282455,39.2775927 22.3876091,39.2733 22.3472455,39.2644463 C22.1402455,39.2193732 21.9823364,39.0562512 21.9362455,38.8526171 L21.8042455,38.2688122 C21.2361545,35.8040073 20.3039727,33.3319585 19.0336091,30.9218854 C18.4008818,29.7210073 17.6361545,28.4458122 16.6276091,26.9087634 C16.4184273,26.5897634 16.2076091,26.2721049 15.9967909,25.954178 C15.4647,25.1525195 14.9148818,24.3234951 14.4005182,23.4869585 C13.8948818,22.6649098 13.3764273,21.7406415 12.7687909,20.5783976 C12.3493364,19.7759341 12.0673364,18.8876171 11.9064273,17.8630073 C11.8033364,17.2075683 11.7719727,16.5258366 11.8128818,15.8365927 C11.9737909,13.0965195 13.0971545,10.7468122 15.1507909,8.85266585 C16.2496091,7.8390561 17.5513364,7.08569024 19.0194273,6.61269024 C19.5973364,6.42676341 20.1888818,6.28939756 20.7777,6.20488537 C21.4990636,6.1007878 22.2280636,6.06590976 22.9453364,6.10347073 C24.3348818,6.17349512 25.6767,6.48793415 26.9337,7.03793415 C28.3911545,7.67512927 29.6410636,8.60208049 30.6490636,9.79249512 C31.5597,10.8683488 32.2254273,12.0517878 32.6274273,13.3095439 C32.8237909,13.9242024 32.9560636,14.5613976 33.0316091,15.2576171 L33.0316091,15.2578854 C33.0989727,15.8773732 33.1158818,16.428178 33.0834273,16.9416902 C33.0076091,18.1479341 32.7307909,19.2696659 32.2597909,20.2752268 C31.4424273,22.0223488 30.4426091,23.7517634 29.2030636,25.5624707 C28.1015182,27.1719585 27.1851545,28.6247634 26.4010636,30.0040561 C25.1407909,32.2209585 24.2208818,34.3469098 23.5887,36.5026415 C23.3377909,37.3584951 23.1534273,38.1121293 23.0244273,38.8075439 C23.0069727,38.901178 22.9570636,38.9993732 22.8940636,39.0715439 C22.7904273,39.2046171 22.6333364,39.2775927 22.4683364,39.2775927" id="Fill-33" fill="#0E1944" mask="url(#mask-4)"></path>
                            <polyline id="Fill-34" fill="#FFFFFF" mask="url(#mask-4)" points="12.3867273 16.6936268 12.3867273 10.4295293 22.4822727 3.38282195 32.5502727 10.4295293 32.5502727 16.6936268"></polyline>
                            <path d="M32.5501636,17.2302122 C32.2490727,17.2302122 32.0047091,16.989822 32.0047091,16.6936268 L32.0047091,10.7064073 L22.4816182,4.0409439 L12.9320727,10.7069439 L12.9320727,16.6936268 C12.9320727,16.989822 12.6879818,17.2302122 12.3866182,17.2302122 C12.0855273,17.2302122 11.8411636,16.989822 11.8411636,16.6936268 L11.8411636,10.4295293 C11.8411636,10.2556756 11.9270727,10.0925537 12.0710727,9.9919439 L22.1666182,2.94523659 C22.3556182,2.81296829 22.6092545,2.8127 22.7982545,2.94550488 L32.8662545,9.9922122 C33.0102545,10.092822 33.0956182,10.2559439 33.0956182,10.4295293 L33.0956182,16.6936268 C33.0956182,16.989822 32.8512545,17.2302122 32.5501636,17.2302122" id="Fill-35" fill="#0E1944" mask="url(#mask-4)"></path>
                            <path d="M22.2371182,0.821646341 L9.02648182,9.6267439 L10.8439364,11.7867683 L22.4820273,3.92391463 L34.1149364,11.7830122 L35.9438455,9.63076829 L22.7517545,0.821914634 C22.5963,0.718085366 22.3925727,0.718085366 22.2371182,0.821646341" id="Fill-36" fill="#FFEBDE" mask="url(#mask-4)"></path>
                            <path d="M9.82936364,9.73974878 L10.9461818,11.0667244 L22.1735455,3.48182195 C22.3592727,3.35599268 22.605,3.35599268 22.7907273,3.48182195 L34.0148182,11.0643098 L35.1387273,9.74162683 L22.4942727,1.2984561 L9.82936364,9.73974878 Z M10.8441818,12.3234073 C10.6868182,12.3234073 10.5308182,12.2566024 10.4236364,12.1288951 L8.60618182,9.96887073 C8.508,9.85243171 8.46463636,9.70057805 8.48645455,9.55087073 C8.508,9.40116341 8.59309091,9.26728537 8.72045455,9.18277317 L21.9310909,0.377407317 L21.9313636,0.377407317 C22.2739091,0.149090244 22.716,0.149358537 23.0582727,0.377943902 L36.2500909,9.18652927 C36.3777273,9.27211463 36.4625455,9.40626098 36.4838182,9.55623659 C36.5053636,9.70648049 36.4609091,9.85833415 36.3621818,9.97477317 L34.5332727,12.1270171 C34.3532727,12.3395049 34.038,12.3824317 33.8061818,12.2254805 L22.4822727,4.57484634 L11.1526364,12.2289683 C11.0585455,12.292822 10.9508182,12.3234073 10.8441818,12.3234073 L10.8441818,12.3234073 Z" id="Fill-37" fill="#0E1944" mask="url(#mask-4)"></path>
                            <polygon id="Fill-38" fill="#E0E0F0" mask="url(#mask-4)" points="19.8248182 39.7537317 24.5018182 39.7537317 24.5018182 37.7187317 19.8248182 37.7187317"></polygon>
                            <path d="M24.7646455,19.7465024 L19.9578273,19.7465024 C19.6578273,19.7465024 19.4123727,19.5053073 19.4123727,19.2099171 L19.4123727,11.0967463 C19.4123727,10.8016244 19.6578273,10.560161 19.9578273,10.560161 L24.7646455,10.560161 C25.0646455,10.560161 25.3101,10.8016244 25.3101,11.0967463 L25.3101,19.2099171 C25.3101,19.5053073 25.0646455,19.7465024 24.7646455,19.7465024" id="Fill-39" fill="#FFEBDE" mask="url(#mask-4)"></path>
                            <path d="M19.9578273,11.0966927 L19.9578273,19.2098634 L24.7630091,19.2098634 L24.7646455,11.0966927 L19.9578273,11.0966927 Z M24.7646455,19.2098634 L24.7646455,19.7464488 L24.7646455,19.2098634 Z M24.7646455,20.2830341 L19.9578273,20.2830341 C19.3561909,20.2830341 18.8669182,19.8017171 18.8669182,19.2098634 L18.8669182,11.0966927 C18.8669182,10.504839 19.3561909,10.023522 19.9578273,10.023522 L24.7646455,10.023522 C25.3662818,10.023522 25.8555545,10.504839 25.8555545,11.0966927 L25.8555545,19.2098634 C25.8555545,19.8017171 25.3662818,20.2830341 24.7646455,20.2830341 L24.7646455,20.2830341 Z" id="Fill-40" fill="#0E1944" mask="url(#mask-4)"></path>
                            <path d="M24.9332455,38.2395683 L19.9617,38.2395683 C19.6606091,38.2395683 19.4162455,37.999178 19.4162455,37.7029829 C19.4162455,37.4067878 19.6606091,37.1663976 19.9617,37.1663976 L24.9332455,37.1663976 C25.2343364,37.1663976 25.4787,37.4067878 25.4787,37.7029829 C25.4787,37.999178 25.2343364,38.2395683 24.9332455,38.2395683" id="Fill-41" fill="#0E1944" mask="url(#mask-4)"></path>
                        </g>
                    </g>
                </g>
            </g>
        </g>
    </g>
</svg>