<?xml version="1.0" encoding="UTF-8"?>
<svg width="21px" height="16px" viewBox="0 0 21 16" version="1.1" xmlns="http://www.w3.org/2000/svg" xmlns:xlink="http://www.w3.org/1999/xlink">
    <!-- Generator: Sketch 46.2 (44496) - http://www.bohemiancoding.com/sketch -->
    <title>quote-icon</title>
    <desc>Created with Sketch.</desc>
    <defs></defs>
    <g id="Page-1" stroke="none" stroke-width="1" fill="none" fill-rule="evenodd">
        <g id="quote-icon" fill-rule="nonzero" fill="#FEC9A6">
            <path d="M7.9815498,8.401826 L7.9815498,16 L0,16 L0,10.666667 C0,8.620994 0.36162,6.733646 1.0848708,5.004566 C1.8081217,3.275486 3.0221317,1.607314 4.7269373,0 L7.6715867,2.191781 C5.6568165,4.237453 4.5202965,6.307448 4.2619926,8.401826 L7.9815498,8.401826 Z M21,8.401826 L21,16 L13.0184502,16 L13.0184502,10.666667 C13.0184502,8.620994 13.3800702,6.733646 14.103321,5.004566 C14.8265719,3.275486 16.0405819,1.607314 17.7453875,0 L20.6900369,2.191781 C18.6752667,4.237453 17.5387467,6.307448 17.2804428,8.401826 L21,8.401826 Z" id="“"></path>
        </g>
    </g>
</svg>