<?xml version="1.0" encoding="UTF-8"?>
<svg width="47px" height="44px" viewBox="0 0 47 44" version="1.1" xmlns="http://www.w3.org/2000/svg" xmlns:xlink="http://www.w3.org/1999/xlink">
    <!-- Generator: Sketch 46.2 (44496) - http://www.bohemiancoding.com/sketch -->
    <title>report-icon</title>
    <desc>Created with Sketch.</desc>
    <defs>
        <polygon id="path-1" points="0.256010119 43.7197452 32.3598077 43.7197452 32.3598077 0.175579618 0.256010119 0.175579618"></polygon>
        <polygon id="path-3" points="17.402869 17.5860994 17.402869 0.234965605 0.0825887256 0.234965605 0.0825887256 17.5860994 17.402869 17.5860994"></polygon>
        <polygon id="path-5" points="7.58296162e-21 0.0757528662 7.58296162e-21 21.7722369 22.8928327 21.7722369 22.8928327 0.0757528662 0 0.0757528662"></polygon>
    </defs>
    <g id="Page-1" stroke="none" stroke-width="1" fill="none" fill-rule="evenodd">
        <g id="Hompage-2" transform="translate(-172.000000, -2596.000000)">
            <g id="Roofstock-Handles" transform="translate(151.000000, 2336.000000)">
                <g id="Property-Analysis" transform="translate(0.000000, 232.000000)">
                    <g id="report-icon" transform="translate(21.000000, 28.000000)">
                        <path d="M38.7943036,43.264051 L11.1666964,43.264051 C10.2434821,43.264051 9.488125,42.5073631 9.488125,41.5825223 L9.488125,2.52229299 C9.488125,1.59745223 10.2434821,0.840764331 11.1666964,0.840764331 L38.7943036,0.840764331 C39.7175179,0.840764331 40.472875,1.59745223 40.472875,2.52229299 L40.472875,41.5825223 C40.472875,42.5073631 39.7175179,43.264051 38.7943036,43.264051" id="Fill-1" fill="#FFFFFF"></path>
                        <g id="Group-5" transform="translate(8.672619, 0.104815)">
                            <mask id="mask-2" fill="white">
                                <use xlink:href="#path-1"></use>
                            </mask>
                            <g id="Clip-4"></g>
                            <path d="M2.49410536,1.29659873 C1.8769506,1.29659873 1.37505774,1.7993758 1.37505774,2.41761783 L1.37505774,41.4778471 C1.37505774,42.0958089 1.8769506,42.5988662 2.49410536,42.5988662 L30.1217125,42.5988662 C30.7388673,42.5988662 31.2407601,42.0958089 31.2407601,41.4778471 L31.2407601,2.41761783 C31.2407601,1.7993758 30.7388673,1.29659873 30.1217125,1.29659873 L2.49410536,1.29659873 Z M30.1217125,43.7198854 L2.49410536,43.7198854 C1.2600756,43.7198854 0.256010119,42.714051 0.256010119,41.4778471 L0.256010119,2.41761783 C0.256010119,1.18141401 1.2600756,0.175579618 2.49410536,0.175579618 L30.1217125,0.175579618 C31.3557423,0.175579618 32.3598077,1.18141401 32.3598077,2.41761783 L32.3598077,41.4778471 C32.3598077,42.714051 31.3557423,43.7198854 30.1217125,43.7198854 L30.1217125,43.7198854 Z" id="Fill-3" fill="#0E1944" mask="url(#mask-2)"></path>
                        </g>
                        <path d="M33.0485536,36.042558 L30.4873333,37.0102777 C30.2319107,37.1069656 29.9387202,36.8132586 30.0352381,36.557386 L31.001256,33.9916535 L44.1713274,20.7983796 L46.2183452,22.8492841 L33.0485536,36.042558 Z" id="Fill-6" fill="#FFEBDE"></path>
                        <g id="Group-10" transform="translate(29.375000, 20.002904)">
                            <mask id="mask-4" fill="white">
                                <use xlink:href="#path-3"></use>
                            </mask>
                            <g id="Clip-9"></g>
                            <path d="M3.67355357,16.0396535 L3.67635119,16.0396535 L3.67355357,16.0396535 Z M2.1068869,14.2998318 L1.34649405,16.3199083 L3.36329762,15.5578955 L16.0521786,2.84637962 L14.7963274,1.58831592 L2.1068869,14.2998318 Z M1.01133929,17.5860994 C0.775220238,17.5860994 0.537982143,17.4894115 0.358375,17.3094879 C0.102113095,17.0527745 0.0153869048,16.6789146 0.13652381,16.3566217 L1.10282143,13.7908892 C1.13051786,13.7163414 1.17416071,13.6488 1.23067262,13.5924688 L14.400744,0.399194904 C14.5056548,0.294099363 14.6480536,0.234965605 14.7963274,0.234965605 C14.9446012,0.234965605 15.087,0.294099363 15.1919107,0.399194904 L17.2389286,2.45009936 C17.4577024,2.66897834 17.4577024,3.02378089 17.2389286,3.24294013 L4.0691369,16.4359338 C4.01290476,16.492265 3.94548214,16.5359847 3.87106548,16.5640102 L1.30984524,17.5317299 C1.21332738,17.5681631 1.1126131,17.5860994 1.01133929,17.5860994 L1.01133929,17.5860994 Z" id="Fill-8" fill="#0E1944" mask="url(#mask-4)"></path>
                        </g>
                        <path d="M32.3682565,17.1084051 C30.9039827,17.1084051 29.7502446,16.6190803 28.9070423,15.8783669 C28.7730363,15.7600994 28.7140065,15.5967108 28.7140065,15.4338828 C28.7140065,15.1376535 28.9358577,14.8117172 29.2911554,14.8117172 C29.4092149,14.8117172 29.5426613,14.8414242 29.646453,14.9299847 C30.3268339,15.5375771 31.2735482,16.0117682 32.4127387,16.0117682 C34.1724411,16.0117682 34.7347625,15.063386 34.7347625,14.3075389 C34.7347625,11.7594624 28.8924946,13.1669019 28.8924946,9.6401758 C28.8924946,8.01021401 30.3413815,6.89900382 32.2792923,6.89900382 C33.5510899,6.89900382 34.6457982,7.28463439 35.4442387,7.95108025 C35.5779649,8.06990828 35.6512625,8.23301656 35.6512625,8.39584459 C35.6512625,8.69207389 35.3997565,8.98886369 35.0746732,8.98886369 C34.9566137,8.98886369 34.8226077,8.94402293 34.7190958,8.85490191 C33.9953518,8.26244331 33.0922804,7.99592102 32.1900482,7.99592102 C31.0074946,7.99592102 30.1642923,8.63294013 30.1642923,9.56590828 C30.1642923,11.7888892 36.0068399,10.5142904 36.0068399,14.2044051 C36.0068399,15.6412713 35.0299113,17.1084051 32.3682565,17.1084051" id="Fill-11" fill="#0E1944"></path>
                        <path d="M32.3526738,19.1561146 C32.0438167,19.1561146 31.79315,18.9050064 31.79315,18.5956051 L31.79315,5.70388535 C31.79315,5.39420382 32.0438167,5.1433758 32.3526738,5.1433758 C32.661531,5.1433758 32.9121976,5.39420382 32.9121976,5.70388535 L32.9121976,18.5956051 C32.9121976,18.9050064 32.661531,19.1561146 32.3526738,19.1561146" id="Fill-15" fill="#0E1944"></path>
                        <path d="M25.7487821,37.4316688 L16.1308476,37.4316688 C15.8219905,37.4316688 15.5713238,37.1805605 15.5713238,36.8711592 C15.5713238,36.561758 15.8219905,36.3106497 16.1308476,36.3106497 L25.7487821,36.3106497 C26.0576393,36.3106497 26.308306,36.561758 26.308306,36.8711592 C26.308306,37.1805605 26.0576393,37.4316688 25.7487821,37.4316688" id="Fill-19" fill="#0E1944"></path>
                        <path d="M20.324031,28.8833376 L2.56894167,28.8833376 C1.46388214,28.8833376 0.559691667,27.9775541 0.559691667,26.8705478 L0.559691667,10.3209427 C0.559691667,9.21365605 1.46388214,8.30787261 2.56894167,8.30787261 L20.324031,8.30787261 C21.4290905,8.30787261 22.3335607,9.21365605 22.3335607,10.3209427 L22.3335607,26.8705478 C22.3335607,27.9775541 21.4290905,28.8833376 20.324031,28.8833376" id="Fill-21" fill="#E0E0F0"></path>
                        <g id="Group-25" transform="translate(0.000000, 7.671694)">
                            <mask id="mask-6" fill="white">
                                <use xlink:href="#path-5"></use>
                            </mask>
                            <g id="Clip-24"></g>
                            <path d="M2.56896964,1.19677197 C1.76968988,1.19677197 1.11896369,1.84836433 1.11896369,2.64905223 L1.11896369,19.1986573 C1.11896369,19.9996255 1.76968988,20.6512178 2.56896964,20.6512178 L20.3240589,20.6512178 C21.1233387,20.6512178 21.7737851,19.9996255 21.7737851,19.1986573 L21.7737851,2.64905223 C21.7737851,1.84836433 21.1233387,1.19677197 20.3240589,1.19677197 L2.56896964,1.19677197 Z M20.3240589,21.7722369 L2.56896964,21.7722369 C1.15253512,21.7722369 -8.39285714e-05,20.6178675 -8.39285714e-05,19.1986573 L-8.39285714e-05,2.64905223 C-8.39285714e-05,1.23012229 1.15253512,0.0757528662 2.56896964,0.0757528662 L20.3240589,0.0757528662 C21.7404935,0.0757528662 22.8928327,1.23012229 22.8928327,2.64905223 L22.8928327,19.1986573 C22.8928327,20.6178675 21.7404935,21.7722369 20.3240589,21.7722369 L20.3240589,21.7722369 Z" id="Fill-23" fill="#0E1944" mask="url(#mask-6)"></path>
                        </g>
                        <path d="M7.20963214,23.5129274 C7.06639405,23.5129274 6.92343571,23.4582777 6.81404881,23.3486981 C6.59555476,23.1298191 6.59555476,22.7750166 6.81404881,22.5561376 L15.2877571,14.0672204 C15.5062512,13.8486217 15.8604298,13.8486217 16.0789238,14.0672204 C16.2974179,14.2863796 16.2974179,14.6411822 16.0789238,14.8600611 L7.60521548,23.3486981 C7.49582857,23.4582777 7.35287024,23.5129274 7.20963214,23.5129274" id="Fill-26" fill="#0E1944"></path>
                        <path d="M9.90315179,15.082107 C9.90315179,16.1997631 8.99896131,17.1058268 7.88299107,17.1058268 C6.7673006,17.1058268 5.86283036,16.1997631 5.86283036,15.082107 C5.86283036,13.964451 6.7673006,13.0583873 7.88299107,13.0583873 C8.99896131,13.0583873 9.90315179,13.964451 9.90315179,15.082107" id="Fill-28" fill="#FFFFFF"></path>
                        <path d="M7.883075,13.6187567 C7.07764048,13.6187567 6.42215833,14.2751134 6.42215833,15.0819669 C6.42215833,15.8888204 7.07764048,16.5454573 7.883075,16.5454573 C8.68850952,16.5454573 9.34399167,15.8888204 9.34399167,15.0819669 C9.34399167,14.2751134 8.68850952,13.6187567 7.883075,13.6187567 M7.883075,17.6664764 C6.46048571,17.6664764 5.30311071,16.5070624 5.30311071,15.0819669 C5.30311071,13.6571516 6.46048571,12.4977376 7.883075,12.4977376 C9.30566429,12.4977376 10.4630393,13.6571516 10.4630393,15.0819669 C10.4630393,16.5070624 9.30566429,17.6664764 7.883075,17.6664764" id="Fill-30" fill="#0E1944"></path>
                        <path d="M17.1474744,22.3390803 C17.1474744,23.4567363 16.2432839,24.3628 15.1273137,24.3628 C14.0116232,24.3628 13.107153,23.4567363 13.107153,22.3390803 C13.107153,21.2214242 14.0116232,20.3153605 15.1273137,20.3153605 C16.2432839,20.3153605 17.1474744,21.2214242 17.1474744,22.3390803" id="Fill-32" fill="#FFFFFF"></path>
                        <path d="M15.1273976,20.875758 C14.3219631,20.875758 13.666481,21.5321146 13.666481,22.3389682 C13.666481,23.1458217 14.3219631,23.8024586 15.1273976,23.8024586 C15.9328321,23.8024586 16.5880345,23.1458217 16.5880345,22.3389682 C16.5880345,21.5321146 15.9328321,20.875758 15.1273976,20.875758 M15.1273976,24.9234777 C13.7048083,24.9234777 12.5474333,23.7640637 12.5474333,22.3389682 C12.5474333,20.9141529 13.7048083,19.7547389 15.1273976,19.7547389 C16.5497071,19.7547389 17.7070821,20.9141529 17.7070821,22.3389682 C17.7070821,23.7640637 16.5497071,24.9234777 15.1273976,24.9234777" id="Fill-34" fill="#0E1944"></path>
                    </g>
                </g>
            </g>
        </g>
    </g>
</svg>